<ttFont>
    <TTGlyph name=".notdef" xMin="123" yMin="-500" xMax="543" yMax="1050">
      <contour>
        <pt x="123" y="-500" on="1"/>
        <pt x="123" y="1050" on="1"/>
        <pt x="543" y="1050" on="1"/>
        <pt x="543" y="-500" on="1"/>
      </contour>
      <contour>
        <pt x="178" y="-448" on="1"/>
        <pt x="489" y="-448" on="1"/>
        <pt x="489" y="998" on="1"/>
        <pt x="178" y="998" on="1"/>
      </contour>
      <contour>
        <pt x="384" y="451" on="0"/>
        <pt x="435" y="387" on="0"/>
        <pt x="435" y="336" on="1"/>
        <pt x="435" y="283" on="0"/>
        <pt x="390" y="225" on="0"/>
        <pt x="340" y="218" on="1"/>
        <pt x="340" y="173" on="1"/>
        <pt x="340" y="162" on="0"/>
        <pt x="325" y="149" on="0"/>
        <pt x="315" y="149" on="1"/>
        <pt x="305" y="149" on="0"/>
        <pt x="290" y="162" on="0"/>
        <pt x="290" y="173" on="1"/>
        <pt x="290" y="257" on="1"/>
        <pt x="343" y="260" on="0"/>
        <pt x="381" y="293" on="0"/>
        <pt x="381" y="334" on="1"/>
        <pt x="381" y="367" on="0"/>
        <pt x="355" y="403" on="0"/>
        <pt x="320" y="403" on="1"/>
        <pt x="291" y="403" on="0"/>
        <pt x="268" y="392" on="1"/>
        <pt x="260" y="389" on="0"/>
        <pt x="255" y="389" on="1"/>
        <pt x="244" y="389" on="0"/>
        <pt x="231" y="402" on="0"/>
        <pt x="231" y="412" on="1"/>
        <pt x="231" y="431" on="0"/>
        <pt x="290" y="451" on="0"/>
        <pt x="324" y="451" on="1"/>
      </contour>
      <contour>
        <pt x="330" y="120" on="0"/>
        <pt x="350" y="100" on="0"/>
        <pt x="350" y="85" on="1"/>
        <pt x="350" y="69" on="0"/>
        <pt x="330" y="48" on="0"/>
        <pt x="315" y="48" on="1"/>
        <pt x="300" y="48" on="0"/>
        <pt x="280" y="69" on="0"/>
        <pt x="280" y="85" on="1"/>
        <pt x="280" y="100" on="0"/>
        <pt x="300" y="120" on="0"/>
        <pt x="315" y="120" on="1"/>
      </contour>
    </TTGlyph>
    <TTGlyph name="A" xMin="-5" yMin="0" xMax="587" yMax="691">
      <contour>
        <pt x="175" y="160" on="1"/>
        <pt x="132" y="0" on="1"/>
        <pt x="-5" y="0" on="1"/>
        <pt x="210" y="691" on="1"/>
        <pt x="373" y="691" on="1"/>
        <pt x="587" y="0" on="1"/>
        <pt x="447" y="0" on="1"/>
        <pt x="404" y="160" on="1"/>
      </contour>
      <contour>
        <pt x="289" y="590" on="1"/>
        <pt x="201" y="260" on="1"/>
        <pt x="378" y="260" on="1"/>
      </contour>
    </TTGlyph>
    <TTGlyph name="AE" xMin="-18" yMin="0" xMax="790" yMax="691">
      <contour>
        <pt x="790" y="0" on="1"/>
        <pt x="451" y="0" on="1"/>
        <pt x="418" y="160" on="1"/>
        <pt x="179" y="160" on="1"/>
        <pt x="122" y="0" on="1"/>
        <pt x="-18" y="0" on="1"/>
        <pt x="255" y="691" on="1"/>
        <pt x="751" y="691" on="1"/>
        <pt x="736" y="593" on="1"/>
        <pt x="448" y="593" on="1"/>
        <pt x="492" y="399" on="1"/>
        <pt x="742" y="399" on="1"/>
        <pt x="742" y="301" on="1"/>
        <pt x="515" y="301" on="1"/>
        <pt x="560" y="99" on="1"/>
        <pt x="790" y="99" on="1"/>
      </contour>
      <contour>
        <pt x="332" y="591" on="1"/>
        <pt x="214" y="260" on="1"/>
        <pt x="398" y="260" on="1"/>
      </contour>
    </TTGlyph>
    <TTGlyph name="AEacute" xMin="-18" yMin="0" xMax="790" yMax="936">
      <component glyphName="AE" x="0" y="0" flags="0x0"/>
      <component glyphName="acute.case" x="318" y="0" flags="0x0"/>
    </TTGlyph>
    <TTGlyph name="Aacute" xMin="-5" yMin="0" xMax="587" yMax="936">
      <component glyphName="A" x="0" y="0" flags="0x0"/>
      <component glyphName="acute.case" x="130" y="0" flags="0x0"/>
    </TTGlyph>
    <TTGlyph name="Abreve" xMin="-5" yMin="0" xMax="587" yMax="913">
      <component glyphName="A" x="0" y="0" flags="0x0"/>
      <component glyphName="breve.case" x="98" y="0" flags="0x0"/>
    </TTGlyph>
    <TTGlyph name="Acircumflex" xMin="-5" yMin="0" xMax="587" yMax="933">
      <component glyphName="A" x="0" y="0" flags="0x0"/>
      <component glyphName="circumflex.case" x="83" y="0" flags="0x0"/>
    </TTGlyph>
    <TTGlyph name="Adieresis" xMin="-5" yMin="0" xMax="587" yMax="911">
      <component glyphName="A" x="0" y="0" flags="0x0"/>
      <component glyphName="dieresis.case" x="79" y="0" flags="0x0"/>
    </TTGlyph>
    <TTGlyph name="Agrave" xMin="-5" yMin="0" xMax="587" yMax="936">
      <component glyphName="A" x="0" y="0" flags="0x0"/>
      <component glyphName="grave.case" x="122" y="0" flags="0x0"/>
    </TTGlyph>
    <TTGlyph name="Alpha" xMin="-5" yMin="0" xMax="587" yMax="691">
      <contour>
        <pt x="175" y="160" on="1"/>
        <pt x="132" y="0" on="1"/>
        <pt x="-5" y="0" on="1"/>
        <pt x="210" y="691" on="1"/>
        <pt x="373" y="691" on="1"/>
        <pt x="587" y="0" on="1"/>
        <pt x="447" y="0" on="1"/>
        <pt x="404" y="160" on="1"/>
      </contour>
      <contour>
        <pt x="289" y="590" on="1"/>
        <pt x="201" y="260" on="1"/>
        <pt x="378" y="260" on="1"/>
      </contour>
    </TTGlyph>
    <TTGlyph name="Alphatonos" xMin="-38" yMin="0" xMax="587" yMax="717">
      <component glyphName="A" x="0" y="0" flags="0x0"/>
      <component glyphName="tonos.case" x="-74" y="0" flags="0x0"/>
    </TTGlyph>
    <TTGlyph name="Amacron" xMin="-5" yMin="0" xMax="587" yMax="874">
      <component glyphName="A" x="0" y="0" flags="0x0"/>
      <component glyphName="macron.case" x="116" y="-4" flags="0x0"/>
    </TTGlyph>
    <TTGlyph name="Aogonek" xMin="-5" yMin="-240" xMax="587" yMax="691">
      <contour>
        <pt x="454" y="-28" on="0"/>
        <pt x="403" y="-80" on="0"/>
        <pt x="403" y="-108" on="1"/>
        <pt x="403" y="-154" on="0"/>
        <pt x="457" y="-154" on="1"/>
        <pt x="486" y="-154" on="0"/>
        <pt x="518" y="-147" on="1"/>
        <pt x="508" y="-232" on="1"/>
        <pt x="476" y="-240" on="0"/>
        <pt x="442" y="-240" on="1"/>
        <pt x="380" y="-240" on="0"/>
        <pt x="305" y="-179" on="0"/>
        <pt x="305" y="-130" on="1"/>
        <pt x="305" y="-79" on="0"/>
        <pt x="374" y="-5" on="0"/>
        <pt x="441" y="22" on="1"/>
        <pt x="404" y="160" on="1"/>
        <pt x="175" y="160" on="1"/>
        <pt x="132" y="0" on="1"/>
        <pt x="-5" y="0" on="1"/>
        <pt x="210" y="691" on="1"/>
        <pt x="373" y="691" on="1"/>
        <pt x="587" y="0" on="1"/>
        <pt x="523" y="0" on="1"/>
      </contour>
      <contour>
        <pt x="289" y="590" on="1"/>
        <pt x="201" y="260" on="1"/>
        <pt x="378" y="260" on="1"/>
      </contour>
    </TTGlyph>
    <TTGlyph name="Aring" xMin="-5" yMin="0" xMax="587" yMax="979">
      <component glyphName="A" x="0" y="0" flags="0x0"/>
      <component glyphName="ring.case" x="134" y="0" flags="0x0"/>
    </TTGlyph>
    <TTGlyph name="Atilde" xMin="-5" yMin="0" xMax="587" yMax="910">
      <component glyphName="A" x="0" y="0" flags="0x0"/>
      <component glyphName="tilde.case" x="83" y="0" flags="0x0"/>
    </TTGlyph>
    <TTGlyph name="B" xMin="81" yMin="0" xMax="578" yMax="691">
      <contour>
        <pt x="491" y="353" on="0"/>
        <pt x="578" y="277" on="0"/>
        <pt x="578" y="199" on="1"/>
        <pt x="578" y="91" on="0"/>
        <pt x="426" y="0" on="0"/>
        <pt x="289" y="0" on="1"/>
        <pt x="81" y="0" on="1"/>
        <pt x="81" y="691" on="1"/>
        <pt x="262" y="691" on="1"/>
        <pt x="548" y="691" on="0"/>
        <pt x="548" y="515" on="1"/>
        <pt x="548" y="454" on="0"/>
        <pt x="474" y="377" on="0"/>
        <pt x="420" y="366" on="1"/>
      </contour>
      <contour>
        <pt x="213" y="407" on="1"/>
        <pt x="294" y="407" on="1"/>
        <pt x="349" y="407" on="0"/>
        <pt x="413" y="456" on="0"/>
        <pt x="413" y="504" on="1"/>
        <pt x="413" y="554" on="0"/>
        <pt x="346" y="594" on="0"/>
        <pt x="275" y="594" on="1"/>
        <pt x="213" y="594" on="1"/>
      </contour>
      <contour>
        <pt x="363" y="99" on="0"/>
        <pt x="440" y="143" on="0"/>
        <pt x="440" y="204" on="1"/>
        <pt x="440" y="263" on="0"/>
        <pt x="367" y="315" on="0"/>
        <pt x="304" y="315" on="1"/>
        <pt x="213" y="315" on="1"/>
        <pt x="213" y="99" on="1"/>
        <pt x="290" y="99" on="1"/>
      </contour>
    </TTGlyph>
    <TTGlyph name="Beta" xMin="81" yMin="0" xMax="578" yMax="691">
      <component glyphName="B" x="0" y="0" flags="0x0"/>
    </TTGlyph>
    <TTGlyph name="C" xMin="43" yMin="-15" xMax="555" yMax="706">
      <contour>
        <pt x="408" y="706" on="0"/>
        <pt x="503" y="670" on="0"/>
        <pt x="547" y="633" on="1"/>
        <pt x="479" y="554" on="1"/>
        <pt x="420" y="604" on="0"/>
        <pt x="351" y="604" on="1"/>
        <pt x="274" y="604" on="0"/>
        <pt x="182" y="480" on="0"/>
        <pt x="182" y="347" on="1"/>
        <pt x="182" y="216" on="0"/>
        <pt x="274" y="91" on="0"/>
        <pt x="353" y="91" on="1"/>
        <pt x="393" y="91" on="0"/>
        <pt x="455" y="121" on="0"/>
        <pt x="493" y="149" on="1"/>
        <pt x="555" y="69" on="1"/>
        <pt x="520" y="33" on="0"/>
        <pt x="413" y="-15" on="0"/>
        <pt x="347" y="-15" on="1"/>
        <pt x="257" y="-15" on="0"/>
        <pt x="119" y="69" on="0"/>
        <pt x="43" y="232" on="0"/>
        <pt x="43" y="347" on="1"/>
        <pt x="43" y="460" on="0"/>
        <pt x="122" y="622" on="0"/>
        <pt x="258" y="706" on="0"/>
        <pt x="343" y="706" on="1"/>
      </contour>
    </TTGlyph>
    <TTGlyph name="Cacute" xMin="43" yMin="-15" xMax="555" yMax="936">
      <component glyphName="C" x="0" y="0" flags="0x0"/>
      <component glyphName="acute.case" x="189" y="0" flags="0x0"/>
    </TTGlyph>
    <TTGlyph name="Cacute.loclPLK" xMin="43" yMin="-15" xMax="555" yMax="947">
      <component glyphName="C" x="0" y="0" flags="0x0"/>
      <component glyphName="acute.case.loclPLK" x="190" y="0" flags="0x0"/>
    </TTGlyph>
    <TTGlyph name="Ccaron" xMin="43" yMin="-15" xMax="555" yMax="928">
      <component glyphName="C" x="0" y="0" flags="0x0"/>
      <component glyphName="caron.case" x="142" y="0" flags="0x0"/>
    </TTGlyph>
    <TTGlyph name="Ccedilla" xMin="43" yMin="-253" xMax="555" yMax="706">
      <contour>
        <pt x="524" y="38" on="0"/>
        <pt x="435" y="-7" on="0"/>
        <pt x="380" y="-13" on="1"/>
        <pt x="380" y="-52" on="1"/>
        <pt x="430" y="-57" on="0"/>
        <pt x="479" y="-107" on="0"/>
        <pt x="479" y="-145" on="1"/>
        <pt x="479" y="-195" on="0"/>
        <pt x="403" y="-253" on="0"/>
        <pt x="341" y="-253" on="1"/>
        <pt x="311" y="-253" on="0"/>
        <pt x="256" y="-237" on="0"/>
        <pt x="239" y="-225" on="1"/>
        <pt x="270" y="-162" on="1"/>
        <pt x="302" y="-179" on="0"/>
        <pt x="333" y="-179" on="1"/>
        <pt x="355" y="-179" on="0"/>
        <pt x="382" y="-162" on="0"/>
        <pt x="382" y="-144" on="1"/>
        <pt x="382" y="-125" on="0"/>
        <pt x="338" y="-106" on="0"/>
        <pt x="291" y="-106" on="1"/>
        <pt x="302" y="-12" on="1"/>
        <pt x="183" y="3" on="0"/>
        <pt x="43" y="189" on="0"/>
        <pt x="43" y="347" on="1"/>
        <pt x="43" y="460" on="0"/>
        <pt x="122" y="622" on="0"/>
        <pt x="258" y="706" on="0"/>
        <pt x="343" y="706" on="1"/>
        <pt x="408" y="706" on="0"/>
        <pt x="503" y="670" on="0"/>
        <pt x="547" y="633" on="1"/>
        <pt x="479" y="554" on="1"/>
        <pt x="420" y="604" on="0"/>
        <pt x="351" y="604" on="1"/>
        <pt x="274" y="604" on="0"/>
        <pt x="182" y="480" on="0"/>
        <pt x="182" y="347" on="1"/>
        <pt x="182" y="216" on="0"/>
        <pt x="274" y="91" on="0"/>
        <pt x="353" y="91" on="1"/>
        <pt x="393" y="91" on="0"/>
        <pt x="455" y="121" on="0"/>
        <pt x="493" y="149" on="1"/>
        <pt x="555" y="69" on="1"/>
      </contour>
    </TTGlyph>
    <TTGlyph name="Ccircumflex" xMin="43" yMin="-15" xMax="555" yMax="933">
      <component glyphName="C" x="0" y="0" flags="0x0"/>
      <component glyphName="circumflex.case" x="142" y="0" flags="0x0"/>
    </TTGlyph>
    <TTGlyph name="Cdotaccent" xMin="43" yMin="-15" xMax="555" yMax="923">
      <component glyphName="C" x="0" y="0" flags="0x0"/>
      <component glyphName="dotaccent.case" x="240" y="0" flags="0x0"/>
    </TTGlyph>
    <TTGlyph name="Chi" xMin="0" yMin="0" xMax="563" yMax="691">
      <component glyphName="X" x="0" y="0" flags="0x0"/>
    </TTGlyph>
    <TTGlyph name="D" xMin="81" yMin="0" xMax="605" yMax="691">
      <contour>
        <pt x="412" y="691" on="0"/>
        <pt x="605" y="545" on="0"/>
        <pt x="605" y="349" on="1"/>
        <pt x="605" y="157" on="0"/>
        <pt x="415" y="0" on="0"/>
        <pt x="269" y="0" on="1"/>
        <pt x="81" y="0" on="1"/>
        <pt x="81" y="691" on="1"/>
        <pt x="251" y="691" on="1"/>
      </contour>
      <contour>
        <pt x="213" y="99" on="1"/>
        <pt x="278" y="99" on="1"/>
        <pt x="366" y="99" on="0"/>
        <pt x="466" y="208" on="0"/>
        <pt x="466" y="349" on="1"/>
        <pt x="466" y="447" on="0"/>
        <pt x="415" y="554" on="0"/>
        <pt x="332" y="592" on="0"/>
        <pt x="274" y="592" on="1"/>
        <pt x="213" y="592" on="1"/>
      </contour>
    </TTGlyph>
    <TTGlyph name="Dcaron" xMin="81" yMin="0" xMax="605" yMax="928">
      <component glyphName="D" x="0" y="0" flags="0x0"/>
      <component glyphName="caron.case" x="90" y="0" flags="0x0"/>
    </TTGlyph>
    <TTGlyph name="Dcroat" xMin="17" yMin="0" xMax="618" yMax="691">
      <component glyphName="Eth" x="0" y="0" flags="0x0"/>
    </TTGlyph>
    <TTGlyph name="Delta" xMin="-5" yMin="0" xMax="596" yMax="691">
      <contour>
        <pt x="-5" y="0" on="1"/>
        <pt x="215" y="691" on="1"/>
        <pt x="378" y="691" on="1"/>
        <pt x="596" y="0" on="1"/>
      </contour>
      <contour>
        <pt x="431" y="101" on="1"/>
        <pt x="294" y="589" on="1"/>
        <pt x="157" y="101" on="1"/>
      </contour>
    </TTGlyph>
    <TTGlyph name="E" xMin="81" yMin="0" xMax="486" yMax="691">
      <contour>
        <pt x="213" y="593" on="1"/>
        <pt x="213" y="400" on="1"/>
        <pt x="435" y="400" on="1"/>
        <pt x="435" y="302" on="1"/>
        <pt x="213" y="302" on="1"/>
        <pt x="213" y="99" on="1"/>
        <pt x="486" y="99" on="1"/>
        <pt x="486" y="0" on="1"/>
        <pt x="81" y="0" on="1"/>
        <pt x="81" y="691" on="1"/>
        <pt x="482" y="691" on="1"/>
        <pt x="468" y="593" on="1"/>
      </contour>
    </TTGlyph>
    <TTGlyph name="Eacute" xMin="81" yMin="0" xMax="486" yMax="936">
      <component glyphName="E" x="0" y="0" flags="0x0"/>
      <component glyphName="acute.case" x="122" y="0" flags="0x0"/>
    </TTGlyph>
    <TTGlyph name="Ebreve" xMin="81" yMin="0" xMax="486" yMax="913">
      <component glyphName="E" x="0" y="0" flags="0x0"/>
      <component glyphName="breve.case" x="90" y="0" flags="0x0"/>
    </TTGlyph>
    <TTGlyph name="Ecaron" xMin="81" yMin="0" xMax="486" yMax="928">
      <component glyphName="E" x="0" y="0" flags="0x0"/>
      <component glyphName="caron.case" x="75" y="0" flags="0x0"/>
    </TTGlyph>
    <TTGlyph name="Ecircumflex" xMin="81" yMin="0" xMax="486" yMax="933">
      <component glyphName="E" x="0" y="0" flags="0x0"/>
      <component glyphName="circumflex.case" x="75" y="0" flags="0x0"/>
    </TTGlyph>
    <TTGlyph name="Edieresis" xMin="81" yMin="0" xMax="486" yMax="911">
      <component glyphName="E" x="0" y="0" flags="0x0"/>
      <component glyphName="dieresis.case" x="71" y="0" flags="0x0"/>
    </TTGlyph>
    <TTGlyph name="Edotaccent" xMin="81" yMin="0" xMax="486" yMax="923">
      <component glyphName="E" x="0" y="0" flags="0x0"/>
      <component glyphName="dotaccent.case" x="173" y="0" flags="0x0"/>
    </TTGlyph>
    <TTGlyph name="Egrave" xMin="81" yMin="0" xMax="486" yMax="936">
      <component glyphName="E" x="0" y="0" flags="0x0"/>
      <component glyphName="grave.case" x="114" y="0" flags="0x0"/>
    </TTGlyph>
    <TTGlyph name="Emacron" xMin="81" yMin="0" xMax="486" yMax="874">
      <component glyphName="E" x="0" y="0" flags="0x0"/>
      <component glyphName="macron.case" x="108" y="-4" flags="0x0"/>
    </TTGlyph>
    <TTGlyph name="Eng" xMin="81" yMin="-217" xMax="591" yMax="691">
      <contour>
        <pt x="591" y="47" on="1"/>
        <pt x="591" y="-31" on="0"/>
        <pt x="546" y="-130" on="0"/>
        <pt x="465" y="-190" on="0"/>
        <pt x="399" y="-217" on="1"/>
        <pt x="362" y="-131" on="1"/>
        <pt x="400" y="-114" on="0"/>
        <pt x="444" y="-84" on="0"/>
        <pt x="471" y="-37" on="0"/>
        <pt x="475" y="0" on="1"/>
        <pt x="419" y="0" on="1"/>
        <pt x="186" y="554" on="1"/>
        <pt x="182" y="554" on="1"/>
        <pt x="201" y="419" on="0"/>
        <pt x="201" y="282" on="1"/>
        <pt x="201" y="0" on="1"/>
        <pt x="81" y="0" on="1"/>
        <pt x="81" y="691" on="1"/>
        <pt x="250" y="691" on="1"/>
        <pt x="486" y="135" on="1"/>
        <pt x="490" y="135" on="1"/>
        <pt x="484" y="166" on="0"/>
        <pt x="471" y="301" on="0"/>
        <pt x="471" y="367" on="1"/>
        <pt x="471" y="691" on="1"/>
        <pt x="591" y="691" on="1"/>
      </contour>
    </TTGlyph>
    <TTGlyph name="Eogonek" xMin="81" yMin="-240" xMax="486" yMax="691">
      <contour>
        <pt x="446" y="0" on="1"/>
        <pt x="377" y="-28" on="0"/>
        <pt x="325" y="-80" on="0"/>
        <pt x="325" y="-108" on="1"/>
        <pt x="325" y="-154" on="0"/>
        <pt x="380" y="-154" on="1"/>
        <pt x="407" y="-154" on="0"/>
        <pt x="441" y="-147" on="1"/>
        <pt x="431" y="-232" on="1"/>
        <pt x="397" y="-240" on="0"/>
        <pt x="364" y="-240" on="1"/>
        <pt x="303" y="-240" on="0"/>
        <pt x="227" y="-179" on="0"/>
        <pt x="227" y="-130" on="1"/>
        <pt x="227" y="-49" on="0"/>
        <pt x="318" y="0" on="1"/>
        <pt x="81" y="0" on="1"/>
        <pt x="81" y="691" on="1"/>
        <pt x="482" y="691" on="1"/>
        <pt x="468" y="593" on="1"/>
        <pt x="213" y="593" on="1"/>
        <pt x="213" y="400" on="1"/>
        <pt x="435" y="400" on="1"/>
        <pt x="435" y="302" on="1"/>
        <pt x="213" y="302" on="1"/>
        <pt x="213" y="99" on="1"/>
        <pt x="486" y="99" on="1"/>
        <pt x="486" y="0" on="1"/>
      </contour>
    </TTGlyph>
    <TTGlyph name="Epsilon" xMin="81" yMin="0" xMax="486" yMax="691">
      <contour>
        <pt x="213" y="593" on="1"/>
        <pt x="213" y="400" on="1"/>
        <pt x="435" y="400" on="1"/>
        <pt x="435" y="302" on="1"/>
        <pt x="213" y="302" on="1"/>
        <pt x="213" y="99" on="1"/>
        <pt x="486" y="99" on="1"/>
        <pt x="486" y="0" on="1"/>
        <pt x="81" y="0" on="1"/>
        <pt x="81" y="691" on="1"/>
        <pt x="482" y="691" on="1"/>
        <pt x="468" y="593" on="1"/>
      </contour>
    </TTGlyph>
    <TTGlyph name="Epsilontonos" xMin="-107" yMin="0" xMax="486" yMax="717">
      <component glyphName="E" x="0" y="0" flags="0x0"/>
      <component glyphName="tonos.case" x="-143" y="0" flags="0x0"/>
    </TTGlyph>
    <TTGlyph name="Eta" xMin="81" yMin="0" xMax="592" yMax="691">
      <contour>
        <pt x="213" y="309" on="1"/>
        <pt x="213" y="0" on="1"/>
        <pt x="81" y="0" on="1"/>
        <pt x="81" y="691" on="1"/>
        <pt x="213" y="691" on="1"/>
        <pt x="213" y="414" on="1"/>
        <pt x="459" y="414" on="1"/>
        <pt x="459" y="691" on="1"/>
        <pt x="592" y="691" on="1"/>
        <pt x="592" y="0" on="1"/>
        <pt x="459" y="0" on="1"/>
        <pt x="459" y="309" on="1"/>
      </contour>
    </TTGlyph>
    <TTGlyph name="Etatonos" xMin="-107" yMin="0" xMax="592" yMax="717">
      <component glyphName="H" x="0" y="0" flags="0x0"/>
      <component glyphName="tonos.case" x="-143" y="0" flags="0x0"/>
    </TTGlyph>
    <TTGlyph name="Eth" xMin="17" yMin="0" xMax="618" yMax="691">
      <contour>
        <pt x="425" y="691" on="0"/>
        <pt x="618" y="545" on="0"/>
        <pt x="618" y="349" on="1"/>
        <pt x="618" y="157" on="0"/>
        <pt x="428" y="0" on="0"/>
        <pt x="283" y="0" on="1"/>
        <pt x="94" y="0" on="1"/>
        <pt x="94" y="310" on="1"/>
        <pt x="17" y="310" on="1"/>
        <pt x="17" y="396" on="1"/>
        <pt x="94" y="396" on="1"/>
        <pt x="94" y="691" on="1"/>
        <pt x="265" y="691" on="1"/>
      </contour>
      <contour>
        <pt x="379" y="99" on="0"/>
        <pt x="480" y="208" on="0"/>
        <pt x="480" y="349" on="1"/>
        <pt x="480" y="447" on="0"/>
        <pt x="429" y="554" on="0"/>
        <pt x="345" y="592" on="0"/>
        <pt x="287" y="592" on="1"/>
        <pt x="227" y="592" on="1"/>
        <pt x="227" y="396" on="1"/>
        <pt x="371" y="396" on="1"/>
        <pt x="371" y="310" on="1"/>
        <pt x="227" y="310" on="1"/>
        <pt x="227" y="99" on="1"/>
        <pt x="291" y="99" on="1"/>
      </contour>
    </TTGlyph>
    <TTGlyph name="Euro" xMin="17" yMin="-15" xMax="568" yMax="685">
      <contour>
        <pt x="248" y="151" on="0"/>
        <pt x="325" y="83" on="0"/>
        <pt x="391" y="83" on="1"/>
        <pt x="459" y="83" on="0"/>
        <pt x="534" y="125" on="1"/>
        <pt x="534" y="23" on="1"/>
        <pt x="494" y="4" on="0"/>
        <pt x="420" y="-15" on="0"/>
        <pt x="377" y="-15" on="1"/>
        <pt x="266" y="-15" on="0"/>
        <pt x="126" y="109" on="0"/>
        <pt x="103" y="225" on="1"/>
        <pt x="17" y="225" on="1"/>
        <pt x="35" y="297" on="1"/>
        <pt x="100" y="297" on="1"/>
        <pt x="100" y="377" on="1"/>
        <pt x="17" y="377" on="1"/>
        <pt x="35" y="450" on="1"/>
        <pt x="105" y="450" on="1"/>
        <pt x="132" y="561" on="0"/>
        <pt x="280" y="685" on="0"/>
        <pt x="381" y="685" on="1"/>
        <pt x="483" y="685" on="0"/>
        <pt x="568" y="628" on="1"/>
        <pt x="521" y="547" on="1"/>
        <pt x="487" y="569" on="0"/>
        <pt x="425" y="588" on="0"/>
        <pt x="386" y="588" on="1"/>
        <pt x="332" y="588" on="0"/>
        <pt x="255" y="520" on="0"/>
        <pt x="237" y="450" on="1"/>
        <pt x="486" y="450" on="1"/>
        <pt x="467" y="377" on="1"/>
        <pt x="231" y="377" on="1"/>
        <pt x="231" y="297" on="1"/>
        <pt x="450" y="297" on="1"/>
        <pt x="433" y="225" on="1"/>
        <pt x="235" y="225" on="1"/>
      </contour>
    </TTGlyph>
    <TTGlyph name="Euro.osf" xMin="17" yMin="-15" xMax="568" yMax="685">
      <component glyphName="Euro" x="0" y="0" flags="0x0"/>
    </TTGlyph>
    <TTGlyph name="Euro.tf" xMin="17" yMin="-15" xMax="561" yMax="706">
      <contour>
        <pt x="247" y="154" on="0"/>
        <pt x="320" y="83" on="0"/>
        <pt x="386" y="83" on="1"/>
        <pt x="425" y="83" on="0"/>
        <pt x="491" y="105" on="0"/>
        <pt x="527" y="125" on="1"/>
        <pt x="527" y="23" on="1"/>
        <pt x="487" y="4" on="0"/>
        <pt x="413" y="-15" on="0"/>
        <pt x="370" y="-15" on="1"/>
        <pt x="261" y="-15" on="0"/>
        <pt x="125" y="113" on="0"/>
        <pt x="103" y="235" on="1"/>
        <pt x="17" y="235" on="1"/>
        <pt x="35" y="307" on="1"/>
        <pt x="100" y="307" on="1"/>
        <pt x="100" y="387" on="1"/>
        <pt x="17" y="387" on="1"/>
        <pt x="35" y="460" on="1"/>
        <pt x="104" y="460" on="1"/>
        <pt x="131" y="578" on="0"/>
        <pt x="274" y="706" on="0"/>
        <pt x="374" y="706" on="1"/>
        <pt x="429" y="706" on="0"/>
        <pt x="520" y="677" on="0"/>
        <pt x="561" y="649" on="1"/>
        <pt x="517" y="568" on="1"/>
        <pt x="482" y="589" on="0"/>
        <pt x="419" y="609" on="0"/>
        <pt x="381" y="609" on="1"/>
        <pt x="326" y="609" on="0"/>
        <pt x="254" y="538" on="0"/>
        <pt x="237" y="460" on="1"/>
        <pt x="486" y="460" on="1"/>
        <pt x="467" y="387" on="1"/>
        <pt x="231" y="387" on="1"/>
        <pt x="231" y="307" on="1"/>
        <pt x="450" y="307" on="1"/>
        <pt x="433" y="235" on="1"/>
        <pt x="234" y="235" on="1"/>
      </contour>
    </TTGlyph>
    <TTGlyph name="Euro.tosf" xMin="33" yMin="-15" xMax="571" yMax="685">
      <contour>
        <pt x="264" y="151" on="0"/>
        <pt x="337" y="83" on="0"/>
        <pt x="401" y="83" on="1"/>
        <pt x="437" y="83" on="0"/>
        <pt x="503" y="105" on="0"/>
        <pt x="538" y="125" on="1"/>
        <pt x="538" y="23" on="1"/>
        <pt x="496" y="4" on="0"/>
        <pt x="427" y="-15" on="0"/>
        <pt x="386" y="-15" on="1"/>
        <pt x="278" y="-15" on="0"/>
        <pt x="142" y="109" on="0"/>
        <pt x="120" y="225" on="1"/>
        <pt x="33" y="225" on="1"/>
        <pt x="51" y="297" on="1"/>
        <pt x="116" y="297" on="1"/>
        <pt x="116" y="377" on="1"/>
        <pt x="33" y="377" on="1"/>
        <pt x="51" y="450" on="1"/>
        <pt x="121" y="450" on="1"/>
        <pt x="148" y="561" on="0"/>
        <pt x="292" y="685" on="0"/>
        <pt x="391" y="685" on="1"/>
        <pt x="443" y="685" on="0"/>
        <pt x="530" y="656" on="0"/>
        <pt x="571" y="628" on="1"/>
        <pt x="524" y="547" on="1"/>
        <pt x="490" y="569" on="0"/>
        <pt x="432" y="588" on="0"/>
        <pt x="396" y="588" on="1"/>
        <pt x="287" y="588" on="0"/>
        <pt x="254" y="450" on="1"/>
        <pt x="491" y="450" on="1"/>
        <pt x="472" y="377" on="1"/>
        <pt x="247" y="377" on="1"/>
        <pt x="247" y="297" on="1"/>
        <pt x="455" y="297" on="1"/>
        <pt x="437" y="225" on="1"/>
        <pt x="251" y="225" on="1"/>
      </contour>
    </TTGlyph>
    <TTGlyph name="F" xMin="81" yMin="0" xMax="472" yMax="691">
      <contour>
        <pt x="213" y="593" on="1"/>
        <pt x="213" y="386" on="1"/>
        <pt x="426" y="386" on="1"/>
        <pt x="426" y="288" on="1"/>
        <pt x="213" y="288" on="1"/>
        <pt x="213" y="0" on="1"/>
        <pt x="81" y="0" on="1"/>
        <pt x="81" y="691" on="1"/>
        <pt x="472" y="691" on="1"/>
        <pt x="458" y="593" on="1"/>
      </contour>
    </TTGlyph>
    <TTGlyph name="G" xMin="43" yMin="-15" xMax="586" yMax="706">
      <contour>
        <pt x="428" y="706" on="0"/>
        <pt x="534" y="665" on="0"/>
        <pt x="580" y="625" on="1"/>
        <pt x="508" y="550" on="1"/>
        <pt x="472" y="580" on="0"/>
        <pt x="407" y="606" on="0"/>
        <pt x="364" y="606" on="1"/>
        <pt x="284" y="606" on="0"/>
        <pt x="182" y="478" on="0"/>
        <pt x="182" y="346" on="1"/>
        <pt x="182" y="208" on="0"/>
        <pt x="263" y="86" on="0"/>
        <pt x="346" y="86" on="1"/>
        <pt x="409" y="86" on="0"/>
        <pt x="456" y="113" on="1"/>
        <pt x="456" y="293" on="1"/>
        <pt x="352" y="293" on="1"/>
        <pt x="338" y="391" on="1"/>
        <pt x="586" y="391" on="1"/>
        <pt x="586" y="53" on="1"/>
        <pt x="478" y="-15" on="0"/>
        <pt x="343" y="-15" on="1"/>
        <pt x="198" y="-15" on="0"/>
        <pt x="43" y="169" on="0"/>
        <pt x="43" y="346" on="1"/>
        <pt x="43" y="459" on="0"/>
        <pt x="128" y="622" on="0"/>
        <pt x="271" y="706" on="0"/>
        <pt x="358" y="706" on="1"/>
      </contour>
    </TTGlyph>
    <TTGlyph name="Gamma" xMin="81" yMin="0" xMax="504" yMax="691">
      <component glyphName="uni0413" x="0" y="0" flags="0x0"/>
    </TTGlyph>
    <TTGlyph name="Gbreve" xMin="43" yMin="-15" xMax="586" yMax="913">
      <component glyphName="G" x="0" y="0" flags="0x0"/>
      <component glyphName="breve.case" x="160" y="0" flags="0x0"/>
    </TTGlyph>
    <TTGlyph name="Gcircumflex" xMin="43" yMin="-15" xMax="586" yMax="933">
      <component glyphName="G" x="0" y="0" flags="0x0"/>
      <component glyphName="circumflex.case" x="144" y="0" flags="0x0"/>
    </TTGlyph>
    <TTGlyph name="Gcommaaccent" xMin="43" yMin="-312" xMax="586" yMax="706">
      <component glyphName="G" x="0" y="0" flags="0x0"/>
      <component glyphName="uni0326.case" x="244" y="0" flags="0x0"/>
    </TTGlyph>
    <TTGlyph name="Gdotaccent" xMin="43" yMin="-15" xMax="586" yMax="923">
      <component glyphName="G" x="0" y="0" flags="0x0"/>
      <component glyphName="dotaccent.case" x="242" y="0" flags="0x0"/>
    </TTGlyph>
    <TTGlyph name="H" xMin="81" yMin="0" xMax="592" yMax="691">
      <contour>
        <pt x="213" y="309" on="1"/>
        <pt x="213" y="0" on="1"/>
        <pt x="81" y="0" on="1"/>
        <pt x="81" y="691" on="1"/>
        <pt x="213" y="691" on="1"/>
        <pt x="213" y="414" on="1"/>
        <pt x="459" y="414" on="1"/>
        <pt x="459" y="691" on="1"/>
        <pt x="592" y="691" on="1"/>
        <pt x="592" y="0" on="1"/>
        <pt x="459" y="0" on="1"/>
        <pt x="459" y="309" on="1"/>
      </contour>
    </TTGlyph>
    <TTGlyph name="Hbar" xMin="23" yMin="0" xMax="659" yMax="692">
      <contour>
        <pt x="597" y="504" on="1"/>
        <pt x="597" y="0" on="1"/>
        <pt x="464" y="0" on="1"/>
        <pt x="464" y="308" on="1"/>
        <pt x="219" y="308" on="1"/>
        <pt x="219" y="0" on="1"/>
        <pt x="86" y="0" on="1"/>
        <pt x="86" y="504" on="1"/>
        <pt x="23" y="504" on="1"/>
        <pt x="23" y="585" on="1"/>
        <pt x="86" y="585" on="1"/>
        <pt x="86" y="692" on="1"/>
        <pt x="219" y="692" on="1"/>
        <pt x="219" y="585" on="1"/>
        <pt x="464" y="585" on="1"/>
        <pt x="464" y="692" on="1"/>
        <pt x="597" y="692" on="1"/>
        <pt x="597" y="585" on="1"/>
        <pt x="659" y="585" on="1"/>
        <pt x="659" y="504" on="1"/>
      </contour>
      <contour>
        <pt x="219" y="504" on="1"/>
        <pt x="219" y="414" on="1"/>
        <pt x="464" y="414" on="1"/>
        <pt x="464" y="504" on="1"/>
      </contour>
    </TTGlyph>
    <TTGlyph name="Hcircumflex" xMin="81" yMin="0" xMax="592" yMax="933">
      <component glyphName="H" x="0" y="0" flags="0x0"/>
      <component glyphName="circumflex.case" x="127" y="0" flags="0x0"/>
    </TTGlyph>
    <TTGlyph name="I" xMin="81" yMin="0" xMax="214" yMax="691">
      <contour>
        <pt x="81" y="0" on="1"/>
        <pt x="81" y="691" on="1"/>
        <pt x="214" y="691" on="1"/>
        <pt x="214" y="0" on="1"/>
      </contour>
    </TTGlyph>
    <TTGlyph name="IJ" xMin="81" yMin="-155" xMax="530" yMax="691">
      <component glyphName="I" x="0" y="0" flags="0x0"/>
      <component glyphName="J" x="294" y="0" flags="0x0"/>
    </TTGlyph>
    <TTGlyph name="Iacute" xMin="16" yMin="0" xMax="278" yMax="936">
      <component glyphName="I" x="0" y="0" flags="0x0"/>
      <component glyphName="acute.case" x="-14" y="0" flags="0x0"/>
    </TTGlyph>
    <TTGlyph name="Ibreve" xMin="-16" yMin="0" xMax="310" yMax="913">
      <component glyphName="I" x="0" y="0" flags="0x0"/>
      <component glyphName="breve.case" x="-46" y="0" flags="0x0"/>
    </TTGlyph>
    <TTGlyph name="Icircumflex" xMin="-31" yMin="0" xMax="326" yMax="933">
      <component glyphName="I" x="0" y="0" flags="0x0"/>
      <component glyphName="circumflex.case" x="-61" y="0" flags="0x0"/>
    </TTGlyph>
    <TTGlyph name="Idieresis" xMin="-35" yMin="0" xMax="328" yMax="911">
      <component glyphName="I" x="0" y="0" flags="0x0"/>
      <component glyphName="dieresis.case" x="-65" y="0" flags="0x0"/>
    </TTGlyph>
    <TTGlyph name="Idotaccent" xMin="67" yMin="0" xMax="227" yMax="923">
      <component glyphName="I" x="0" y="0" flags="0x0"/>
      <component glyphName="dotaccent.case" x="36" y="0" flags="0x0"/>
    </TTGlyph>
    <TTGlyph name="Igrave" xMin="8" yMin="0" xMax="270" yMax="936">
      <component glyphName="I" x="0" y="0" flags="0x0"/>
      <component glyphName="grave.case" x="-22" y="0" flags="0x0"/>
    </TTGlyph>
    <TTGlyph name="Imacron" xMin="2" yMin="0" xMax="292" yMax="874">
      <component glyphName="I" x="0" y="0" flags="0x0"/>
      <component glyphName="macron.case" x="-28" y="-4" flags="0x0"/>
    </TTGlyph>
    <TTGlyph name="Iogonek" xMin="-20" yMin="-240" xMax="214" yMax="691">
      <contour>
        <pt x="214" y="0" on="1"/>
        <pt x="199" y="0" on="1"/>
        <pt x="130" y="-28" on="0"/>
        <pt x="78" y="-80" on="0"/>
        <pt x="78" y="-108" on="1"/>
        <pt x="78" y="-154" on="0"/>
        <pt x="133" y="-154" on="1"/>
        <pt x="160" y="-154" on="0"/>
        <pt x="194" y="-147" on="1"/>
        <pt x="184" y="-232" on="1"/>
        <pt x="150" y="-240" on="0"/>
        <pt x="117" y="-240" on="1"/>
        <pt x="56" y="-240" on="0"/>
        <pt x="-20" y="-179" on="0"/>
        <pt x="-20" y="-130" on="1"/>
        <pt x="-20" y="-87" on="0"/>
        <pt x="31" y="-20" on="0"/>
        <pt x="81" y="6" on="1"/>
        <pt x="81" y="691" on="1"/>
        <pt x="214" y="691" on="1"/>
      </contour>
    </TTGlyph>
    <TTGlyph name="Iota" xMin="81" yMin="0" xMax="214" yMax="691">
      <contour>
        <pt x="81" y="0" on="1"/>
        <pt x="81" y="691" on="1"/>
        <pt x="214" y="691" on="1"/>
        <pt x="214" y="0" on="1"/>
      </contour>
    </TTGlyph>
    <TTGlyph name="Iotadieresis" xMin="-35" yMin="0" xMax="328" yMax="911">
      <component glyphName="I" x="0" y="0" flags="0x0"/>
      <component glyphName="dieresis.case" x="-65" y="0" flags="0x0"/>
    </TTGlyph>
    <TTGlyph name="Iotatonos" xMin="-107" yMin="0" xMax="214" yMax="717">
      <component glyphName="I" x="0" y="0" flags="0x0"/>
      <component glyphName="tonos.case" x="-143" y="0" flags="0x0"/>
    </TTGlyph>
    <TTGlyph name="Itilde" xMin="-31" yMin="0" xMax="326" yMax="910">
      <component glyphName="I" x="0" y="0" flags="0x0"/>
      <component glyphName="tilde.case" x="-61" y="0" flags="0x0"/>
    </TTGlyph>
    <TTGlyph name="J" xMin="-3" yMin="-155" xMax="235" yMax="691">
      <contour>
        <pt x="235" y="-10" on="0"/>
        <pt x="130" y="-123" on="0"/>
        <pt x="32" y="-155" on="1"/>
        <pt x="-3" y="-60" on="1"/>
        <pt x="41" y="-43" on="0"/>
        <pt x="86" y="0" on="0"/>
        <pt x="102" y="59" on="0"/>
        <pt x="102" y="106" on="1"/>
        <pt x="102" y="691" on="1"/>
        <pt x="235" y="691" on="1"/>
        <pt x="235" y="101" on="1"/>
      </contour>
    </TTGlyph>
    <TTGlyph name="Jcircumflex" xMin="-10" yMin="-155" xMax="348" yMax="933">
      <component glyphName="J" x="0" y="0" flags="0x0"/>
      <component glyphName="circumflex.case" x="-40" y="0" flags="0x0"/>
    </TTGlyph>
    <TTGlyph name="K" xMin="81" yMin="0" xMax="620" yMax="691">
      <contour>
        <pt x="81" y="0" on="1"/>
        <pt x="81" y="691" on="1"/>
        <pt x="213" y="691" on="1"/>
        <pt x="213" y="0" on="1"/>
      </contour>
      <contour>
        <pt x="620" y="0" on="1"/>
        <pt x="463" y="0" on="1"/>
        <pt x="219" y="369" on="1"/>
        <pt x="458" y="691" on="1"/>
        <pt x="601" y="691" on="1"/>
        <pt x="362" y="378" on="1"/>
      </contour>
    </TTGlyph>
    <TTGlyph name="Kappa" xMin="81" yMin="0" xMax="620" yMax="691">
      <component glyphName="K" x="0" y="0" flags="0x0"/>
    </TTGlyph>
    <TTGlyph name="Kcommaaccent" xMin="81" yMin="-312" xMax="620" yMax="691">
      <component glyphName="K" x="0" y="0" flags="0x0"/>
      <component glyphName="uni0326.case" x="219" y="0" flags="0x0"/>
    </TTGlyph>
    <TTGlyph name="L" xMin="81" yMin="0" xMax="490" yMax="691">
      <contour>
        <pt x="490" y="108" on="1"/>
        <pt x="475" y="0" on="1"/>
        <pt x="81" y="0" on="1"/>
        <pt x="81" y="691" on="1"/>
        <pt x="213" y="691" on="1"/>
        <pt x="213" y="108" on="1"/>
      </contour>
    </TTGlyph>
    <TTGlyph name="Lacute" xMin="16" yMin="0" xMax="490" yMax="936">
      <component glyphName="L" x="0" y="0" flags="0x0"/>
      <component glyphName="acute.case" x="-14" y="0" flags="0x0"/>
    </TTGlyph>
    <TTGlyph name="Lambda" xMin="-5" yMin="0" xMax="587" yMax="691">
      <contour>
        <pt x="447" y="0" on="1"/>
        <pt x="290" y="590" on="1"/>
        <pt x="132" y="0" on="1"/>
        <pt x="-5" y="0" on="1"/>
        <pt x="210" y="691" on="1"/>
        <pt x="373" y="691" on="1"/>
        <pt x="587" y="0" on="1"/>
      </contour>
    </TTGlyph>
    <TTGlyph name="Lcaron" xMin="81" yMin="0" xMax="490" yMax="703">
      <component glyphName="L" x="0" y="0" flags="0x0"/>
      <component glyphName="caron.alt" x="206" y="0" flags="0x0"/>
    </TTGlyph>
    <TTGlyph name="Lcommaaccent" xMin="81" yMin="-312" xMax="490" yMax="691">
      <component glyphName="L" x="0" y="0" flags="0x0"/>
      <component glyphName="uni0326.case" x="177" y="0" flags="0x0"/>
    </TTGlyph>
    <TTGlyph name="Ldot" xMin="81" yMin="0" xMax="490" yMax="691">
      <component glyphName="L" x="0" y="0" flags="0x0"/>
      <component glyphName="dotaccent" x="284" y="-326" flags="0x0"/>
    </TTGlyph>
    <TTGlyph name="Lslash" xMin="15" yMin="0" xMax="519" yMax="691">
      <contour>
        <pt x="504" y="0" on="1"/>
        <pt x="109" y="0" on="1"/>
        <pt x="109" y="239" on="1"/>
        <pt x="61" y="209" on="1"/>
        <pt x="15" y="284" on="1"/>
        <pt x="109" y="342" on="1"/>
        <pt x="109" y="691" on="1"/>
        <pt x="242" y="691" on="1"/>
        <pt x="242" y="424" on="1"/>
        <pt x="385" y="513" on="1"/>
        <pt x="431" y="438" on="1"/>
        <pt x="242" y="321" on="1"/>
        <pt x="242" y="109" on="1"/>
        <pt x="519" y="108" on="1"/>
      </contour>
    </TTGlyph>
    <TTGlyph name="M" xMin="46" yMin="0" xMax="736" yMax="691">
      <contour>
        <pt x="607" y="0" on="1"/>
        <pt x="589" y="289" on="1"/>
        <pt x="580" y="440" on="0"/>
        <pt x="580" y="528" on="1"/>
        <pt x="580" y="571" on="1"/>
        <pt x="454" y="75" on="1"/>
        <pt x="329" y="75" on="1"/>
        <pt x="195" y="572" on="1"/>
        <pt x="198" y="524" on="0"/>
        <pt x="198" y="475" on="1"/>
        <pt x="198" y="399" on="0"/>
        <pt x="191" y="285" on="1"/>
        <pt x="174" y="0" on="1"/>
        <pt x="46" y="0" on="1"/>
        <pt x="101" y="691" on="1"/>
        <pt x="271" y="691" on="1"/>
        <pt x="394" y="207" on="1"/>
        <pt x="510" y="691" on="1"/>
        <pt x="682" y="691" on="1"/>
        <pt x="736" y="0" on="1"/>
      </contour>
    </TTGlyph>
    <TTGlyph name="Mu" xMin="46" yMin="0" xMax="736" yMax="691">
      <component glyphName="M" x="0" y="0" flags="0x0"/>
    </TTGlyph>
    <TTGlyph name="N" xMin="81" yMin="0" xMax="591" yMax="691">
      <contour>
        <pt x="420" y="0" on="1"/>
        <pt x="183" y="559" on="1"/>
        <pt x="192" y="485" on="0"/>
        <pt x="201" y="365" on="0"/>
        <pt x="201" y="282" on="1"/>
        <pt x="201" y="0" on="1"/>
        <pt x="81" y="0" on="1"/>
        <pt x="81" y="691" on="1"/>
        <pt x="248" y="691" on="1"/>
        <pt x="489" y="131" on="1"/>
        <pt x="483" y="171" on="0"/>
        <pt x="471" y="302" on="0"/>
        <pt x="471" y="367" on="1"/>
        <pt x="471" y="691" on="1"/>
        <pt x="591" y="691" on="1"/>
        <pt x="591" y="0" on="1"/>
      </contour>
    </TTGlyph>
    <TTGlyph name="Nacute" xMin="81" yMin="0" xMax="591" yMax="936">
      <component glyphName="N" x="0" y="0" flags="0x0"/>
      <component glyphName="acute.case" x="182" y="0" flags="0x0"/>
    </TTGlyph>
    <TTGlyph name="Nacute.loclPLK" xMin="81" yMin="0" xMax="591" yMax="947">
      <component glyphName="N" x="0" y="0" flags="0x0"/>
      <component glyphName="acute.case.loclPLK" x="183" y="0" flags="0x0"/>
    </TTGlyph>
    <TTGlyph name="Ncaron" xMin="81" yMin="0" xMax="591" yMax="928">
      <component glyphName="N" x="0" y="0" flags="0x0"/>
      <component glyphName="caron.case" x="135" y="0" flags="0x0"/>
    </TTGlyph>
    <TTGlyph name="Ncommaaccent" xMin="81" yMin="-312" xMax="591" yMax="691">
      <component glyphName="N" x="0" y="0" flags="0x0"/>
      <component glyphName="uni0326.case" x="236" y="0" flags="0x0"/>
    </TTGlyph>
    <TTGlyph name="Ntilde" xMin="81" yMin="0" xMax="591" yMax="910">
      <component glyphName="N" x="0" y="0" flags="0x0"/>
      <component glyphName="tilde.case" x="135" y="0" flags="0x0"/>
    </TTGlyph>
    <TTGlyph name="Nu" xMin="81" yMin="0" xMax="591" yMax="691">
      <component glyphName="N" x="0" y="0" flags="0x0"/>
    </TTGlyph>
    <TTGlyph name="O" xMin="43" yMin="-15" xMax="648" yMax="706">
      <contour>
        <pt x="439" y="706" on="0"/>
        <pt x="575" y="622" on="0"/>
        <pt x="648" y="460" on="0"/>
        <pt x="648" y="346" on="1"/>
        <pt x="648" y="233" on="0"/>
        <pt x="574" y="71" on="0"/>
        <pt x="438" y="-15" on="0"/>
        <pt x="346" y="-15" on="1"/>
        <pt x="253" y="-15" on="0"/>
        <pt x="117" y="69" on="0"/>
        <pt x="43" y="231" on="0"/>
        <pt x="43" y="345" on="1"/>
        <pt x="43" y="457" on="0"/>
        <pt x="117" y="620" on="0"/>
        <pt x="254" y="706" on="0"/>
        <pt x="346" y="706" on="1"/>
      </contour>
      <contour>
        <pt x="266" y="605" on="0"/>
        <pt x="182" y="480" on="0"/>
        <pt x="182" y="345" on="1"/>
        <pt x="182" y="86" on="0"/>
        <pt x="346" y="86" on="1"/>
        <pt x="426" y="86" on="0"/>
        <pt x="509" y="210" on="0"/>
        <pt x="509" y="346" on="1"/>
        <pt x="509" y="481" on="0"/>
        <pt x="426" y="605" on="0"/>
        <pt x="346" y="605" on="1"/>
      </contour>
    </TTGlyph>
    <TTGlyph name="OE" xMin="43" yMin="-15" xMax="857" yMax="706">
      <contour>
        <pt x="416" y="0" on="1"/>
        <pt x="377" y="-15" on="0"/>
        <pt x="331" y="-15" on="1"/>
        <pt x="246" y="-15" on="0"/>
        <pt x="115" y="69" on="0"/>
        <pt x="43" y="232" on="0"/>
        <pt x="43" y="345" on="1"/>
        <pt x="43" y="457" on="0"/>
        <pt x="116" y="620" on="0"/>
        <pt x="246" y="706" on="0"/>
        <pt x="331" y="706" on="1"/>
        <pt x="380" y="706" on="0"/>
        <pt x="420" y="691" on="1"/>
        <pt x="854" y="691" on="1"/>
        <pt x="839" y="593" on="1"/>
        <pt x="552" y="593" on="1"/>
        <pt x="614" y="518" on="0"/>
        <pt x="626" y="400" on="1"/>
        <pt x="807" y="400" on="1"/>
        <pt x="807" y="302" on="1"/>
        <pt x="626" y="302" on="1"/>
        <pt x="621" y="242" on="0"/>
        <pt x="581" y="138" on="0"/>
        <pt x="547" y="99" on="1"/>
        <pt x="857" y="99" on="1"/>
        <pt x="857" y="0" on="1"/>
      </contour>
      <contour>
        <pt x="182" y="211" on="0"/>
        <pt x="264" y="86" on="0"/>
        <pt x="336" y="86" on="1"/>
        <pt x="489" y="86" on="0"/>
        <pt x="489" y="346" on="1"/>
        <pt x="489" y="605" on="0"/>
        <pt x="336" y="605" on="1"/>
        <pt x="263" y="605" on="0"/>
        <pt x="182" y="479" on="0"/>
        <pt x="182" y="345" on="1"/>
      </contour>
    </TTGlyph>
    <TTGlyph name="Oacute" xMin="43" yMin="-15" xMax="648" yMax="936">
      <component glyphName="O" x="0" y="0" flags="0x0"/>
      <component glyphName="acute.case" x="187" y="0" flags="0x0"/>
    </TTGlyph>
    <TTGlyph name="Oacute.loclPLK" xMin="43" yMin="-15" xMax="648" yMax="947">
      <component glyphName="O" x="0" y="0" flags="0x0"/>
      <component glyphName="acute.case.loclPLK" x="188" y="0" flags="0x0"/>
    </TTGlyph>
    <TTGlyph name="Obreve" xMin="43" yMin="-15" xMax="648" yMax="913">
      <component glyphName="O" x="0" y="0" flags="0x0"/>
      <component glyphName="breve.case" x="155" y="0" flags="0x0"/>
    </TTGlyph>
    <TTGlyph name="Ocircumflex" xMin="43" yMin="-15" xMax="648" yMax="933">
      <component glyphName="O" x="0" y="0" flags="0x0"/>
      <component glyphName="circumflex.case" x="139" y="0" flags="0x0"/>
    </TTGlyph>
    <TTGlyph name="Odieresis" xMin="43" yMin="-15" xMax="648" yMax="911">
      <component glyphName="O" x="0" y="0" flags="0x0"/>
      <component glyphName="dieresis.case" x="136" y="0" flags="0x0"/>
    </TTGlyph>
    <TTGlyph name="Ograve" xMin="43" yMin="-15" xMax="648" yMax="936">
      <component glyphName="O" x="0" y="0" flags="0x0"/>
      <component glyphName="grave.case" x="179" y="0" flags="0x0"/>
    </TTGlyph>
    <TTGlyph name="Ohm" xMin="43" yMin="0" xMax="648" yMax="706">
      <component glyphName="Omega" x="0" y="0" flags="0x0"/>
    </TTGlyph>
    <TTGlyph name="Ohungarumlaut" xMin="43" yMin="-15" xMax="648" yMax="974">
      <component glyphName="O" x="0" y="0" flags="0x0"/>
      <component glyphName="hungarumlaut.case" x="194" y="0" flags="0x0"/>
    </TTGlyph>
    <TTGlyph name="Omacron" xMin="43" yMin="-15" xMax="648" yMax="874">
      <component glyphName="O" x="0" y="0" flags="0x0"/>
      <component glyphName="macron.case" x="172" y="-4" flags="0x0"/>
    </TTGlyph>
    <TTGlyph name="Omega" xMin="43" yMin="0" xMax="648" yMax="706">
      <contour>
        <pt x="439" y="706" on="0"/>
        <pt x="575" y="623" on="0"/>
        <pt x="648" y="470" on="0"/>
        <pt x="648" y="367" on="1"/>
        <pt x="648" y="267" on="0"/>
        <pt x="586" y="141" on="0"/>
        <pt x="515" y="101" on="1"/>
        <pt x="627" y="101" on="1"/>
        <pt x="627" y="0" on="1"/>
        <pt x="391" y="0" on="1"/>
        <pt x="391" y="98" on="1"/>
        <pt x="456" y="123" on="0"/>
        <pt x="509" y="249" on="0"/>
        <pt x="509" y="367" on="1"/>
        <pt x="509" y="487" on="0"/>
        <pt x="425" y="605" on="0"/>
        <pt x="346" y="605" on="1"/>
        <pt x="267" y="605" on="0"/>
        <pt x="182" y="486" on="0"/>
        <pt x="182" y="366" on="1"/>
        <pt x="182" y="246" on="0"/>
        <pt x="236" y="124" on="0"/>
        <pt x="300" y="98" on="1"/>
        <pt x="300" y="0" on="1"/>
        <pt x="64" y="0" on="1"/>
        <pt x="64" y="101" on="1"/>
        <pt x="172" y="101" on="1"/>
        <pt x="106" y="137" on="0"/>
        <pt x="43" y="265" on="0"/>
        <pt x="43" y="366" on="1"/>
        <pt x="43" y="467" on="0"/>
        <pt x="117" y="621" on="0"/>
        <pt x="255" y="706" on="0"/>
        <pt x="346" y="706" on="1"/>
      </contour>
    </TTGlyph>
    <TTGlyph name="Omegatonos" xMin="-74" yMin="0" xMax="648" yMax="717">
      <component glyphName="Omega" x="0" y="0" flags="0x0"/>
      <component glyphName="tonos.case" x="-111" y="0" flags="0x0"/>
    </TTGlyph>
    <TTGlyph name="Omicron" xMin="43" yMin="-15" xMax="648" yMax="706">
      <contour>
        <pt x="439" y="706" on="0"/>
        <pt x="575" y="622" on="0"/>
        <pt x="648" y="460" on="0"/>
        <pt x="648" y="346" on="1"/>
        <pt x="648" y="233" on="0"/>
        <pt x="574" y="71" on="0"/>
        <pt x="438" y="-15" on="0"/>
        <pt x="346" y="-15" on="1"/>
        <pt x="253" y="-15" on="0"/>
        <pt x="117" y="69" on="0"/>
        <pt x="43" y="231" on="0"/>
        <pt x="43" y="345" on="1"/>
        <pt x="43" y="457" on="0"/>
        <pt x="117" y="620" on="0"/>
        <pt x="254" y="706" on="0"/>
        <pt x="346" y="706" on="1"/>
      </contour>
      <contour>
        <pt x="266" y="605" on="0"/>
        <pt x="182" y="480" on="0"/>
        <pt x="182" y="345" on="1"/>
        <pt x="182" y="86" on="0"/>
        <pt x="346" y="86" on="1"/>
        <pt x="426" y="86" on="0"/>
        <pt x="509" y="210" on="0"/>
        <pt x="509" y="346" on="1"/>
        <pt x="509" y="481" on="0"/>
        <pt x="426" y="605" on="0"/>
        <pt x="346" y="605" on="1"/>
      </contour>
    </TTGlyph>
    <TTGlyph name="Omicrontonos" xMin="-71" yMin="-15" xMax="648" yMax="717">
      <component glyphName="O" x="0" y="0" flags="0x0"/>
      <component glyphName="tonos.case" x="-108" y="0" flags="0x0"/>
    </TTGlyph>
    <TTGlyph name="Oslash" xMin="43" yMin="-131" xMax="648" yMax="824">
      <contour>
        <pt x="572" y="626" on="0"/>
        <pt x="648" y="462" on="0"/>
        <pt x="648" y="346" on="1"/>
        <pt x="648" y="233" on="0"/>
        <pt x="574" y="71" on="0"/>
        <pt x="438" y="-15" on="0"/>
        <pt x="346" y="-15" on="1"/>
        <pt x="320" y="-15" on="0"/>
        <pt x="288" y="-10" on="1"/>
        <pt x="252" y="-131" on="1"/>
        <pt x="149" y="-104" on="1"/>
        <pt x="189" y="25" on="1"/>
        <pt x="119" y="66" on="0"/>
        <pt x="43" y="230" on="0"/>
        <pt x="43" y="345" on="1"/>
        <pt x="43" y="457" on="0"/>
        <pt x="117" y="620" on="0"/>
        <pt x="254" y="706" on="0"/>
        <pt x="346" y="706" on="1"/>
        <pt x="378" y="706" on="0"/>
        <pt x="402" y="702" on="1"/>
        <pt x="439" y="824" on="1"/>
        <pt x="543" y="796" on="1"/>
        <pt x="501" y="667" on="1"/>
      </contour>
      <contour>
        <pt x="266" y="605" on="0"/>
        <pt x="182" y="480" on="0"/>
        <pt x="182" y="345" on="1"/>
        <pt x="182" y="181" on="0"/>
        <pt x="240" y="123" on="1"/>
        <pt x="385" y="602" on="1"/>
        <pt x="366" y="605" on="0"/>
        <pt x="346" y="605" on="1"/>
      </contour>
      <contour>
        <pt x="426" y="86" on="0"/>
        <pt x="509" y="210" on="0"/>
        <pt x="509" y="346" on="1"/>
        <pt x="509" y="433" on="0"/>
        <pt x="479" y="541" on="0"/>
        <pt x="450" y="570" on="1"/>
        <pt x="306" y="90" on="1"/>
        <pt x="323" y="86" on="0"/>
        <pt x="346" y="86" on="1"/>
      </contour>
    </TTGlyph>
    <TTGlyph name="Oslashacute" xMin="43" yMin="-131" xMax="648" yMax="961">
      <component glyphName="Oslash" x="0" y="0" flags="0x0"/>
      <component glyphName="acute.case" x="181" y="25" flags="0x0"/>
    </TTGlyph>
    <TTGlyph name="Oslashacute.001" xMin="43" yMin="-131" xMax="648" yMax="961">
      <component glyphName="Oslash" x="0" y="0" flags="0x0"/>
      <component glyphName="acute.case" x="181" y="25" flags="0x0"/>
    </TTGlyph>
    <TTGlyph name="Otilde" xMin="43" yMin="-15" xMax="648" yMax="910">
      <component glyphName="O" x="0" y="0" flags="0x0"/>
      <component glyphName="tilde.case" x="140" y="0" flags="0x0"/>
    </TTGlyph>
    <TTGlyph name="P" xMin="81" yMin="0" xMax="565" yMax="691">
      <contour>
        <pt x="418" y="691" on="0"/>
        <pt x="565" y="581" on="0"/>
        <pt x="565" y="471" on="1"/>
        <pt x="565" y="356" on="0"/>
        <pt x="417" y="241" on="0"/>
        <pt x="294" y="241" on="1"/>
        <pt x="213" y="241" on="1"/>
        <pt x="213" y="0" on="1"/>
        <pt x="81" y="0" on="1"/>
        <pt x="81" y="691" on="1"/>
        <pt x="285" y="691" on="1"/>
      </contour>
      <contour>
        <pt x="355" y="340" on="0"/>
        <pt x="427" y="399" on="0"/>
        <pt x="427" y="471" on="1"/>
        <pt x="427" y="594" on="0"/>
        <pt x="284" y="594" on="1"/>
        <pt x="213" y="594" on="1"/>
        <pt x="213" y="340" on="1"/>
        <pt x="284" y="340" on="1"/>
      </contour>
    </TTGlyph>
    <TTGlyph name="Phi" xMin="25" yMin="0" xMax="803" yMax="691">
      <contour>
        <pt x="803" y="220" on="0"/>
        <pt x="629" y="77" on="0"/>
        <pt x="478" y="72" on="1"/>
        <pt x="478" y="0" on="1"/>
        <pt x="349" y="0" on="1"/>
        <pt x="349" y="72" on="1"/>
        <pt x="195" y="80" on="0"/>
        <pt x="25" y="222" on="0"/>
        <pt x="25" y="345" on="1"/>
        <pt x="25" y="472" on="0"/>
        <pt x="199" y="613" on="0"/>
        <pt x="349" y="618" on="1"/>
        <pt x="349" y="691" on="1"/>
        <pt x="478" y="691" on="1"/>
        <pt x="478" y="617" on="1"/>
        <pt x="632" y="610" on="0"/>
        <pt x="803" y="469" on="0"/>
        <pt x="803" y="348" on="1"/>
      </contour>
      <contour>
        <pt x="160" y="259" on="0"/>
        <pt x="257" y="163" on="0"/>
        <pt x="354" y="158" on="1"/>
        <pt x="354" y="533" on="1"/>
        <pt x="255" y="526" on="0"/>
        <pt x="160" y="431" on="0"/>
        <pt x="160" y="345" on="1"/>
      </contour>
      <contour>
        <pt x="668" y="170" on="0"/>
        <pt x="668" y="348" on="1"/>
        <pt x="668" y="432" on="0"/>
        <pt x="571" y="527" on="0"/>
        <pt x="473" y="532" on="1"/>
        <pt x="473" y="157" on="1"/>
      </contour>
    </TTGlyph>
    <TTGlyph name="Pi" xMin="81" yMin="0" xMax="588" yMax="691">
      <component glyphName="uni041F" x="0" y="0" flags="0x0"/>
    </TTGlyph>
    <TTGlyph name="Psi" xMin="27" yMin="0" xMax="686" yMax="691">
      <contour>
        <pt x="686" y="430" on="1"/>
        <pt x="686" y="324" on="0"/>
        <pt x="551" y="201" on="0"/>
        <pt x="422" y="187" on="1"/>
        <pt x="422" y="0" on="1"/>
        <pt x="289" y="0" on="1"/>
        <pt x="289" y="187" on="1"/>
        <pt x="158" y="200" on="0"/>
        <pt x="27" y="322" on="0"/>
        <pt x="27" y="428" on="1"/>
        <pt x="27" y="691" on="1"/>
        <pt x="155" y="691" on="1"/>
        <pt x="155" y="429" on="1"/>
        <pt x="155" y="361" on="0"/>
        <pt x="221" y="291" on="0"/>
        <pt x="294" y="283" on="1"/>
        <pt x="294" y="691" on="1"/>
        <pt x="417" y="691" on="1"/>
        <pt x="417" y="284" on="1"/>
        <pt x="490" y="292" on="0"/>
        <pt x="557" y="362" on="0"/>
        <pt x="557" y="429" on="1"/>
        <pt x="557" y="691" on="1"/>
        <pt x="686" y="691" on="1"/>
      </contour>
    </TTGlyph>
    <TTGlyph name="Q" xMin="43" yMin="-127" xMax="684" yMax="706">
      <contour>
        <pt x="548" y="42" on="0"/>
        <pt x="642" y="10" on="0"/>
        <pt x="684" y="-20" on="1"/>
        <pt x="602" y="-127" on="1"/>
        <pt x="544" y="-68" on="0"/>
        <pt x="429" y="-12" on="0"/>
        <pt x="339" y="-12" on="1"/>
        <pt x="250" y="-12" on="0"/>
        <pt x="116" y="71" on="0"/>
        <pt x="43" y="231" on="0"/>
        <pt x="43" y="345" on="1"/>
        <pt x="43" y="457" on="0"/>
        <pt x="117" y="620" on="0"/>
        <pt x="254" y="706" on="0"/>
        <pt x="346" y="706" on="1"/>
        <pt x="439" y="706" on="0"/>
        <pt x="575" y="622" on="0"/>
        <pt x="648" y="460" on="0"/>
        <pt x="648" y="346" on="1"/>
        <pt x="648" y="227" on="0"/>
        <pt x="563" y="82" on="0"/>
        <pt x="487" y="42" on="1"/>
      </contour>
      <contour>
        <pt x="182" y="86" on="0"/>
        <pt x="346" y="86" on="1"/>
        <pt x="426" y="86" on="0"/>
        <pt x="509" y="210" on="0"/>
        <pt x="509" y="346" on="1"/>
        <pt x="509" y="481" on="0"/>
        <pt x="426" y="605" on="0"/>
        <pt x="346" y="605" on="1"/>
        <pt x="266" y="605" on="0"/>
        <pt x="182" y="480" on="0"/>
        <pt x="182" y="345" on="1"/>
      </contour>
    </TTGlyph>
    <TTGlyph name="R" xMin="81" yMin="0" xMax="602" yMax="691">
      <contour>
        <pt x="213" y="277" on="1"/>
        <pt x="213" y="0" on="1"/>
        <pt x="81" y="0" on="1"/>
        <pt x="81" y="691" on="1"/>
        <pt x="287" y="691" on="1"/>
        <pt x="561" y="691" on="0"/>
        <pt x="561" y="488" on="1"/>
        <pt x="561" y="418" on="0"/>
        <pt x="493" y="329" on="0"/>
        <pt x="421" y="301" on="1"/>
        <pt x="602" y="0" on="1"/>
        <pt x="450" y="0" on="1"/>
        <pt x="297" y="277" on="1"/>
      </contour>
      <contour>
        <pt x="295" y="372" on="1"/>
        <pt x="358" y="372" on="0"/>
        <pt x="423" y="427" on="0"/>
        <pt x="423" y="488" on="1"/>
        <pt x="423" y="544" on="0"/>
        <pt x="356" y="595" on="0"/>
        <pt x="284" y="595" on="1"/>
        <pt x="213" y="595" on="1"/>
        <pt x="213" y="372" on="1"/>
      </contour>
    </TTGlyph>
    <TTGlyph name="Racute" xMin="81" yMin="0" xMax="602" yMax="936">
      <component glyphName="R" x="0" y="0" flags="0x0"/>
      <component glyphName="acute.case" x="142" y="0" flags="0x0"/>
    </TTGlyph>
    <TTGlyph name="Rcaron" xMin="81" yMin="0" xMax="602" yMax="928">
      <component glyphName="R" x="0" y="0" flags="0x0"/>
      <component glyphName="caron.case" x="94" y="0" flags="0x0"/>
    </TTGlyph>
    <TTGlyph name="Rcommaaccent" xMin="81" yMin="-312" xMax="602" yMax="691">
      <component glyphName="R" x="0" y="0" flags="0x0"/>
      <component glyphName="uni0326.case" x="209" y="0" flags="0x0"/>
    </TTGlyph>
    <TTGlyph name="Rho" xMin="81" yMin="0" xMax="565" yMax="691">
      <component glyphName="P" x="0" y="0" flags="0x0"/>
    </TTGlyph>
    <TTGlyph name="S" xMin="17" yMin="-15" xMax="528" yMax="706">
      <contour>
        <pt x="353" y="706" on="0"/>
        <pt x="461" y="664" on="0"/>
        <pt x="508" y="621" on="1"/>
        <pt x="441" y="545" on="1"/>
        <pt x="405" y="576" on="0"/>
        <pt x="331" y="605" on="0"/>
        <pt x="288" y="605" on="1"/>
        <pt x="240" y="605" on="0"/>
        <pt x="181" y="562" on="0"/>
        <pt x="181" y="523" on="1"/>
        <pt x="181" y="497" on="0"/>
        <pt x="204" y="463" on="0"/>
        <pt x="264" y="433" on="0"/>
        <pt x="323" y="415" on="1"/>
        <pt x="425" y="383" on="0"/>
        <pt x="528" y="288" on="0"/>
        <pt x="528" y="197" on="1"/>
        <pt x="528" y="135" on="0"/>
        <pt x="465" y="39" on="0"/>
        <pt x="347" y="-15" on="0"/>
        <pt x="266" y="-15" on="1"/>
        <pt x="187" y="-15" on="0"/>
        <pt x="62" y="36" on="0"/>
        <pt x="17" y="80" on="1"/>
        <pt x="87" y="158" on="1"/>
        <pt x="163" y="87" on="0"/>
        <pt x="263" y="87" on="1"/>
        <pt x="320" y="87" on="0"/>
        <pt x="390" y="141" on="0"/>
        <pt x="390" y="190" on="1"/>
        <pt x="390" y="220" on="0"/>
        <pt x="366" y="259" on="0"/>
        <pt x="308" y="290" on="0"/>
        <pt x="253" y="307" on="1"/>
        <pt x="143" y="341" on="0"/>
        <pt x="45" y="437" on="0"/>
        <pt x="45" y="515" on="1"/>
        <pt x="45" y="572" on="0"/>
        <pt x="105" y="658" on="0"/>
        <pt x="212" y="706" on="0"/>
        <pt x="280" y="706" on="1"/>
      </contour>
    </TTGlyph>
    <TTGlyph name="Sacute" xMin="17" yMin="-15" xMax="528" yMax="936">
      <component glyphName="S" x="0" y="0" flags="0x0"/>
      <component glyphName="acute.case" x="125" y="0" flags="0x0"/>
    </TTGlyph>
    <TTGlyph name="Sacute.loclPLK" xMin="17" yMin="-15" xMax="528" yMax="947">
      <component glyphName="S" x="0" y="0" flags="0x0"/>
      <component glyphName="acute.case.loclPLK" x="126" y="0" flags="0x0"/>
    </TTGlyph>
    <TTGlyph name="Scaron" xMin="17" yMin="-15" xMax="528" yMax="928">
      <component glyphName="S" x="0" y="0" flags="0x0"/>
      <component glyphName="caron.case" x="77" y="0" flags="0x0"/>
    </TTGlyph>
    <TTGlyph name="Scedilla" xMin="17" yMin="-253" xMax="528" yMax="706">
      <contour>
        <pt x="528" y="112" on="0"/>
        <pt x="414" y="-1" on="0"/>
        <pt x="312" y="-12" on="1"/>
        <pt x="312" y="-52" on="1"/>
        <pt x="362" y="-57" on="0"/>
        <pt x="411" y="-107" on="0"/>
        <pt x="411" y="-145" on="1"/>
        <pt x="411" y="-195" on="0"/>
        <pt x="335" y="-253" on="0"/>
        <pt x="273" y="-253" on="1"/>
        <pt x="243" y="-253" on="0"/>
        <pt x="188" y="-237" on="0"/>
        <pt x="171" y="-225" on="1"/>
        <pt x="202" y="-162" on="1"/>
        <pt x="234" y="-179" on="0"/>
        <pt x="265" y="-179" on="1"/>
        <pt x="287" y="-179" on="0"/>
        <pt x="314" y="-162" on="0"/>
        <pt x="314" y="-144" on="1"/>
        <pt x="314" y="-125" on="0"/>
        <pt x="270" y="-106" on="0"/>
        <pt x="223" y="-106" on="1"/>
        <pt x="234" y="-14" on="1"/>
        <pt x="103" y="-4" on="0"/>
        <pt x="17" y="80" on="1"/>
        <pt x="87" y="158" on="1"/>
        <pt x="163" y="87" on="0"/>
        <pt x="263" y="87" on="1"/>
        <pt x="320" y="87" on="0"/>
        <pt x="390" y="141" on="0"/>
        <pt x="390" y="190" on="1"/>
        <pt x="390" y="220" on="0"/>
        <pt x="366" y="259" on="0"/>
        <pt x="308" y="290" on="0"/>
        <pt x="253" y="307" on="1"/>
        <pt x="143" y="341" on="0"/>
        <pt x="45" y="437" on="0"/>
        <pt x="45" y="515" on="1"/>
        <pt x="45" y="572" on="0"/>
        <pt x="105" y="658" on="0"/>
        <pt x="212" y="706" on="0"/>
        <pt x="280" y="706" on="1"/>
        <pt x="353" y="706" on="0"/>
        <pt x="461" y="664" on="0"/>
        <pt x="508" y="621" on="1"/>
        <pt x="441" y="545" on="1"/>
        <pt x="405" y="576" on="0"/>
        <pt x="331" y="605" on="0"/>
        <pt x="288" y="605" on="1"/>
        <pt x="240" y="605" on="0"/>
        <pt x="181" y="562" on="0"/>
        <pt x="181" y="523" on="1"/>
        <pt x="181" y="497" on="0"/>
        <pt x="204" y="463" on="0"/>
        <pt x="264" y="433" on="0"/>
        <pt x="323" y="415" on="1"/>
        <pt x="425" y="383" on="0"/>
        <pt x="528" y="288" on="0"/>
        <pt x="528" y="197" on="1"/>
      </contour>
    </TTGlyph>
    <TTGlyph name="Scircumflex" xMin="17" yMin="-15" xMax="528" yMax="933">
      <component glyphName="S" x="0" y="0" flags="0x0"/>
      <component glyphName="circumflex.case" x="77" y="0" flags="0x0"/>
    </TTGlyph>
    <TTGlyph name="Scommaaccent" xMin="17" yMin="-312" xMax="528" yMax="706">
      <component glyphName="S" x="0" y="0" flags="0x0"/>
      <component glyphName="uni0326.case" x="175" y="0" flags="0x0"/>
    </TTGlyph>
    <TTGlyph name="Sigma" xMin="30" yMin="0" xMax="473" yMax="691">
      <contour>
        <pt x="177" y="591" on="1"/>
        <pt x="360" y="373" on="1"/>
        <pt x="360" y="309" on="1"/>
        <pt x="176" y="102" on="1"/>
        <pt x="473" y="102" on="1"/>
        <pt x="473" y="0" on="1"/>
        <pt x="30" y="0" on="1"/>
        <pt x="30" y="100" on="1"/>
        <pt x="236" y="339" on="1"/>
        <pt x="30" y="591" on="1"/>
        <pt x="30" y="691" on="1"/>
        <pt x="473" y="691" on="1"/>
        <pt x="473" y="591" on="1"/>
      </contour>
    </TTGlyph>
    <TTGlyph name="T" xMin="12" yMin="0" xMax="525" yMax="691">
      <contour>
        <pt x="331" y="586" on="1"/>
        <pt x="331" y="0" on="1"/>
        <pt x="198" y="0" on="1"/>
        <pt x="198" y="586" on="1"/>
        <pt x="12" y="586" on="1"/>
        <pt x="12" y="691" on="1"/>
        <pt x="525" y="691" on="1"/>
        <pt x="511" y="586" on="1"/>
      </contour>
    </TTGlyph>
    <TTGlyph name="Tau" xMin="12" yMin="0" xMax="525" yMax="691">
      <component glyphName="T" x="0" y="0" flags="0x0"/>
    </TTGlyph>
    <TTGlyph name="Tbar" xMin="12" yMin="-2" xMax="525" yMax="690">
      <contour>
        <pt x="331" y="388" on="1"/>
        <pt x="451" y="388" on="1"/>
        <pt x="451" y="306" on="1"/>
        <pt x="331" y="306" on="1"/>
        <pt x="331" y="-2" on="1"/>
        <pt x="199" y="-2" on="1"/>
        <pt x="199" y="306" on="1"/>
        <pt x="80" y="306" on="1"/>
        <pt x="80" y="388" on="1"/>
        <pt x="199" y="388" on="1"/>
        <pt x="199" y="585" on="1"/>
        <pt x="12" y="585" on="1"/>
        <pt x="12" y="690" on="1"/>
        <pt x="525" y="690" on="1"/>
        <pt x="511" y="585" on="1"/>
        <pt x="331" y="585" on="1"/>
      </contour>
    </TTGlyph>
    <TTGlyph name="Tcaron" xMin="12" yMin="0" xMax="525" yMax="928">
      <component glyphName="T" x="0" y="0" flags="0x0"/>
      <component glyphName="caron.case" x="56" y="0" flags="0x0"/>
    </TTGlyph>
    <TTGlyph name="Tcedilla" xMin="12" yMin="-253" xMax="525" yMax="691">
      <contour>
        <pt x="331" y="16" on="1"/>
        <pt x="331" y="-52" on="1"/>
        <pt x="381" y="-57" on="0"/>
        <pt x="432" y="-107" on="0"/>
        <pt x="432" y="-145" on="1"/>
        <pt x="432" y="-195" on="0"/>
        <pt x="354" y="-253" on="0"/>
        <pt x="292" y="-253" on="1"/>
        <pt x="262" y="-253" on="0"/>
        <pt x="209" y="-238" on="0"/>
        <pt x="192" y="-225" on="1"/>
        <pt x="223" y="-162" on="1"/>
        <pt x="255" y="-179" on="0"/>
        <pt x="283" y="-179" on="1"/>
        <pt x="307" y="-179" on="0"/>
        <pt x="335" y="-162" on="0"/>
        <pt x="335" y="-144" on="1"/>
        <pt x="335" y="-125" on="0"/>
        <pt x="291" y="-106" on="0"/>
        <pt x="244" y="-106" on="1"/>
        <pt x="257" y="0" on="1"/>
        <pt x="198" y="0" on="1"/>
        <pt x="198" y="586" on="1"/>
        <pt x="12" y="586" on="1"/>
        <pt x="12" y="691" on="1"/>
        <pt x="525" y="691" on="1"/>
        <pt x="511" y="586" on="1"/>
        <pt x="331" y="586" on="1"/>
      </contour>
    </TTGlyph>
    <TTGlyph name="Theta" xMin="43" yMin="-15" xMax="648" yMax="706">
      <contour>
        <pt x="439" y="706" on="0"/>
        <pt x="575" y="622" on="0"/>
        <pt x="648" y="460" on="0"/>
        <pt x="648" y="346" on="1"/>
        <pt x="648" y="233" on="0"/>
        <pt x="574" y="71" on="0"/>
        <pt x="438" y="-15" on="0"/>
        <pt x="346" y="-15" on="1"/>
        <pt x="253" y="-15" on="0"/>
        <pt x="117" y="69" on="0"/>
        <pt x="43" y="231" on="0"/>
        <pt x="43" y="345" on="1"/>
        <pt x="43" y="457" on="0"/>
        <pt x="117" y="620" on="0"/>
        <pt x="254" y="706" on="0"/>
        <pt x="346" y="706" on="1"/>
      </contour>
      <contour>
        <pt x="264" y="605" on="0"/>
        <pt x="178" y="480" on="0"/>
        <pt x="178" y="345" on="1"/>
        <pt x="178" y="86" on="0"/>
        <pt x="346" y="86" on="1"/>
        <pt x="429" y="86" on="0"/>
        <pt x="514" y="210" on="0"/>
        <pt x="514" y="346" on="1"/>
        <pt x="514" y="481" on="0"/>
        <pt x="429" y="605" on="0"/>
        <pt x="346" y="605" on="1"/>
      </contour>
      <contour>
        <pt x="236" y="310" on="1"/>
        <pt x="236" y="394" on="1"/>
        <pt x="455" y="394" on="1"/>
        <pt x="455" y="310" on="1"/>
      </contour>
    </TTGlyph>
    <TTGlyph name="Thorn" xMin="81" yMin="0" xMax="565" yMax="691">
      <contour>
        <pt x="419" y="578" on="0"/>
        <pt x="565" y="467" on="0"/>
        <pt x="565" y="355" on="1"/>
        <pt x="565" y="237" on="0"/>
        <pt x="417" y="120" on="0"/>
        <pt x="294" y="120" on="1"/>
        <pt x="213" y="120" on="1"/>
        <pt x="213" y="0" on="1"/>
        <pt x="81" y="0" on="1"/>
        <pt x="81" y="691" on="1"/>
        <pt x="213" y="691" on="1"/>
        <pt x="213" y="578" on="1"/>
        <pt x="285" y="578" on="1"/>
      </contour>
      <contour>
        <pt x="355" y="219" on="0"/>
        <pt x="427" y="280" on="0"/>
        <pt x="427" y="355" on="1"/>
        <pt x="427" y="421" on="0"/>
        <pt x="354" y="481" on="0"/>
        <pt x="284" y="481" on="1"/>
        <pt x="213" y="481" on="1"/>
        <pt x="213" y="219" on="1"/>
        <pt x="284" y="219" on="1"/>
      </contour>
    </TTGlyph>
    <TTGlyph name="U" xMin="71" yMin="-15" xMax="585" yMax="691">
      <contour>
        <pt x="585" y="156" on="0"/>
        <pt x="526" y="47" on="0"/>
        <pt x="409" y="-15" on="0"/>
        <pt x="327" y="-15" on="1"/>
        <pt x="203" y="-15" on="0"/>
        <pt x="71" y="116" on="0"/>
        <pt x="71" y="226" on="1"/>
        <pt x="71" y="691" on="1"/>
        <pt x="203" y="691" on="1"/>
        <pt x="203" y="233" on="1"/>
        <pt x="203" y="160" on="0"/>
        <pt x="264" y="88" on="0"/>
        <pt x="327" y="88" on="1"/>
        <pt x="391" y="88" on="0"/>
        <pt x="452" y="160" on="0"/>
        <pt x="452" y="233" on="1"/>
        <pt x="452" y="691" on="1"/>
        <pt x="585" y="691" on="1"/>
        <pt x="585" y="226" on="1"/>
      </contour>
    </TTGlyph>
    <TTGlyph name="Uacute" xMin="71" yMin="-15" xMax="585" yMax="936">
      <component glyphName="U" x="0" y="0" flags="0x0"/>
      <component glyphName="acute.case" x="166" y="0" flags="0x0"/>
    </TTGlyph>
    <TTGlyph name="Ubreve" xMin="71" yMin="-15" xMax="585" yMax="913">
      <component glyphName="U" x="0" y="0" flags="0x0"/>
      <component glyphName="breve.case" x="134" y="0" flags="0x0"/>
    </TTGlyph>
    <TTGlyph name="Ucircumflex" xMin="71" yMin="-15" xMax="585" yMax="933">
      <component glyphName="U" x="0" y="0" flags="0x0"/>
      <component glyphName="circumflex.case" x="119" y="0" flags="0x0"/>
    </TTGlyph>
    <TTGlyph name="Udieresis" xMin="71" yMin="-15" xMax="585" yMax="911">
      <component glyphName="U" x="0" y="0" flags="0x0"/>
      <component glyphName="dieresis.case" x="115" y="0" flags="0x0"/>
    </TTGlyph>
    <TTGlyph name="Ugrave" xMin="71" yMin="-15" xMax="585" yMax="936">
      <component glyphName="U" x="0" y="0" flags="0x0"/>
      <component glyphName="grave.case" x="159" y="0" flags="0x0"/>
    </TTGlyph>
    <TTGlyph name="Uhungarumlaut" xMin="71" yMin="-15" xMax="585" yMax="974">
      <component glyphName="U" x="0" y="0" flags="0x0"/>
      <component glyphName="hungarumlaut.case" x="174" y="0" flags="0x0"/>
    </TTGlyph>
    <TTGlyph name="Umacron" xMin="71" yMin="-15" xMax="585" yMax="874">
      <component glyphName="U" x="0" y="0" flags="0x0"/>
      <component glyphName="macron.case" x="152" y="-4" flags="0x0"/>
    </TTGlyph>
    <TTGlyph name="Uogonek" xMin="71" yMin="-239" xMax="585" yMax="691">
      <contour>
        <pt x="585" y="144" on="0"/>
        <pt x="505" y="24" on="0"/>
        <pt x="429" y="0" on="1"/>
        <pt x="360" y="-28" on="0"/>
        <pt x="309" y="-79" on="0"/>
        <pt x="309" y="-107" on="1"/>
        <pt x="309" y="-154" on="0"/>
        <pt x="363" y="-154" on="1"/>
        <pt x="392" y="-154" on="0"/>
        <pt x="424" y="-147" on="1"/>
        <pt x="414" y="-232" on="1"/>
        <pt x="379" y="-239" on="0"/>
        <pt x="348" y="-239" on="1"/>
        <pt x="287" y="-239" on="0"/>
        <pt x="211" y="-179" on="0"/>
        <pt x="211" y="-130" on="1"/>
        <pt x="211" y="-92" on="0"/>
        <pt x="257" y="-33" on="0"/>
        <pt x="300" y="-14" on="1"/>
        <pt x="189" y="-7" on="0"/>
        <pt x="71" y="123" on="0"/>
        <pt x="71" y="226" on="1"/>
        <pt x="71" y="691" on="1"/>
        <pt x="203" y="691" on="1"/>
        <pt x="203" y="233" on="1"/>
        <pt x="203" y="160" on="0"/>
        <pt x="264" y="88" on="0"/>
        <pt x="327" y="88" on="1"/>
        <pt x="391" y="88" on="0"/>
        <pt x="452" y="160" on="0"/>
        <pt x="452" y="233" on="1"/>
        <pt x="452" y="691" on="1"/>
        <pt x="585" y="691" on="1"/>
        <pt x="585" y="226" on="1"/>
      </contour>
    </TTGlyph>
    <TTGlyph name="Upsilon" xMin="-2" yMin="0" xMax="576" yMax="691">
      <contour>
        <pt x="354" y="0" on="1"/>
        <pt x="220" y="0" on="1"/>
        <pt x="220" y="261" on="1"/>
        <pt x="-2" y="691" on="1"/>
        <pt x="144" y="691" on="1"/>
        <pt x="290" y="370" on="1"/>
        <pt x="436" y="691" on="1"/>
        <pt x="576" y="691" on="1"/>
        <pt x="354" y="262" on="1"/>
      </contour>
    </TTGlyph>
    <TTGlyph name="Upsilondieresis" xMin="-2" yMin="0" xMax="576" yMax="911">
      <component glyphName="Y" x="0" y="0" flags="0x0"/>
      <component glyphName="dieresis.case" x="76" y="0" flags="0x0"/>
    </TTGlyph>
    <TTGlyph name="Upsilontonos" xMin="-181" yMin="0" xMax="576" yMax="717">
      <component glyphName="Y" x="0" y="0" flags="0x0"/>
      <component glyphName="tonos.case" x="-218" y="0" flags="0x0"/>
    </TTGlyph>
    <TTGlyph name="Uring" xMin="71" yMin="-15" xMax="585" yMax="979">
      <component glyphName="U" x="0" y="0" flags="0x0"/>
      <component glyphName="ring.case" x="170" y="0" flags="0x0"/>
    </TTGlyph>
    <TTGlyph name="Utilde" xMin="71" yMin="-15" xMax="585" yMax="910">
      <component glyphName="U" x="0" y="0" flags="0x0"/>
      <component glyphName="tilde.case" x="119" y="0" flags="0x0"/>
    </TTGlyph>
    <TTGlyph name="V" xMin="-5" yMin="0" xMax="568" yMax="691">
      <contour>
        <pt x="206" y="0" on="1"/>
        <pt x="-5" y="691" on="1"/>
        <pt x="137" y="691" on="1"/>
        <pt x="287" y="117" on="1"/>
        <pt x="433" y="691" on="1"/>
        <pt x="568" y="691" on="1"/>
        <pt x="363" y="0" on="1"/>
      </contour>
    </TTGlyph>
    <TTGlyph name="W" xMin="17" yMin="0" xMax="821" yMax="691">
      <contour>
        <pt x="522" y="0" on="1"/>
        <pt x="417" y="551" on="1"/>
        <pt x="309" y="0" on="1"/>
        <pt x="142" y="0" on="1"/>
        <pt x="17" y="691" on="1"/>
        <pt x="148" y="691" on="1"/>
        <pt x="236" y="105" on="1"/>
        <pt x="349" y="691" on="1"/>
        <pt x="489" y="691" on="1"/>
        <pt x="600" y="105" on="1"/>
        <pt x="696" y="691" on="1"/>
        <pt x="821" y="691" on="1"/>
        <pt x="694" y="0" on="1"/>
      </contour>
    </TTGlyph>
    <TTGlyph name="Wacute" xMin="17" yMin="0" xMax="821" yMax="936">
      <component glyphName="W" x="0" y="0" flags="0x0"/>
      <component glyphName="acute.case" x="258" y="0" flags="0x0"/>
    </TTGlyph>
    <TTGlyph name="Wcircumflex" xMin="17" yMin="0" xMax="821" yMax="933">
      <component glyphName="W" x="0" y="0" flags="0x0"/>
      <component glyphName="circumflex.case" x="210" y="0" flags="0x0"/>
    </TTGlyph>
    <TTGlyph name="Wdieresis" xMin="17" yMin="0" xMax="821" yMax="911">
      <component glyphName="W" x="0" y="0" flags="0x0"/>
      <component glyphName="dieresis.case" x="207" y="0" flags="0x0"/>
    </TTGlyph>
    <TTGlyph name="Wgrave" xMin="17" yMin="0" xMax="821" yMax="936">
      <component glyphName="W" x="0" y="0" flags="0x0"/>
      <component glyphName="grave.case" x="250" y="0" flags="0x0"/>
    </TTGlyph>
    <TTGlyph name="X" xMin="0" yMin="0" xMax="563" yMax="691">
      <contour>
        <pt x="416" y="0" on="1"/>
        <pt x="278" y="283" on="1"/>
        <pt x="141" y="0" on="1"/>
        <pt x="0" y="0" on="1"/>
        <pt x="200" y="368" on="1"/>
        <pt x="16" y="691" on="1"/>
        <pt x="163" y="691" on="1"/>
        <pt x="280" y="452" on="1"/>
        <pt x="402" y="691" on="1"/>
        <pt x="543" y="691" on="1"/>
        <pt x="358" y="373" on="1"/>
        <pt x="563" y="0" on="1"/>
      </contour>
    </TTGlyph>
    <TTGlyph name="Xi" xMin="37" yMin="0" xMax="482" yMax="691">
      <contour>
        <pt x="37" y="578" on="1"/>
        <pt x="37" y="691" on="1"/>
        <pt x="478" y="691" on="1"/>
        <pt x="462" y="578" on="1"/>
      </contour>
      <contour>
        <pt x="99" y="296" on="1"/>
        <pt x="99" y="405" on="1"/>
        <pt x="414" y="405" on="1"/>
        <pt x="414" y="296" on="1"/>
      </contour>
      <contour>
        <pt x="37" y="0" on="1"/>
        <pt x="37" y="117" on="1"/>
        <pt x="482" y="117" on="1"/>
        <pt x="482" y="0" on="1"/>
      </contour>
    </TTGlyph>
    <TTGlyph name="Y" xMin="-2" yMin="0" xMax="576" yMax="691">
      <contour>
        <pt x="354" y="0" on="1"/>
        <pt x="220" y="0" on="1"/>
        <pt x="220" y="261" on="1"/>
        <pt x="-2" y="691" on="1"/>
        <pt x="144" y="691" on="1"/>
        <pt x="290" y="370" on="1"/>
        <pt x="436" y="691" on="1"/>
        <pt x="576" y="691" on="1"/>
        <pt x="354" y="262" on="1"/>
      </contour>
    </TTGlyph>
    <TTGlyph name="Yacute" xMin="-2" yMin="0" xMax="576" yMax="936">
      <component glyphName="Y" x="0" y="0" flags="0x0"/>
      <component glyphName="acute.case" x="127" y="0" flags="0x0"/>
    </TTGlyph>
    <TTGlyph name="Ycircumflex" xMin="-2" yMin="0" xMax="576" yMax="933">
      <component glyphName="Y" x="0" y="0" flags="0x0"/>
      <component glyphName="circumflex.case" x="80" y="0" flags="0x0"/>
    </TTGlyph>
    <TTGlyph name="Ydieresis" xMin="-2" yMin="0" xMax="576" yMax="911">
      <component glyphName="Y" x="0" y="0" flags="0x0"/>
      <component glyphName="dieresis.case" x="76" y="0" flags="0x0"/>
    </TTGlyph>
    <TTGlyph name="Ygrave" xMin="-2" yMin="0" xMax="576" yMax="936">
      <component glyphName="Y" x="0" y="0" flags="0x0"/>
      <component glyphName="grave.case" x="119" y="0" flags="0x0"/>
    </TTGlyph>
    <TTGlyph name="Z" xMin="23" yMin="0" xMax="499" yMax="691">
      <contour>
        <pt x="177" y="108" on="1"/>
        <pt x="499" y="108" on="1"/>
        <pt x="485" y="0" on="1"/>
        <pt x="23" y="0" on="1"/>
        <pt x="23" y="101" on="1"/>
        <pt x="348" y="586" on="1"/>
        <pt x="56" y="586" on="1"/>
        <pt x="56" y="691" on="1"/>
        <pt x="496" y="691" on="1"/>
        <pt x="496" y="589" on="1"/>
      </contour>
    </TTGlyph>
    <TTGlyph name="Zacute" xMin="23" yMin="0" xMax="499" yMax="936">
      <component glyphName="Z" x="0" y="0" flags="0x0"/>
      <component glyphName="acute.case" x="113" y="0" flags="0x0"/>
    </TTGlyph>
    <TTGlyph name="Zacute.loclPLK" xMin="23" yMin="0" xMax="499" yMax="947">
      <component glyphName="Z" x="0" y="0" flags="0x0"/>
      <component glyphName="acute.case.loclPLK" x="114" y="0" flags="0x0"/>
    </TTGlyph>
    <TTGlyph name="Zcaron" xMin="23" yMin="0" xMax="499" yMax="928">
      <component glyphName="Z" x="0" y="0" flags="0x0"/>
      <component glyphName="caron.case" x="65" y="0" flags="0x0"/>
    </TTGlyph>
    <TTGlyph name="Zdotaccent" xMin="23" yMin="0" xMax="499" yMax="923">
      <component glyphName="Z" x="0" y="0" flags="0x0"/>
      <component glyphName="dotaccent.case" x="164" y="0" flags="0x0"/>
    </TTGlyph>
    <TTGlyph name="Zeta" xMin="23" yMin="0" xMax="499" yMax="691">
      <component glyphName="Z" x="0" y="0" flags="0x0"/>
    </TTGlyph>
    <TTGlyph name="a" xMin="35" yMin="-15" xMax="508" yMax="544">
      <contour>
        <pt x="468" y="109" on="0"/>
        <pt x="487" y="80" on="0"/>
        <pt x="508" y="72" on="1"/>
        <pt x="481" y="-13" on="1"/>
        <pt x="436" y="-9" on="0"/>
        <pt x="379" y="26" on="0"/>
        <pt x="364" y="64" on="1"/>
        <pt x="337" y="24" on="0"/>
        <pt x="256" y="-15" on="0"/>
        <pt x="206" y="-15" on="1"/>
        <pt x="127" y="-15" on="0"/>
        <pt x="35" y="75" on="0"/>
        <pt x="35" y="148" on="1"/>
        <pt x="35" y="234" on="0"/>
        <pt x="160" y="325" on="0"/>
        <pt x="276" y="325" on="1"/>
        <pt x="342" y="325" on="1"/>
        <pt x="342" y="355" on="1"/>
        <pt x="342" y="406" on="0"/>
        <pt x="295" y="447" on="0"/>
        <pt x="243" y="447" on="1"/>
        <pt x="185" y="447" on="0"/>
        <pt x="103" y="419" on="1"/>
        <pt x="73" y="506" on="1"/>
        <pt x="172" y="544" on="0"/>
        <pt x="265" y="544" on="1"/>
        <pt x="468" y="544" on="0"/>
        <pt x="468" y="362" on="1"/>
        <pt x="468" y="140" on="1"/>
      </contour>
      <contour>
        <pt x="305" y="78" on="0"/>
        <pt x="342" y="143" on="1"/>
        <pt x="342" y="250" on="1"/>
        <pt x="289" y="250" on="1"/>
        <pt x="165" y="250" on="0"/>
        <pt x="165" y="158" on="1"/>
        <pt x="165" y="120" on="0"/>
        <pt x="203" y="78" on="0"/>
        <pt x="240" y="78" on="1"/>
      </contour>
    </TTGlyph>
    <TTGlyph name="a.sc" xMin="-5" yMin="0" xMax="517" yMax="566">
      <contour>
        <pt x="161" y="125" on="1"/>
        <pt x="128" y="0" on="1"/>
        <pt x="-5" y="0" on="1"/>
        <pt x="180" y="566" on="1"/>
        <pt x="334" y="566" on="1"/>
        <pt x="517" y="0" on="1"/>
        <pt x="383" y="0" on="1"/>
        <pt x="349" y="125" on="1"/>
      </contour>
      <contour>
        <pt x="255" y="473" on="1"/>
        <pt x="186" y="218" on="1"/>
        <pt x="324" y="218" on="1"/>
      </contour>
    </TTGlyph>
    <TTGlyph name="aacute" xMin="35" yMin="-15" xMax="508" yMax="820">
      <component glyphName="a" x="0" y="0" flags="0x0"/>
      <component glyphName="acute" x="95" y="0" flags="0x0"/>
    </TTGlyph>
    <TTGlyph name="aacute.sc" xMin="-5" yMin="0" xMax="517" yMax="850">
      <component glyphName="a.sc" x="0" y="0" flags="0x0"/>
      <component glyphName="acute.sc" x="92" y="0" flags="0x0"/>
    </TTGlyph>
    <TTGlyph name="abreve" xMin="35" yMin="-15" xMax="508" yMax="806">
      <component glyphName="a" x="0" y="0" flags="0x0"/>
      <component glyphName="breve" x="73" y="0" flags="0x0"/>
    </TTGlyph>
    <TTGlyph name="abreve.sc" xMin="-5" yMin="0" xMax="517" yMax="836">
      <component glyphName="a.sc" x="0" y="0" flags="0x0"/>
      <component glyphName="breve.sc" x="63" y="0" flags="0x0"/>
    </TTGlyph>
    <TTGlyph name="acircumflex" xMin="35" yMin="-15" xMax="508" yMax="808">
      <component glyphName="a" x="0" y="0" flags="0x0"/>
      <component glyphName="circumflex" x="57" y="0" flags="0x0"/>
    </TTGlyph>
    <TTGlyph name="acircumflex.sc" xMin="-5" yMin="0" xMax="517" yMax="839">
      <component glyphName="a.sc" x="0" y="0" flags="0x0"/>
      <component glyphName="circumflex.sc" x="48" y="0" flags="0x0"/>
    </TTGlyph>
    <TTGlyph name="acute" xMin="30" yMin="630" xMax="292" yMax="820">
      <contour>
        <pt x="66" y="630" on="1"/>
        <pt x="30" y="695" on="1"/>
        <pt x="240" y="820" on="1"/>
        <pt x="292" y="720" on="1"/>
      </contour>
    </TTGlyph>
    <TTGlyph name="acute.case" xMin="30" yMin="753" xMax="292" yMax="936">
      <contour>
        <pt x="63" y="753" on="1"/>
        <pt x="30" y="819" on="1"/>
        <pt x="241" y="936" on="1"/>
        <pt x="292" y="836" on="1"/>
      </contour>
    </TTGlyph>
    <TTGlyph name="acute.case.loclPLK" xMin="97" yMin="738" xMax="294" yMax="947">
      <contour>
        <pt x="156" y="738" on="1"/>
        <pt x="97" y="773" on="1"/>
        <pt x="197" y="947" on="1"/>
        <pt x="294" y="890" on="1"/>
      </contour>
    </TTGlyph>
    <TTGlyph name="acute.loclPLK" xMin="97" yMin="579" xMax="293" yMax="795">
      <contour>
        <pt x="156" y="579" on="1"/>
        <pt x="97" y="614" on="1"/>
        <pt x="196" y="795" on="1"/>
        <pt x="293" y="737" on="1"/>
      </contour>
    </TTGlyph>
    <TTGlyph name="acute.sc" xMin="30" yMin="660" xMax="292" yMax="850">
      <contour>
        <pt x="67" y="660" on="1"/>
        <pt x="30" y="726" on="1"/>
        <pt x="240" y="850" on="1"/>
        <pt x="292" y="750" on="1"/>
      </contour>
    </TTGlyph>
    <TTGlyph name="acute.sc.loclPLK" xMin="97" yMin="623" xMax="293" yMax="838">
      <contour>
        <pt x="156" y="623" on="1"/>
        <pt x="97" y="658" on="1"/>
        <pt x="196" y="838" on="1"/>
        <pt x="293" y="781" on="1"/>
      </contour>
    </TTGlyph>
    <TTGlyph name="acutecomb" xMin="39" yMin="627" xMax="301" yMax="810">
      <contour>
        <pt x="72" y="627" on="1"/>
        <pt x="39" y="693" on="1"/>
        <pt x="250" y="810" on="1"/>
        <pt x="301" y="710" on="1"/>
      </contour>
    </TTGlyph>
    <TTGlyph name="acutecombcomb" xMin="39" yMin="627" xMax="301" yMax="810">
      <component glyphName="acutecomb" x="0" y="0" flags="0x0"/>
    </TTGlyph>
    <TTGlyph name="adieresis" xMin="35" yMin="-15" xMax="508" yMax="785">
      <component glyphName="a" x="0" y="0" flags="0x0"/>
      <component glyphName="dieresis" x="54" y="0" flags="0x0"/>
    </TTGlyph>
    <TTGlyph name="adieresis.sc" xMin="-5" yMin="0" xMax="517" yMax="815">
      <component glyphName="a.sc" x="0" y="0" flags="0x0"/>
      <component glyphName="dieresis.sc" x="44" y="0" flags="0x0"/>
    </TTGlyph>
    <TTGlyph name="ae" xMin="35" yMin="-15" xMax="814" yMax="544">
      <contour>
        <pt x="814" y="246" on="0"/>
        <pt x="811" y="225" on="1"/>
        <pt x="479" y="225" on="1"/>
        <pt x="486" y="148" on="0"/>
        <pt x="553" y="82" on="0"/>
        <pt x="609" y="82" on="1"/>
        <pt x="644" y="82" on="0"/>
        <pt x="706" y="104" on="0"/>
        <pt x="741" y="129" on="1"/>
        <pt x="795" y="56" on="1"/>
        <pt x="705" y="-15" on="0"/>
        <pt x="598" y="-15" on="1"/>
        <pt x="531" y="-15" on="0"/>
        <pt x="429" y="34" on="0"/>
        <pt x="397" y="79" on="1"/>
        <pt x="362" y="29" on="0"/>
        <pt x="269" y="-15" on="0"/>
        <pt x="209" y="-15" on="1"/>
        <pt x="129" y="-15" on="0"/>
        <pt x="35" y="75" on="0"/>
        <pt x="35" y="148" on="1"/>
        <pt x="35" y="234" on="0"/>
        <pt x="162" y="325" on="0"/>
        <pt x="280" y="325" on="1"/>
        <pt x="347" y="325" on="1"/>
        <pt x="347" y="355" on="1"/>
        <pt x="347" y="405" on="0"/>
        <pt x="300" y="446" on="0"/>
        <pt x="248" y="446" on="1"/>
        <pt x="191" y="446" on="0"/>
        <pt x="107" y="418" on="1"/>
        <pt x="78" y="506" on="1"/>
        <pt x="177" y="544" on="0"/>
        <pt x="269" y="544" on="1"/>
        <pt x="382" y="544" on="0"/>
        <pt x="429" y="471" on="1"/>
        <pt x="489" y="544" on="0"/>
        <pt x="586" y="544" on="1"/>
        <pt x="693" y="544" on="0"/>
        <pt x="814" y="402" on="0"/>
        <pt x="814" y="277" on="1"/>
      </contour>
      <contour>
        <pt x="688" y="314" on="1"/>
        <pt x="686" y="453" on="0"/>
        <pt x="584" y="453" on="1"/>
        <pt x="537" y="453" on="0"/>
        <pt x="485" y="384" on="0"/>
        <pt x="479" y="308" on="1"/>
        <pt x="688" y="308" on="1"/>
      </contour>
      <contour>
        <pt x="281" y="78" on="0"/>
        <pt x="336" y="116" on="0"/>
        <pt x="361" y="155" on="1"/>
        <pt x="350" y="195" on="0"/>
        <pt x="348" y="244" on="1"/>
        <pt x="348" y="248" on="1"/>
        <pt x="295" y="248" on="1"/>
        <pt x="171" y="248" on="0"/>
        <pt x="171" y="156" on="1"/>
        <pt x="171" y="118" on="0"/>
        <pt x="209" y="78" on="0"/>
        <pt x="246" y="78" on="1"/>
      </contour>
    </TTGlyph>
    <TTGlyph name="ae.sc" xMin="-18" yMin="0" xMax="692" yMax="566">
      <contour>
        <pt x="692" y="0" on="1"/>
        <pt x="387" y="0" on="1"/>
        <pt x="362" y="125" on="1"/>
        <pt x="164" y="125" on="1"/>
        <pt x="118" y="0" on="1"/>
        <pt x="-18" y="0" on="1"/>
        <pt x="218" y="566" on="1"/>
        <pt x="659" y="566" on="1"/>
        <pt x="645" y="474" on="1"/>
        <pt x="407" y="474" on="1"/>
        <pt x="438" y="333" on="1"/>
        <pt x="652" y="333" on="1"/>
        <pt x="652" y="242" on="1"/>
        <pt x="458" y="242" on="1"/>
        <pt x="490" y="93" on="1"/>
        <pt x="692" y="93" on="1"/>
      </contour>
      <contour>
        <pt x="292" y="472" on="1"/>
        <pt x="199" y="218" on="1"/>
        <pt x="343" y="218" on="1"/>
      </contour>
    </TTGlyph>
    <TTGlyph name="aeacute" xMin="35" yMin="-15" xMax="814" yMax="820">
      <component glyphName="ae" x="0" y="0" flags="0x0"/>
      <component glyphName="acute" x="254" y="0" flags="0x0"/>
    </TTGlyph>
    <TTGlyph name="aeacute.sc" xMin="-18" yMin="0" xMax="692" yMax="850">
      <component glyphName="ae.sc" x="0" y="0" flags="0x0"/>
      <component glyphName="acute.sc" x="246" y="0" flags="0x0"/>
    </TTGlyph>
    <TTGlyph name="agrave" xMin="35" yMin="-15" xMax="508" yMax="820">
      <component glyphName="a" x="0" y="0" flags="0x0"/>
      <component glyphName="grave" x="115" y="0" flags="0x0"/>
    </TTGlyph>
    <TTGlyph name="agrave.sc" xMin="-5" yMin="0" xMax="517" yMax="850">
      <component glyphName="a.sc" x="0" y="0" flags="0x0"/>
      <component glyphName="grave.sc" x="99" y="0" flags="0x0"/>
    </TTGlyph>
    <TTGlyph name="alpha" xMin="45" yMin="-15" xMax="563" yMax="544">
      <contour>
        <pt x="321" y="544" on="0"/>
        <pt x="400" y="472" on="0"/>
        <pt x="415" y="394" on="1"/>
        <pt x="436" y="529" on="1"/>
        <pt x="548" y="529" on="1"/>
        <pt x="485" y="255" on="1"/>
        <pt x="512" y="137" on="1"/>
        <pt x="517" y="114" on="0"/>
        <pt x="541" y="90" on="0"/>
        <pt x="563" y="84" on="1"/>
        <pt x="521" y="-15" on="1"/>
        <pt x="479" y="-10" on="0"/>
        <pt x="423" y="38" on="0"/>
        <pt x="415" y="79" on="1"/>
        <pt x="407" y="124" on="1"/>
        <pt x="382" y="58" on="0"/>
        <pt x="303" y="-15" on="0"/>
        <pt x="243" y="-15" on="1"/>
        <pt x="150" y="-15" on="0"/>
        <pt x="45" y="126" on="0"/>
        <pt x="45" y="260" on="1"/>
        <pt x="45" y="387" on="0"/>
        <pt x="155" y="544" on="0"/>
        <pt x="254" y="544" on="1"/>
      </contour>
      <contour>
        <pt x="225" y="448" on="0"/>
        <pt x="176" y="352" on="0"/>
        <pt x="176" y="260" on="1"/>
        <pt x="176" y="168" on="0"/>
        <pt x="223" y="81" on="0"/>
        <pt x="265" y="81" on="1"/>
        <pt x="304" y="81" on="0"/>
        <pt x="364" y="163" on="0"/>
        <pt x="383" y="270" on="1"/>
        <pt x="365" y="371" on="0"/>
        <pt x="312" y="448" on="0"/>
        <pt x="268" y="448" on="1"/>
      </contour>
    </TTGlyph>
    <TTGlyph name="alpha.sc" xMin="-5" yMin="0" xMax="517" yMax="566">
      <contour>
        <pt x="161" y="125" on="1"/>
        <pt x="128" y="0" on="1"/>
        <pt x="-5" y="0" on="1"/>
        <pt x="180" y="566" on="1"/>
        <pt x="334" y="566" on="1"/>
        <pt x="517" y="0" on="1"/>
        <pt x="383" y="0" on="1"/>
        <pt x="349" y="125" on="1"/>
      </contour>
      <contour>
        <pt x="255" y="473" on="1"/>
        <pt x="186" y="218" on="1"/>
        <pt x="324" y="218" on="1"/>
      </contour>
    </TTGlyph>
    <TTGlyph name="alphatonos" xMin="45" yMin="-15" xMax="563" yMax="831">
      <component glyphName="alpha" x="0" y="0" flags="0x0"/>
      <component glyphName="tonos" x="203" y="0" flags="0x0"/>
    </TTGlyph>
    <TTGlyph name="alphatonos.sc" xMin="-5" yMin="0" xMax="517" yMax="566">
      <component glyphName="a.sc" x="0" y="0" flags="0x0"/>
    </TTGlyph>
    <TTGlyph name="amacron" xMin="35" yMin="-15" xMax="508" yMax="752">
      <component glyphName="a" x="0" y="0" flags="0x0"/>
      <component glyphName="macron" x="90" y="0" flags="0x0"/>
    </TTGlyph>
    <TTGlyph name="amacron.sc" xMin="-5" yMin="0" xMax="517" yMax="782">
      <component glyphName="a.sc" x="0" y="0" flags="0x0"/>
      <component glyphName="macron.sc" x="81" y="0" flags="0x0"/>
    </TTGlyph>
    <TTGlyph name="ampersand" xMin="69" yMin="-15" xMax="716" yMax="706">
      <contour>
        <pt x="368" y="706" on="0"/>
        <pt x="459" y="666" on="0"/>
        <pt x="508" y="595" on="0"/>
        <pt x="508" y="550" on="1"/>
        <pt x="508" y="491" on="0"/>
        <pt x="437" y="404" on="0"/>
        <pt x="372" y="363" on="1"/>
        <pt x="526" y="218" on="1"/>
        <pt x="559" y="290" on="0"/>
        <pt x="579" y="374" on="1"/>
        <pt x="690" y="341" on="1"/>
        <pt x="653" y="229" on="0"/>
        <pt x="599" y="150" on="1"/>
        <pt x="716" y="44" on="1"/>
        <pt x="613" y="-15" on="1"/>
        <pt x="526" y="69" on="1"/>
        <pt x="436" y="-15" on="0"/>
        <pt x="306" y="-15" on="1"/>
        <pt x="236" y="-15" on="0"/>
        <pt x="129" y="32" on="0"/>
        <pt x="69" y="119" on="0"/>
        <pt x="69" y="176" on="1"/>
        <pt x="69" y="237" on="0"/>
        <pt x="137" y="328" on="0"/>
        <pt x="207" y="373" on="1"/>
        <pt x="155" y="424" on="0"/>
        <pt x="110" y="498" on="0"/>
        <pt x="110" y="545" on="1"/>
        <pt x="110" y="589" on="0"/>
        <pt x="155" y="662" on="0"/>
        <pt x="244" y="706" on="0"/>
        <pt x="308" y="706" on="1"/>
      </contour>
      <contour>
        <pt x="274" y="619" on="0"/>
        <pt x="234" y="579" on="0"/>
        <pt x="234" y="545" on="1"/>
        <pt x="234" y="515" on="0"/>
        <pt x="265" y="466" on="0"/>
        <pt x="301" y="431" on="1"/>
        <pt x="343" y="458" on="0"/>
        <pt x="385" y="511" on="0"/>
        <pt x="385" y="545" on="1"/>
        <pt x="385" y="579" on="0"/>
        <pt x="344" y="619" on="0"/>
        <pt x="309" y="619" on="1"/>
      </contour>
      <contour>
        <pt x="240" y="277" on="0"/>
        <pt x="203" y="219" on="0"/>
        <pt x="203" y="182" on="1"/>
        <pt x="203" y="135" on="0"/>
        <pt x="270" y="80" on="0"/>
        <pt x="326" y="80" on="1"/>
        <pt x="365" y="80" on="0"/>
        <pt x="428" y="107" on="0"/>
        <pt x="458" y="133" on="1"/>
        <pt x="280" y="304" on="1"/>
      </contour>
    </TTGlyph>
    <TTGlyph name="aogonek" xMin="35" yMin="-253" xMax="508" yMax="544">
      <contour>
        <pt x="412" y="-42" on="0"/>
        <pt x="361" y="-93" on="0"/>
        <pt x="361" y="-121" on="1"/>
        <pt x="361" y="-168" on="0"/>
        <pt x="415" y="-168" on="1"/>
        <pt x="444" y="-168" on="0"/>
        <pt x="476" y="-161" on="1"/>
        <pt x="466" y="-246" on="1"/>
        <pt x="431" y="-253" on="0"/>
        <pt x="400" y="-253" on="1"/>
        <pt x="339" y="-253" on="0"/>
        <pt x="263" y="-193" on="0"/>
        <pt x="263" y="-144" on="1"/>
        <pt x="263" y="-92" on="0"/>
        <pt x="335" y="-17" on="0"/>
        <pt x="405" y="10" on="1"/>
        <pt x="379" y="29" on="0"/>
        <pt x="364" y="64" on="1"/>
        <pt x="337" y="24" on="0"/>
        <pt x="256" y="-15" on="0"/>
        <pt x="206" y="-15" on="1"/>
        <pt x="127" y="-15" on="0"/>
        <pt x="35" y="75" on="0"/>
        <pt x="35" y="148" on="1"/>
        <pt x="35" y="234" on="0"/>
        <pt x="160" y="325" on="0"/>
        <pt x="276" y="325" on="1"/>
        <pt x="342" y="325" on="1"/>
        <pt x="342" y="355" on="1"/>
        <pt x="342" y="406" on="0"/>
        <pt x="295" y="447" on="0"/>
        <pt x="243" y="447" on="1"/>
        <pt x="185" y="447" on="0"/>
        <pt x="103" y="419" on="1"/>
        <pt x="73" y="506" on="1"/>
        <pt x="172" y="544" on="0"/>
        <pt x="265" y="544" on="1"/>
        <pt x="468" y="544" on="0"/>
        <pt x="468" y="362" on="1"/>
        <pt x="468" y="140" on="1"/>
        <pt x="468" y="109" on="0"/>
        <pt x="487" y="80" on="0"/>
        <pt x="508" y="72" on="1"/>
        <pt x="481" y="-14" on="1"/>
      </contour>
      <contour>
        <pt x="305" y="78" on="0"/>
        <pt x="342" y="143" on="1"/>
        <pt x="342" y="250" on="1"/>
        <pt x="289" y="250" on="1"/>
        <pt x="165" y="250" on="0"/>
        <pt x="165" y="158" on="1"/>
        <pt x="165" y="120" on="0"/>
        <pt x="203" y="78" on="0"/>
        <pt x="240" y="78" on="1"/>
      </contour>
    </TTGlyph>
    <TTGlyph name="aogonek.sc" xMin="-5" yMin="-239" xMax="517" yMax="566">
      <contour>
        <pt x="395" y="-28" on="0"/>
        <pt x="343" y="-79" on="0"/>
        <pt x="343" y="-107" on="1"/>
        <pt x="343" y="-154" on="0"/>
        <pt x="398" y="-154" on="1"/>
        <pt x="425" y="-154" on="0"/>
        <pt x="459" y="-147" on="1"/>
        <pt x="449" y="-232" on="1"/>
        <pt x="412" y="-239" on="0"/>
        <pt x="382" y="-239" on="1"/>
        <pt x="321" y="-239" on="0"/>
        <pt x="245" y="-179" on="0"/>
        <pt x="245" y="-130" on="1"/>
        <pt x="245" y="-80" on="0"/>
        <pt x="312" y="-7" on="0"/>
        <pt x="377" y="20" on="1"/>
        <pt x="349" y="125" on="1"/>
        <pt x="161" y="125" on="1"/>
        <pt x="128" y="0" on="1"/>
        <pt x="-5" y="0" on="1"/>
        <pt x="180" y="566" on="1"/>
        <pt x="334" y="566" on="1"/>
        <pt x="517" y="0" on="1"/>
        <pt x="464" y="0" on="1"/>
      </contour>
      <contour>
        <pt x="255" y="473" on="1"/>
        <pt x="186" y="218" on="1"/>
        <pt x="324" y="218" on="1"/>
      </contour>
    </TTGlyph>
    <TTGlyph name="approxequal" xMin="25" yMin="144" xMax="477" yMax="502">
      <component glyphName="asciitilde" x="0" y="-96" flags="0x0"/>
      <component glyphName="asciitilde" x="0" y="103" flags="0x0"/>
    </TTGlyph>
    <TTGlyph name="approxequal.osf" xMin="25" yMin="144" xMax="478" yMax="502">
      <contour>
        <pt x="207" y="502" on="0"/>
        <pt x="253" y="483" on="0"/>
        <pt x="280" y="465" on="1"/>
        <pt x="299" y="453" on="0"/>
        <pt x="323" y="441" on="0"/>
        <pt x="336" y="441" on="1"/>
        <pt x="359" y="441" on="0"/>
        <pt x="388" y="467" on="0"/>
        <pt x="402" y="493" on="1"/>
        <pt x="478" y="453" on="1"/>
        <pt x="424" y="344" on="0"/>
        <pt x="330" y="344" on="1"/>
        <pt x="297" y="344" on="0"/>
        <pt x="250" y="364" on="0"/>
        <pt x="222" y="382" on="1"/>
        <pt x="205" y="394" on="0"/>
        <pt x="181" y="405" on="0"/>
        <pt x="169" y="405" on="1"/>
        <pt x="144" y="405" on="0"/>
        <pt x="115" y="377" on="0"/>
        <pt x="100" y="350" on="1"/>
        <pt x="25" y="389" on="1"/>
        <pt x="82" y="502" on="0"/>
        <pt x="175" y="502" on="1"/>
      </contour>
      <contour>
        <pt x="207" y="303" on="0"/>
        <pt x="254" y="283" on="0"/>
        <pt x="280" y="265" on="1"/>
        <pt x="301" y="253" on="0"/>
        <pt x="323" y="242" on="0"/>
        <pt x="336" y="242" on="1"/>
        <pt x="359" y="242" on="0"/>
        <pt x="388" y="268" on="0"/>
        <pt x="402" y="294" on="1"/>
        <pt x="478" y="254" on="1"/>
        <pt x="423" y="144" on="0"/>
        <pt x="330" y="144" on="1"/>
        <pt x="297" y="144" on="0"/>
        <pt x="248" y="165" on="0"/>
        <pt x="222" y="183" on="1"/>
        <pt x="202" y="196" on="0"/>
        <pt x="181" y="206" on="0"/>
        <pt x="169" y="206" on="1"/>
        <pt x="144" y="206" on="0"/>
        <pt x="115" y="178" on="0"/>
        <pt x="100" y="150" on="1"/>
        <pt x="25" y="189" on="1"/>
        <pt x="82" y="303" on="0"/>
        <pt x="175" y="303" on="1"/>
      </contour>
    </TTGlyph>
    <TTGlyph name="approxequal.tf" xMin="54" yMin="144" xMax="507" yMax="502">
      <contour>
        <pt x="236" y="502" on="0"/>
        <pt x="282" y="483" on="0"/>
        <pt x="309" y="465" on="1"/>
        <pt x="328" y="453" on="0"/>
        <pt x="352" y="441" on="0"/>
        <pt x="365" y="441" on="1"/>
        <pt x="388" y="441" on="0"/>
        <pt x="417" y="467" on="0"/>
        <pt x="431" y="493" on="1"/>
        <pt x="507" y="453" on="1"/>
        <pt x="453" y="344" on="0"/>
        <pt x="359" y="344" on="1"/>
        <pt x="326" y="344" on="0"/>
        <pt x="279" y="364" on="0"/>
        <pt x="251" y="382" on="1"/>
        <pt x="234" y="394" on="0"/>
        <pt x="210" y="405" on="0"/>
        <pt x="198" y="405" on="1"/>
        <pt x="173" y="405" on="0"/>
        <pt x="144" y="377" on="0"/>
        <pt x="129" y="350" on="1"/>
        <pt x="54" y="389" on="1"/>
        <pt x="111" y="502" on="0"/>
        <pt x="204" y="502" on="1"/>
      </contour>
      <contour>
        <pt x="236" y="303" on="0"/>
        <pt x="283" y="283" on="0"/>
        <pt x="309" y="265" on="1"/>
        <pt x="330" y="253" on="0"/>
        <pt x="352" y="242" on="0"/>
        <pt x="365" y="242" on="1"/>
        <pt x="388" y="242" on="0"/>
        <pt x="417" y="268" on="0"/>
        <pt x="431" y="294" on="1"/>
        <pt x="507" y="254" on="1"/>
        <pt x="452" y="144" on="0"/>
        <pt x="359" y="144" on="1"/>
        <pt x="326" y="144" on="0"/>
        <pt x="277" y="165" on="0"/>
        <pt x="251" y="183" on="1"/>
        <pt x="231" y="196" on="0"/>
        <pt x="210" y="206" on="0"/>
        <pt x="198" y="206" on="1"/>
        <pt x="173" y="206" on="0"/>
        <pt x="144" y="178" on="0"/>
        <pt x="129" y="150" on="1"/>
        <pt x="54" y="189" on="1"/>
        <pt x="111" y="303" on="0"/>
        <pt x="204" y="303" on="1"/>
      </contour>
    </TTGlyph>
    <TTGlyph name="approxequal.tosf" xMin="54" yMin="144" xMax="507" yMax="502">
      <contour>
        <pt x="236" y="502" on="0"/>
        <pt x="282" y="483" on="0"/>
        <pt x="309" y="465" on="1"/>
        <pt x="328" y="453" on="0"/>
        <pt x="352" y="441" on="0"/>
        <pt x="365" y="441" on="1"/>
        <pt x="388" y="441" on="0"/>
        <pt x="417" y="467" on="0"/>
        <pt x="431" y="493" on="1"/>
        <pt x="507" y="453" on="1"/>
        <pt x="453" y="344" on="0"/>
        <pt x="359" y="344" on="1"/>
        <pt x="326" y="344" on="0"/>
        <pt x="279" y="364" on="0"/>
        <pt x="251" y="382" on="1"/>
        <pt x="234" y="394" on="0"/>
        <pt x="210" y="405" on="0"/>
        <pt x="198" y="405" on="1"/>
        <pt x="173" y="405" on="0"/>
        <pt x="144" y="377" on="0"/>
        <pt x="129" y="350" on="1"/>
        <pt x="54" y="389" on="1"/>
        <pt x="111" y="502" on="0"/>
        <pt x="204" y="502" on="1"/>
      </contour>
      <contour>
        <pt x="236" y="303" on="0"/>
        <pt x="283" y="283" on="0"/>
        <pt x="309" y="265" on="1"/>
        <pt x="330" y="253" on="0"/>
        <pt x="352" y="242" on="0"/>
        <pt x="365" y="242" on="1"/>
        <pt x="388" y="242" on="0"/>
        <pt x="417" y="268" on="0"/>
        <pt x="431" y="294" on="1"/>
        <pt x="507" y="254" on="1"/>
        <pt x="452" y="144" on="0"/>
        <pt x="359" y="144" on="1"/>
        <pt x="326" y="144" on="0"/>
        <pt x="277" y="165" on="0"/>
        <pt x="251" y="183" on="1"/>
        <pt x="231" y="196" on="0"/>
        <pt x="210" y="206" on="0"/>
        <pt x="198" y="206" on="1"/>
        <pt x="173" y="206" on="0"/>
        <pt x="144" y="178" on="0"/>
        <pt x="129" y="150" on="1"/>
        <pt x="54" y="189" on="1"/>
        <pt x="111" y="303" on="0"/>
        <pt x="204" y="303" on="1"/>
      </contour>
    </TTGlyph>
    <TTGlyph name="aring" xMin="35" yMin="-15" xMax="508" yMax="853">
      <component glyphName="a" x="0" y="0" flags="0x0"/>
      <component glyphName="ring" x="109" y="0" flags="0x0"/>
    </TTGlyph>
    <TTGlyph name="aring.sc" xMin="-5" yMin="0" xMax="517" yMax="883">
      <component glyphName="a.sc" x="0" y="0" flags="0x0"/>
      <component glyphName="ring.sc" x="99" y="0" flags="0x0"/>
    </TTGlyph>
    <TTGlyph name="arrowdown" xMin="122" yMin="-43" xMax="778" yMax="646">
      <contour>
        <pt x="523" y="154" on="0"/>
        <pt x="553" y="192" on="0"/>
        <pt x="579" y="214" on="1"/>
        <pt x="705" y="330" on="1"/>
        <pt x="778" y="252" on="1"/>
        <pt x="450" y="-43" on="1"/>
        <pt x="122" y="252" on="1"/>
        <pt x="195" y="330" on="1"/>
        <pt x="321" y="214" on="1"/>
        <pt x="347" y="192" on="0"/>
        <pt x="377" y="154" on="0"/>
        <pt x="390" y="128" on="1"/>
        <pt x="390" y="646" on="1"/>
        <pt x="510" y="646" on="1"/>
        <pt x="510" y="128" on="1"/>
      </contour>
    </TTGlyph>
    <TTGlyph name="arrowdownwhite" xMin="60" yMin="-94" xMax="660" yMax="750">
      <contour>
        <pt x="464" y="750" on="0"/>
        <pt x="491" y="723" on="0"/>
        <pt x="491" y="700" on="1"/>
        <pt x="491" y="204" on="1"/>
        <pt x="660" y="204" on="1"/>
        <pt x="360" y="-94" on="1"/>
        <pt x="60" y="204" on="1"/>
        <pt x="229" y="204" on="1"/>
        <pt x="229" y="700" on="1"/>
        <pt x="229" y="723" on="0"/>
        <pt x="257" y="750" on="0"/>
        <pt x="279" y="750" on="1"/>
        <pt x="441" y="750" on="1"/>
      </contour>
      <contour>
        <pt x="169" y="159" on="1"/>
        <pt x="360" y="-30" on="1"/>
        <pt x="551" y="159" on="1"/>
        <pt x="444" y="159" on="1"/>
        <pt x="444" y="706" on="1"/>
        <pt x="276" y="706" on="1"/>
        <pt x="276" y="159" on="1"/>
      </contour>
    </TTGlyph>
    <TTGlyph name="arrowleft" xMin="93" yMin="6" xMax="793" yMax="652">
      <contour>
        <pt x="358" y="455" on="1"/>
        <pt x="332" y="427" on="0"/>
        <pt x="298" y="398" on="0"/>
        <pt x="273" y="382" on="1"/>
        <pt x="793" y="382" on="1"/>
        <pt x="793" y="276" on="1"/>
        <pt x="272" y="276" on="1"/>
        <pt x="312" y="252" on="0"/>
        <pt x="358" y="203" on="1"/>
        <pt x="470" y="81" on="1"/>
        <pt x="383" y="6" on="1"/>
        <pt x="93" y="329" on="1"/>
        <pt x="383" y="652" on="1"/>
        <pt x="470" y="577" on="1"/>
      </contour>
    </TTGlyph>
    <TTGlyph name="arrowleftwhite" xMin="40" yMin="13" xMax="920" yMax="613">
      <contour>
        <pt x="920" y="217" on="0"/>
        <pt x="893" y="189" on="0"/>
        <pt x="870" y="189" on="1"/>
        <pt x="338" y="189" on="1"/>
        <pt x="338" y="13" on="1"/>
        <pt x="40" y="313" on="1"/>
        <pt x="338" y="613" on="1"/>
        <pt x="338" y="437" on="1"/>
        <pt x="870" y="437" on="1"/>
        <pt x="893" y="437" on="0"/>
        <pt x="920" y="410" on="0"/>
        <pt x="920" y="387" on="1"/>
        <pt x="920" y="239" on="1"/>
      </contour>
      <contour>
        <pt x="293" y="504" on="1"/>
        <pt x="104" y="313" on="1"/>
        <pt x="293" y="122" on="1"/>
        <pt x="293" y="233" on="1"/>
        <pt x="876" y="233" on="1"/>
        <pt x="876" y="393" on="1"/>
        <pt x="293" y="393" on="1"/>
      </contour>
    </TTGlyph>
    <TTGlyph name="arrowright" xMin="107" yMin="6" xMax="807" yMax="652">
      <component glyphName="arrowleft" x="900" y="0" scalex="-1.0" scaley="1.0" flags="0x0"/>
    </TTGlyph>
    <TTGlyph name="arrowrightwhite" xMin="40" yMin="13" xMax="920" yMax="613">
      <component glyphName="arrowleftwhite" x="960" y="0" scalex="-1.0" scaley="1.0" flags="0x0"/>
    </TTGlyph>
    <TTGlyph name="arrowup" xMin="122" yMin="0" xMax="778" yMax="689">
      <component glyphName="arrowdown" x="900" y="645" scale="-1.0" flags="0x0"/>
    </TTGlyph>
    <TTGlyph name="arrowupdn" xMin="122" yMin="-207" xMax="778" yMax="880">
      <contour>
        <pt x="705" y="507" on="1"/>
        <pt x="579" y="622" on="1"/>
        <pt x="553" y="645" on="0"/>
        <pt x="523" y="682" on="0"/>
        <pt x="510" y="708" on="1"/>
        <pt x="510" y="-36" on="1"/>
        <pt x="523" y="-10" on="0"/>
        <pt x="553" y="28" on="0"/>
        <pt x="579" y="50" on="1"/>
        <pt x="705" y="166" on="1"/>
        <pt x="778" y="88" on="1"/>
        <pt x="450" y="-207" on="1"/>
        <pt x="122" y="88" on="1"/>
        <pt x="195" y="166" on="1"/>
        <pt x="321" y="50" on="1"/>
        <pt x="347" y="28" on="0"/>
        <pt x="377" y="-10" on="0"/>
        <pt x="390" y="-36" on="1"/>
        <pt x="390" y="708" on="1"/>
        <pt x="377" y="682" on="0"/>
        <pt x="347" y="645" on="0"/>
        <pt x="321" y="622" on="1"/>
        <pt x="195" y="507" on="1"/>
        <pt x="122" y="585" on="1"/>
        <pt x="450" y="880" on="1"/>
        <pt x="778" y="585" on="1"/>
      </contour>
    </TTGlyph>
    <TTGlyph name="arrowupwhite" xMin="60" yMin="-12" xMax="660" yMax="832">
      <contour>
        <pt x="257" y="-12" on="0"/>
        <pt x="229" y="16" on="0"/>
        <pt x="229" y="38" on="1"/>
        <pt x="229" y="534" on="1"/>
        <pt x="60" y="534" on="1"/>
        <pt x="360" y="832" on="1"/>
        <pt x="660" y="534" on="1"/>
        <pt x="491" y="534" on="1"/>
        <pt x="491" y="38" on="1"/>
        <pt x="491" y="16" on="0"/>
        <pt x="464" y="-12" on="0"/>
        <pt x="441" y="-12" on="1"/>
        <pt x="279" y="-12" on="1"/>
      </contour>
      <contour>
        <pt x="551" y="579" on="1"/>
        <pt x="360" y="768" on="1"/>
        <pt x="169" y="579" on="1"/>
        <pt x="276" y="579" on="1"/>
        <pt x="276" y="32" on="1"/>
        <pt x="444" y="32" on="1"/>
        <pt x="444" y="579" on="1"/>
      </contour>
    </TTGlyph>
    <TTGlyph name="asciicircum" xMin="28" yMin="527" xMax="522" yMax="842">
      <contour>
        <pt x="393" y="527" on="1"/>
        <pt x="274" y="741" on="1"/>
        <pt x="158" y="527" on="1"/>
        <pt x="28" y="527" on="1"/>
        <pt x="217" y="842" on="1"/>
        <pt x="333" y="842" on="1"/>
        <pt x="522" y="527" on="1"/>
      </contour>
    </TTGlyph>
    <TTGlyph name="asciitilde" xMin="25" yMin="240" xMax="477" yMax="399">
      <contour>
        <pt x="207" y="399" on="0"/>
        <pt x="252" y="379" on="0"/>
        <pt x="280" y="361" on="1"/>
        <pt x="301" y="349" on="0"/>
        <pt x="323" y="338" on="0"/>
        <pt x="336" y="338" on="1"/>
        <pt x="359" y="338" on="0"/>
        <pt x="388" y="363" on="0"/>
        <pt x="402" y="389" on="1"/>
        <pt x="477" y="349" on="1"/>
        <pt x="423" y="240" on="0"/>
        <pt x="330" y="240" on="1"/>
        <pt x="297" y="240" on="0"/>
        <pt x="248" y="261" on="0"/>
        <pt x="222" y="279" on="1"/>
        <pt x="202" y="291" on="0"/>
        <pt x="181" y="302" on="0"/>
        <pt x="168" y="301" on="1"/>
        <pt x="144" y="301" on="0"/>
        <pt x="115" y="273" on="0"/>
        <pt x="100" y="246" on="1"/>
        <pt x="25" y="285" on="1"/>
        <pt x="82" y="398" on="0"/>
        <pt x="175" y="398" on="1"/>
      </contour>
    </TTGlyph>
    <TTGlyph name="asciitilde.osf" xMin="25" yMin="240" xMax="477" yMax="398">
      <component glyphName="asciitilde" x="0" y="0" flags="0x0"/>
    </TTGlyph>
    <TTGlyph name="asciitilde.tf" xMin="54" yMin="240" xMax="506" yMax="398">
      <component glyphName="asciitilde" x="28" y="0" flags="0x0"/>
    </TTGlyph>
    <TTGlyph name="asciitilde.tosf" xMin="54" yMin="240" xMax="506" yMax="398">
      <component glyphName="asciitilde" x="28" y="0" flags="0x0"/>
    </TTGlyph>
    <TTGlyph name="asterisk" xMin="13" yMin="343" xMax="431" yMax="741">
      <contour>
        <pt x="387" y="411" on="1"/>
        <pt x="294" y="343" on="1"/>
        <pt x="222" y="473" on="1"/>
        <pt x="151" y="343" on="1"/>
        <pt x="58" y="410" on="1"/>
        <pt x="159" y="519" on="1"/>
        <pt x="13" y="547" on="1"/>
        <pt x="48" y="653" on="1"/>
        <pt x="183" y="591" on="1"/>
        <pt x="164" y="741" on="1"/>
        <pt x="280" y="741" on="1"/>
        <pt x="261" y="590" on="1"/>
        <pt x="395" y="654" on="1"/>
        <pt x="431" y="547" on="1"/>
        <pt x="285" y="519" on="1"/>
      </contour>
    </TTGlyph>
    <TTGlyph name="at" xMin="58" yMin="-218" xMax="962" yMax="706">
      <contour>
        <pt x="662" y="706" on="0"/>
        <pt x="859" y="598" on="0"/>
        <pt x="962" y="418" on="0"/>
        <pt x="962" y="312" on="1"/>
        <pt x="962" y="225" on="0"/>
        <pt x="913" y="86" on="0"/>
        <pt x="818" y="6" on="0"/>
        <pt x="753" y="6" on="1"/>
        <pt x="697" y="6" on="0"/>
        <pt x="632" y="68" on="0"/>
        <pt x="622" y="109" on="1"/>
        <pt x="603" y="64" on="0"/>
        <pt x="532" y="9" on="0"/>
        <pt x="479" y="9" on="1"/>
        <pt x="393" y="9" on="0"/>
        <pt x="301" y="131" on="0"/>
        <pt x="301" y="232" on="1"/>
        <pt x="301" y="357" on="0"/>
        <pt x="422" y="498" on="0"/>
        <pt x="527" y="498" on="1"/>
        <pt x="613" y="498" on="0"/>
        <pt x="693" y="455" on="1"/>
        <pt x="693" y="203" on="1"/>
        <pt x="693" y="141" on="0"/>
        <pt x="720" y="92" on="0"/>
        <pt x="749" y="92" on="1"/>
        <pt x="794" y="92" on="0"/>
        <pt x="842" y="195" on="0"/>
        <pt x="842" y="310" on="1"/>
        <pt x="842" y="451" on="0"/>
        <pt x="682" y="609" on="0"/>
        <pt x="526" y="609" on="1"/>
        <pt x="418" y="609" on="0"/>
        <pt x="261" y="515" on="0"/>
        <pt x="178" y="348" on="0"/>
        <pt x="178" y="241" on="1"/>
        <pt x="178" y="132" on="0"/>
        <pt x="259" y="-31" on="0"/>
        <pt x="416" y="-120" on="0"/>
        <pt x="527" y="-120" on="1"/>
        <pt x="623" y="-120" on="0"/>
        <pt x="721" y="-85" on="1"/>
        <pt x="753" y="-177" on="1"/>
        <pt x="644" y="-218" on="0"/>
        <pt x="526" y="-218" on="1"/>
        <pt x="386" y="-218" on="0"/>
        <pt x="174" y="-105" on="0"/>
        <pt x="58" y="103" on="0"/>
        <pt x="58" y="241" on="1"/>
        <pt x="58" y="373" on="0"/>
        <pt x="177" y="585" on="0"/>
        <pt x="391" y="706" on="0"/>
        <pt x="526" y="706" on="1"/>
      </contour>
      <contour>
        <pt x="554" y="94" on="0"/>
        <pt x="582" y="160" on="1"/>
        <pt x="582" y="401" on="1"/>
        <pt x="555" y="413" on="0"/>
        <pt x="525" y="413" on="1"/>
        <pt x="473" y="413" on="0"/>
        <pt x="419" y="326" on="0"/>
        <pt x="419" y="232" on="1"/>
        <pt x="419" y="161" on="0"/>
        <pt x="456" y="94" on="0"/>
        <pt x="495" y="94" on="1"/>
      </contour>
    </TTGlyph>
    <TTGlyph name="atilde" xMin="35" yMin="-15" xMax="508" yMax="784">
      <component glyphName="a" x="0" y="0" flags="0x0"/>
      <component glyphName="tilde" x="58" y="0" flags="0x0"/>
    </TTGlyph>
    <TTGlyph name="atilde.sc" xMin="-5" yMin="0" xMax="517" yMax="814">
      <component glyphName="a.sc" x="0" y="0" flags="0x0"/>
      <component glyphName="tilde.sc" x="48" y="0" flags="0x0"/>
    </TTGlyph>
    <TTGlyph name="b" xMin="77" yMin="-15" xMax="547" yMax="755">
      <contour>
        <pt x="443" y="544" on="0"/>
        <pt x="547" y="398" on="0"/>
        <pt x="547" y="265" on="1"/>
        <pt x="547" y="183" on="0"/>
        <pt x="496" y="56" on="0"/>
        <pt x="402" y="-15" on="0"/>
        <pt x="338" y="-15" on="1"/>
        <pt x="295" y="-15" on="0"/>
        <pt x="224" y="21" on="0"/>
        <pt x="198" y="54" on="1"/>
        <pt x="190" y="0" on="1"/>
        <pt x="77" y="0" on="1"/>
        <pt x="77" y="741" on="1"/>
        <pt x="205" y="755" on="1"/>
        <pt x="205" y="470" on="1"/>
        <pt x="231" y="505" on="0"/>
        <pt x="305" y="544" on="0"/>
        <pt x="349" y="544" on="1"/>
      </contour>
      <contour>
        <pt x="355" y="81" on="0"/>
        <pt x="413" y="170" on="0"/>
        <pt x="413" y="265" on="1"/>
        <pt x="413" y="365" on="0"/>
        <pt x="359" y="448" on="0"/>
        <pt x="310" y="448" on="1"/>
        <pt x="249" y="448" on="0"/>
        <pt x="205" y="376" on="1"/>
        <pt x="205" y="142" on="1"/>
        <pt x="224" y="113" on="0"/>
        <pt x="274" y="81" on="0"/>
        <pt x="304" y="81" on="1"/>
      </contour>
    </TTGlyph>
    <TTGlyph name="b.sc" xMin="81" yMin="0" xMax="523" yMax="567">
      <contour>
        <pt x="523" y="275" on="0"/>
        <pt x="523" y="165" on="1"/>
        <pt x="523" y="75" on="0"/>
        <pt x="389" y="0" on="0"/>
        <pt x="268" y="0" on="1"/>
        <pt x="81" y="0" on="1"/>
        <pt x="81" y="567" on="1"/>
        <pt x="244" y="567" on="1"/>
        <pt x="367" y="567" on="0"/>
        <pt x="497" y="498" on="0"/>
        <pt x="497" y="421" on="1"/>
        <pt x="497" y="372" on="0"/>
        <pt x="434" y="311" on="0"/>
        <pt x="388" y="300" on="1"/>
      </contour>
      <contour>
        <pt x="208" y="339" on="1"/>
        <pt x="270" y="339" on="1"/>
        <pt x="316" y="339" on="0"/>
        <pt x="368" y="374" on="0"/>
        <pt x="368" y="410" on="1"/>
        <pt x="368" y="446" on="0"/>
        <pt x="313" y="476" on="0"/>
        <pt x="256" y="476" on="1"/>
        <pt x="208" y="476" on="1"/>
      </contour>
      <contour>
        <pt x="328" y="93" on="0"/>
        <pt x="390" y="126" on="0"/>
        <pt x="390" y="171" on="1"/>
        <pt x="390" y="214" on="0"/>
        <pt x="330" y="254" on="0"/>
        <pt x="279" y="254" on="1"/>
        <pt x="208" y="254" on="1"/>
        <pt x="208" y="93" on="1"/>
        <pt x="269" y="93" on="1"/>
      </contour>
    </TTGlyph>
    <TTGlyph name="backslash" xMin="88" yMin="-108" xMax="432" yMax="812">
      <contour>
        <pt x="321" y="-108" on="1"/>
        <pt x="88" y="787" on="1"/>
        <pt x="198" y="812" on="1"/>
        <pt x="432" y="-82" on="1"/>
      </contour>
    </TTGlyph>
    <TTGlyph name="bar" xMin="135" yMin="-104" xMax="253" yMax="809">
      <contour>
        <pt x="135" y="-104" on="1"/>
        <pt x="135" y="809" on="1"/>
        <pt x="253" y="809" on="1"/>
        <pt x="253" y="-104" on="1"/>
      </contour>
    </TTGlyph>
    <TTGlyph name="beta" xMin="77" yMin="-218" xMax="570" yMax="755">
      <contour>
        <pt x="570" y="383" on="0"/>
        <pt x="570" y="205" on="1"/>
        <pt x="570" y="140" on="0"/>
        <pt x="511" y="40" on="0"/>
        <pt x="407" y="-15" on="0"/>
        <pt x="343" y="-15" on="1"/>
        <pt x="268" y="-15" on="0"/>
        <pt x="202" y="33" on="1"/>
        <pt x="202" y="-201" on="1"/>
        <pt x="77" y="-218" on="1"/>
        <pt x="77" y="544" on="1"/>
        <pt x="77" y="642" on="0"/>
        <pt x="197" y="755" on="0"/>
        <pt x="297" y="755" on="1"/>
        <pt x="360" y="755" on="0"/>
        <pt x="460" y="709" on="0"/>
        <pt x="515" y="627" on="0"/>
        <pt x="515" y="573" on="1"/>
        <pt x="515" y="502" on="0"/>
        <pt x="439" y="417" on="0"/>
        <pt x="372" y="405" on="1"/>
      </contour>
      <contour>
        <pt x="370" y="85" on="0"/>
        <pt x="441" y="150" on="0"/>
        <pt x="441" y="213" on="1"/>
        <pt x="441" y="284" on="0"/>
        <pt x="363" y="353" on="0"/>
        <pt x="292" y="353" on="1"/>
        <pt x="247" y="353" on="1"/>
        <pt x="257" y="443" on="1"/>
        <pt x="293" y="443" on="1"/>
        <pt x="338" y="443" on="0"/>
        <pt x="392" y="502" on="0"/>
        <pt x="392" y="559" on="1"/>
        <pt x="392" y="610" on="0"/>
        <pt x="341" y="661" on="0"/>
        <pt x="297" y="661" on="1"/>
        <pt x="202" y="661" on="0"/>
        <pt x="202" y="544" on="1"/>
        <pt x="202" y="118" on="1"/>
        <pt x="225" y="101" on="0"/>
        <pt x="280" y="85" on="0"/>
        <pt x="318" y="85" on="1"/>
      </contour>
    </TTGlyph>
    <TTGlyph name="beta.sc" xMin="81" yMin="0" xMax="523" yMax="567">
      <component glyphName="b.sc" x="0" y="0" flags="0x0"/>
    </TTGlyph>
    <TTGlyph name="braceleft" xMin="17" yMin="-138" xMax="288" yMax="838">
      <contour>
        <pt x="241" y="746" on="0"/>
        <pt x="204" y="717" on="0"/>
        <pt x="204" y="682" on="1"/>
        <pt x="204" y="472" on="1"/>
        <pt x="204" y="414" on="0"/>
        <pt x="160" y="362" on="0"/>
        <pt x="113" y="349" on="1"/>
        <pt x="160" y="337" on="0"/>
        <pt x="204" y="285" on="0"/>
        <pt x="204" y="228" on="1"/>
        <pt x="204" y="18" on="1"/>
        <pt x="204" y="-17" on="0"/>
        <pt x="242" y="-46" on="0"/>
        <pt x="288" y="-46" on="1"/>
        <pt x="288" y="-138" on="1"/>
        <pt x="210" y="-138" on="0"/>
        <pt x="121" y="-104" on="0"/>
        <pt x="84" y="-36" on="0"/>
        <pt x="84" y="19" on="1"/>
        <pt x="84" y="218" on="1"/>
        <pt x="84" y="262" on="0"/>
        <pt x="55" y="297" on="0"/>
        <pt x="17" y="297" on="1"/>
        <pt x="17" y="402" on="1"/>
        <pt x="55" y="402" on="0"/>
        <pt x="84" y="438" on="0"/>
        <pt x="84" y="482" on="1"/>
        <pt x="84" y="681" on="1"/>
        <pt x="84" y="737" on="0"/>
        <pt x="121" y="805" on="0"/>
        <pt x="209" y="838" on="0"/>
        <pt x="288" y="838" on="1"/>
        <pt x="288" y="746" on="1"/>
      </contour>
    </TTGlyph>
    <TTGlyph name="braceleft.case" xMin="17" yMin="-148" xMax="288" yMax="828">
      <component glyphName="braceleft" x="0" y="-10" flags="0x0"/>
    </TTGlyph>
    <TTGlyph name="braceright" xMin="35" yMin="-138" xMax="307" yMax="838">
      <contour>
        <pt x="114" y="838" on="0"/>
        <pt x="202" y="805" on="0"/>
        <pt x="239" y="737" on="0"/>
        <pt x="239" y="681" on="1"/>
        <pt x="239" y="482" on="1"/>
        <pt x="239" y="438" on="0"/>
        <pt x="268" y="402" on="0"/>
        <pt x="307" y="402" on="1"/>
        <pt x="307" y="297" on="1"/>
        <pt x="268" y="297" on="0"/>
        <pt x="239" y="262" on="0"/>
        <pt x="239" y="218" on="1"/>
        <pt x="239" y="19" on="1"/>
        <pt x="239" y="-36" on="0"/>
        <pt x="202" y="-104" on="0"/>
        <pt x="113" y="-138" on="0"/>
        <pt x="35" y="-138" on="1"/>
        <pt x="35" y="-46" on="1"/>
        <pt x="81" y="-46" on="0"/>
        <pt x="119" y="-17" on="0"/>
        <pt x="119" y="18" on="1"/>
        <pt x="119" y="228" on="1"/>
        <pt x="119" y="285" on="0"/>
        <pt x="163" y="337" on="0"/>
        <pt x="210" y="349" on="1"/>
        <pt x="163" y="362" on="0"/>
        <pt x="119" y="414" on="0"/>
        <pt x="119" y="472" on="1"/>
        <pt x="119" y="682" on="1"/>
        <pt x="119" y="717" on="0"/>
        <pt x="82" y="746" on="0"/>
        <pt x="35" y="746" on="1"/>
        <pt x="35" y="838" on="1"/>
      </contour>
    </TTGlyph>
    <TTGlyph name="braceright.case" xMin="35" yMin="-148" xMax="307" yMax="828">
      <component glyphName="braceright" x="0" y="-10" flags="0x0"/>
    </TTGlyph>
    <TTGlyph name="bracketleft" xMin="48" yMin="-120" xMax="287" yMax="820">
      <contour>
        <pt x="169" y="720" on="1"/>
        <pt x="169" y="-21" on="1"/>
        <pt x="287" y="-21" on="1"/>
        <pt x="287" y="-120" on="1"/>
        <pt x="48" y="-120" on="1"/>
        <pt x="48" y="820" on="1"/>
        <pt x="287" y="820" on="1"/>
        <pt x="287" y="720" on="1"/>
      </contour>
    </TTGlyph>
    <TTGlyph name="bracketleft.case" xMin="48" yMin="-130" xMax="287" yMax="810">
      <component glyphName="bracketleft" x="0" y="-10" flags="0x0"/>
    </TTGlyph>
    <TTGlyph name="bracketright" xMin="36" yMin="-120" xMax="275" yMax="820">
      <contour>
        <pt x="36" y="-120" on="1"/>
        <pt x="36" y="-21" on="1"/>
        <pt x="154" y="-21" on="1"/>
        <pt x="154" y="721" on="1"/>
        <pt x="36" y="721" on="1"/>
        <pt x="36" y="820" on="1"/>
        <pt x="275" y="820" on="1"/>
        <pt x="275" y="-120" on="1"/>
      </contour>
    </TTGlyph>
    <TTGlyph name="bracketright.case" xMin="36" yMin="-130" xMax="275" yMax="810">
      <component glyphName="bracketright" x="0" y="-10" flags="0x0"/>
    </TTGlyph>
    <TTGlyph name="breve" xMin="30" yMin="637" xMax="356" yMax="806">
      <contour>
        <pt x="123" y="637" on="0"/>
        <pt x="36" y="723" on="0"/>
        <pt x="30" y="792" on="1"/>
        <pt x="105" y="806" on="1"/>
        <pt x="125" y="729" on="0"/>
        <pt x="192" y="729" on="1"/>
        <pt x="226" y="729" on="0"/>
        <pt x="271" y="769" on="0"/>
        <pt x="280" y="806" on="1"/>
        <pt x="356" y="792" on="1"/>
        <pt x="350" y="723" on="0"/>
        <pt x="261" y="637" on="0"/>
        <pt x="192" y="637" on="1"/>
      </contour>
    </TTGlyph>
    <TTGlyph name="breve.case" xMin="30" yMin="754" xMax="356" yMax="913">
      <contour>
        <pt x="124" y="754" on="0"/>
        <pt x="36" y="836" on="0"/>
        <pt x="30" y="898" on="1"/>
        <pt x="105" y="913" on="1"/>
        <pt x="115" y="882" on="0"/>
        <pt x="159" y="846" on="0"/>
        <pt x="192" y="846" on="1"/>
        <pt x="225" y="846" on="0"/>
        <pt x="271" y="882" on="0"/>
        <pt x="280" y="913" on="1"/>
        <pt x="356" y="898" on="1"/>
        <pt x="350" y="836" on="0"/>
        <pt x="261" y="754" on="0"/>
        <pt x="192" y="754" on="1"/>
      </contour>
    </TTGlyph>
    <TTGlyph name="breve.sc" xMin="30" yMin="667" xMax="356" yMax="836">
      <contour>
        <pt x="123" y="667" on="0"/>
        <pt x="36" y="753" on="0"/>
        <pt x="30" y="822" on="1"/>
        <pt x="106" y="836" on="1"/>
        <pt x="125" y="759" on="0"/>
        <pt x="192" y="759" on="1"/>
        <pt x="226" y="759" on="0"/>
        <pt x="271" y="799" on="0"/>
        <pt x="281" y="836" on="1"/>
        <pt x="356" y="822" on="1"/>
        <pt x="350" y="753" on="0"/>
        <pt x="261" y="667" on="0"/>
        <pt x="192" y="667" on="1"/>
      </contour>
    </TTGlyph>
    <TTGlyph name="brevecombcomb" xMin="39" yMin="628" xMax="365" yMax="787">
      <component glyphName="uni0306" x="0" y="0" flags="0x0"/>
    </TTGlyph>
    <TTGlyph name="brevecy" xMin="30" yMin="637" xMax="356" yMax="789">
      <contour>
        <pt x="122" y="637" on="0"/>
        <pt x="36" y="711" on="0"/>
        <pt x="30" y="774" on="1"/>
        <pt x="105" y="789" on="1"/>
        <pt x="115" y="757" on="0"/>
        <pt x="157" y="729" on="0"/>
        <pt x="192" y="729" on="1"/>
        <pt x="227" y="729" on="0"/>
        <pt x="271" y="758" on="0"/>
        <pt x="280" y="789" on="1"/>
        <pt x="356" y="774" on="1"/>
        <pt x="350" y="711" on="0"/>
        <pt x="262" y="637" on="0"/>
        <pt x="192" y="637" on="1"/>
      </contour>
    </TTGlyph>
    <TTGlyph name="brevecy.case" xMin="30" yMin="763" xMax="356" yMax="915">
      <contour>
        <pt x="123" y="763" on="0"/>
        <pt x="36" y="838" on="0"/>
        <pt x="30" y="901" on="1"/>
        <pt x="106" y="915" on="1"/>
        <pt x="115" y="883" on="0"/>
        <pt x="157" y="855" on="0"/>
        <pt x="192" y="855" on="1"/>
        <pt x="227" y="855" on="0"/>
        <pt x="271" y="883" on="0"/>
        <pt x="281" y="915" on="1"/>
        <pt x="356" y="901" on="1"/>
        <pt x="350" y="838" on="0"/>
        <pt x="262" y="763" on="0"/>
        <pt x="192" y="763" on="1"/>
      </contour>
    </TTGlyph>
    <TTGlyph name="brevecy.sc" xMin="30" yMin="667" xMax="356" yMax="819">
      <contour>
        <pt x="123" y="667" on="0"/>
        <pt x="36" y="742" on="0"/>
        <pt x="30" y="805" on="1"/>
        <pt x="106" y="819" on="1"/>
        <pt x="115" y="787" on="0"/>
        <pt x="157" y="759" on="0"/>
        <pt x="192" y="759" on="1"/>
        <pt x="227" y="759" on="0"/>
        <pt x="271" y="787" on="0"/>
        <pt x="281" y="819" on="1"/>
        <pt x="356" y="805" on="1"/>
        <pt x="350" y="742" on="0"/>
        <pt x="262" y="667" on="0"/>
        <pt x="192" y="667" on="1"/>
      </contour>
    </TTGlyph>
    <TTGlyph name="brokenbar" xMin="135" yMin="-104" xMax="253" yMax="809">
      <contour>
        <pt x="135" y="443" on="1"/>
        <pt x="135" y="809" on="1"/>
        <pt x="253" y="809" on="1"/>
        <pt x="253" y="443" on="1"/>
      </contour>
      <contour>
        <pt x="135" y="-104" on="1"/>
        <pt x="135" y="262" on="1"/>
        <pt x="253" y="262" on="1"/>
        <pt x="253" y="-104" on="1"/>
      </contour>
    </TTGlyph>
    <TTGlyph name="bullet" xMin="42" yMin="215" xMax="294" yMax="468">
      <contour>
        <pt x="222" y="468" on="0"/>
        <pt x="294" y="395" on="0"/>
        <pt x="294" y="341" on="1"/>
        <pt x="294" y="287" on="0"/>
        <pt x="222" y="215" on="0"/>
        <pt x="168" y="215" on="1"/>
        <pt x="114" y="215" on="0"/>
        <pt x="42" y="288" on="0"/>
        <pt x="42" y="342" on="1"/>
        <pt x="42" y="396" on="0"/>
        <pt x="114" y="468" on="0"/>
        <pt x="168" y="468" on="1"/>
      </contour>
    </TTGlyph>
    <TTGlyph name="bulletoperator" xMin="39" yMin="228" xMax="201" yMax="390">
      <component glyphName="periodcentered" x="0" y="0" flags="0x0"/>
    </TTGlyph>
    <TTGlyph name="c" xMin="43" yMin="-15" xMax="462" yMax="544">
      <contour>
        <pt x="342" y="544" on="0"/>
        <pt x="425" y="514" on="0"/>
        <pt x="462" y="482" on="1"/>
        <pt x="404" y="404" on="1"/>
        <pt x="378" y="424" on="0"/>
        <pt x="328" y="443" on="0"/>
        <pt x="298" y="443" on="1"/>
        <pt x="179" y="443" on="0"/>
        <pt x="179" y="262" on="1"/>
        <pt x="179" y="170" on="0"/>
        <pt x="241" y="89" on="0"/>
        <pt x="298" y="89" on="1"/>
        <pt x="327" y="89" on="0"/>
        <pt x="374" y="108" on="0"/>
        <pt x="403" y="130" on="1"/>
        <pt x="462" y="46" on="1"/>
        <pt x="387" y="-15" on="0"/>
        <pt x="291" y="-15" on="1"/>
        <pt x="215" y="-15" on="0"/>
        <pt x="103" y="52" on="0"/>
        <pt x="43" y="176" on="0"/>
        <pt x="43" y="260" on="1"/>
        <pt x="43" y="344" on="0"/>
        <pt x="103" y="473" on="0"/>
        <pt x="215" y="544" on="0"/>
        <pt x="290" y="544" on="1"/>
      </contour>
    </TTGlyph>
    <TTGlyph name="c.sc" xMin="43" yMin="-13" xMax="496" yMax="578">
      <contour>
        <pt x="365" y="578" on="0"/>
        <pt x="449" y="547" on="0"/>
        <pt x="488" y="516" on="1"/>
        <pt x="425" y="442" on="1"/>
        <pt x="373" y="483" on="0"/>
        <pt x="315" y="483" on="1"/>
        <pt x="252" y="483" on="0"/>
        <pt x="176" y="385" on="0"/>
        <pt x="176" y="285" on="1"/>
        <pt x="176" y="184" on="0"/>
        <pt x="252" y="86" on="0"/>
        <pt x="317" y="86" on="1"/>
        <pt x="351" y="86" on="0"/>
        <pt x="403" y="110" on="0"/>
        <pt x="436" y="133" on="1"/>
        <pt x="496" y="59" on="1"/>
        <pt x="463" y="27" on="0"/>
        <pt x="369" y="-13" on="0"/>
        <pt x="310" y="-13" on="1"/>
        <pt x="230" y="-13" on="0"/>
        <pt x="110" y="56" on="0"/>
        <pt x="43" y="190" on="0"/>
        <pt x="43" y="285" on="1"/>
        <pt x="43" y="376" on="0"/>
        <pt x="112" y="509" on="0"/>
        <pt x="232" y="578" on="0"/>
        <pt x="308" y="578" on="1"/>
      </contour>
    </TTGlyph>
    <TTGlyph name="cacute" xMin="43" yMin="-15" xMax="462" yMax="820">
      <component glyphName="c" x="0" y="0" flags="0x0"/>
      <component glyphName="acute" x="119" y="0" flags="0x0"/>
    </TTGlyph>
    <TTGlyph name="cacute.loclPLK" xMin="43" yMin="-15" xMax="462" yMax="795">
      <component glyphName="c" x="0" y="0" flags="0x0"/>
      <component glyphName="acute.loclPLK" x="130" y="0" flags="0x0"/>
    </TTGlyph>
    <TTGlyph name="cacute.sc" xMin="43" yMin="-13" xMax="496" yMax="850">
      <component glyphName="c.sc" x="0" y="0" flags="0x0"/>
      <component glyphName="acute.sc" x="150" y="0" flags="0x0"/>
    </TTGlyph>
    <TTGlyph name="cacute.sc.loclPLK" xMin="43" yMin="-13" xMax="496" yMax="838">
      <component glyphName="c.sc" x="0" y="0" flags="0x0"/>
      <component glyphName="acute.sc.loclPLK" x="154" y="0" flags="0x0"/>
    </TTGlyph>
    <TTGlyph name="capslock" xMin="60" yMin="-12" xMax="660" yMax="832">
      <contour>
        <pt x="60" y="534" on="1"/>
        <pt x="360" y="832" on="1"/>
        <pt x="660" y="534" on="1"/>
        <pt x="491" y="534" on="1"/>
        <pt x="491" y="255" on="1"/>
        <pt x="229" y="255" on="1"/>
        <pt x="229" y="534" on="1"/>
      </contour>
      <contour>
        <pt x="551" y="579" on="1"/>
        <pt x="360" y="768" on="1"/>
        <pt x="169" y="579" on="1"/>
        <pt x="276" y="579" on="1"/>
        <pt x="276" y="297" on="1"/>
        <pt x="444" y="297" on="1"/>
        <pt x="444" y="579" on="1"/>
      </contour>
      <contour>
        <pt x="491" y="16" on="0"/>
        <pt x="464" y="-12" on="0"/>
        <pt x="441" y="-12" on="1"/>
        <pt x="279" y="-12" on="1"/>
        <pt x="257" y="-12" on="0"/>
        <pt x="229" y="16" on="0"/>
        <pt x="229" y="38" on="1"/>
        <pt x="229" y="155" on="1"/>
        <pt x="491" y="155" on="1"/>
        <pt x="491" y="38" on="1"/>
      </contour>
      <contour>
        <pt x="444" y="32" on="1"/>
        <pt x="444" y="113" on="1"/>
        <pt x="276" y="113" on="1"/>
        <pt x="276" y="32" on="1"/>
      </contour>
    </TTGlyph>
    <TTGlyph name="caron" xMin="30" yMin="619" xMax="388" yMax="800">
      <contour>
        <pt x="249" y="619" on="1"/>
        <pt x="169" y="619" on="1"/>
        <pt x="30" y="744" on="1"/>
        <pt x="79" y="800" on="1"/>
        <pt x="209" y="712" on="1"/>
        <pt x="339" y="800" on="1"/>
        <pt x="388" y="744" on="1"/>
      </contour>
    </TTGlyph>
    <TTGlyph name="caron.alt" xMin="69" yMin="490" xMax="184" yMax="703">
      <contour>
        <pt x="138" y="490" on="1"/>
        <pt x="69" y="498" on="1"/>
        <pt x="82" y="703" on="1"/>
        <pt x="184" y="691" on="1"/>
      </contour>
    </TTGlyph>
    <TTGlyph name="caron.case" xMin="30" yMin="752" xMax="388" yMax="928">
      <contour>
        <pt x="249" y="752" on="1"/>
        <pt x="169" y="752" on="1"/>
        <pt x="30" y="872" on="1"/>
        <pt x="79" y="928" on="1"/>
        <pt x="209" y="845" on="1"/>
        <pt x="339" y="928" on="1"/>
        <pt x="388" y="872" on="1"/>
      </contour>
    </TTGlyph>
    <TTGlyph name="caron.sc" xMin="30" yMin="649" xMax="388" yMax="831">
      <contour>
        <pt x="250" y="649" on="1"/>
        <pt x="169" y="649" on="1"/>
        <pt x="30" y="775" on="1"/>
        <pt x="79" y="831" on="1"/>
        <pt x="209" y="742" on="1"/>
        <pt x="340" y="831" on="1"/>
        <pt x="388" y="775" on="1"/>
      </contour>
    </TTGlyph>
    <TTGlyph name="caroncombcomb" xMin="39" yMin="626" xMax="397" yMax="802">
      <component glyphName="uni030C" x="0" y="0" flags="0x0"/>
    </TTGlyph>
    <TTGlyph name="ccaron" xMin="43" yMin="-15" xMax="469" yMax="800">
      <component glyphName="c" x="0" y="0" flags="0x0"/>
      <component glyphName="caron" x="81" y="0" flags="0x0"/>
    </TTGlyph>
    <TTGlyph name="ccaron.sc" xMin="43" yMin="-13" xMax="496" yMax="831">
      <component glyphName="c.sc" x="0" y="0" flags="0x0"/>
      <component glyphName="caron.sc" x="105" y="0" flags="0x0"/>
    </TTGlyph>
    <TTGlyph name="ccedilla" xMin="43" yMin="-252" xMax="462" yMax="544">
      <contour>
        <pt x="397" y="-7" on="0"/>
        <pt x="317" y="-14" on="1"/>
        <pt x="317" y="-51" on="1"/>
        <pt x="367" y="-56" on="0"/>
        <pt x="415" y="-106" on="0"/>
        <pt x="415" y="-144" on="1"/>
        <pt x="415" y="-194" on="0"/>
        <pt x="339" y="-252" on="0"/>
        <pt x="278" y="-252" on="1"/>
        <pt x="247" y="-252" on="0"/>
        <pt x="193" y="-237" on="0"/>
        <pt x="175" y="-225" on="1"/>
        <pt x="206" y="-161" on="1"/>
        <pt x="237" y="-178" on="0"/>
        <pt x="270" y="-178" on="1"/>
        <pt x="318" y="-178" on="0"/>
        <pt x="318" y="-143" on="1"/>
        <pt x="318" y="-124" on="0"/>
        <pt x="275" y="-106" on="0"/>
        <pt x="227" y="-106" on="1"/>
        <pt x="239" y="-10" on="1"/>
        <pt x="147" y="7" on="0"/>
        <pt x="43" y="149" on="0"/>
        <pt x="43" y="260" on="1"/>
        <pt x="43" y="344" on="0"/>
        <pt x="103" y="473" on="0"/>
        <pt x="215" y="544" on="0"/>
        <pt x="290" y="544" on="1"/>
        <pt x="342" y="544" on="0"/>
        <pt x="425" y="514" on="0"/>
        <pt x="462" y="482" on="1"/>
        <pt x="404" y="404" on="1"/>
        <pt x="378" y="424" on="0"/>
        <pt x="328" y="443" on="0"/>
        <pt x="298" y="443" on="1"/>
        <pt x="179" y="443" on="0"/>
        <pt x="179" y="262" on="1"/>
        <pt x="179" y="170" on="0"/>
        <pt x="241" y="89" on="0"/>
        <pt x="298" y="89" on="1"/>
        <pt x="327" y="89" on="0"/>
        <pt x="374" y="108" on="0"/>
        <pt x="403" y="130" on="1"/>
        <pt x="462" y="46" on="1"/>
      </contour>
    </TTGlyph>
    <TTGlyph name="ccedilla.sc" xMin="43" yMin="-253" xMax="496" yMax="578">
      <contour>
        <pt x="383" y="-57" on="0"/>
        <pt x="431" y="-107" on="0"/>
        <pt x="431" y="-145" on="1"/>
        <pt x="431" y="-195" on="0"/>
        <pt x="355" y="-253" on="0"/>
        <pt x="294" y="-253" on="1"/>
        <pt x="263" y="-253" on="0"/>
        <pt x="209" y="-238" on="0"/>
        <pt x="191" y="-225" on="1"/>
        <pt x="222" y="-162" on="1"/>
        <pt x="239" y="-171" on="0"/>
        <pt x="268" y="-179" on="0"/>
        <pt x="286" y="-179" on="1"/>
        <pt x="334" y="-179" on="0"/>
        <pt x="334" y="-144" on="1"/>
        <pt x="334" y="-125" on="0"/>
        <pt x="291" y="-106" on="0"/>
        <pt x="243" y="-106" on="1"/>
        <pt x="255" y="-9" on="1"/>
        <pt x="157" y="8" on="0"/>
        <pt x="43" y="160" on="0"/>
        <pt x="43" y="285" on="1"/>
        <pt x="43" y="376" on="0"/>
        <pt x="112" y="509" on="0"/>
        <pt x="232" y="578" on="0"/>
        <pt x="308" y="578" on="1"/>
        <pt x="365" y="578" on="0"/>
        <pt x="449" y="547" on="0"/>
        <pt x="488" y="516" on="1"/>
        <pt x="425" y="442" on="1"/>
        <pt x="373" y="483" on="0"/>
        <pt x="315" y="483" on="1"/>
        <pt x="252" y="483" on="0"/>
        <pt x="176" y="385" on="0"/>
        <pt x="176" y="285" on="1"/>
        <pt x="176" y="184" on="0"/>
        <pt x="252" y="86" on="0"/>
        <pt x="317" y="86" on="1"/>
        <pt x="351" y="86" on="0"/>
        <pt x="403" y="110" on="0"/>
        <pt x="436" y="133" on="1"/>
        <pt x="496" y="59" on="1"/>
        <pt x="467" y="30" on="0"/>
        <pt x="385" y="-9" on="0"/>
        <pt x="333" y="-13" on="1"/>
        <pt x="333" y="-52" on="1"/>
      </contour>
    </TTGlyph>
    <TTGlyph name="ccircumflex" xMin="43" yMin="-15" xMax="469" yMax="808">
      <component glyphName="c" x="0" y="0" flags="0x0"/>
      <component glyphName="circumflex" x="81" y="0" flags="0x0"/>
    </TTGlyph>
    <TTGlyph name="ccircumflex.sc" xMin="43" yMin="-13" xMax="496" yMax="839">
      <component glyphName="c.sc" x="0" y="0" flags="0x0"/>
      <component glyphName="circumflex.sc" x="105" y="0" flags="0x0"/>
    </TTGlyph>
    <TTGlyph name="cdotaccent" xMin="43" yMin="-15" xMax="462" yMax="797">
      <component glyphName="c" x="0" y="0" flags="0x0"/>
      <component glyphName="dotaccent" x="179" y="0" flags="0x0"/>
    </TTGlyph>
    <TTGlyph name="cdotaccent.sc" xMin="43" yMin="-13" xMax="496" yMax="827">
      <component glyphName="c.sc" x="0" y="0" flags="0x0"/>
      <component glyphName="dotaccent.sc" x="203" y="0" flags="0x0"/>
    </TTGlyph>
    <TTGlyph name="cedilla" xMin="30" yMin="-253" xMax="270" yMax="16">
      <contour>
        <pt x="221" y="-57" on="0"/>
        <pt x="270" y="-106" on="0"/>
        <pt x="270" y="-144" on="1"/>
        <pt x="270" y="-194" on="0"/>
        <pt x="194" y="-253" on="0"/>
        <pt x="133" y="-253" on="1"/>
        <pt x="102" y="-253" on="0"/>
        <pt x="48" y="-238" on="0"/>
        <pt x="30" y="-225" on="1"/>
        <pt x="61" y="-162" on="1"/>
        <pt x="91" y="-178" on="0"/>
        <pt x="124" y="-178" on="1"/>
        <pt x="173" y="-178" on="0"/>
        <pt x="173" y="-144" on="1"/>
        <pt x="173" y="-124" on="0"/>
        <pt x="130" y="-106" on="0"/>
        <pt x="82" y="-106" on="1"/>
        <pt x="97" y="16" on="1"/>
        <pt x="171" y="16" on="1"/>
        <pt x="171" y="-52" on="1"/>
      </contour>
    </TTGlyph>
    <TTGlyph name="cedilla.case" xMin="30" yMin="-253" xMax="270" yMax="16">
      <contour>
        <pt x="221" y="-57" on="0"/>
        <pt x="270" y="-106" on="0"/>
        <pt x="270" y="-144" on="1"/>
        <pt x="270" y="-194" on="0"/>
        <pt x="194" y="-253" on="0"/>
        <pt x="133" y="-253" on="1"/>
        <pt x="102" y="-253" on="0"/>
        <pt x="48" y="-238" on="0"/>
        <pt x="30" y="-225" on="1"/>
        <pt x="61" y="-162" on="1"/>
        <pt x="91" y="-178" on="0"/>
        <pt x="124" y="-178" on="1"/>
        <pt x="173" y="-178" on="0"/>
        <pt x="173" y="-144" on="1"/>
        <pt x="173" y="-124" on="0"/>
        <pt x="130" y="-106" on="0"/>
        <pt x="82" y="-106" on="1"/>
        <pt x="97" y="16" on="1"/>
        <pt x="171" y="16" on="1"/>
        <pt x="171" y="-52" on="1"/>
      </contour>
    </TTGlyph>
    <TTGlyph name="cedilla.sc" xMin="30" yMin="-253" xMax="270" yMax="16">
      <contour>
        <pt x="221" y="-57" on="0"/>
        <pt x="270" y="-106" on="0"/>
        <pt x="270" y="-144" on="1"/>
        <pt x="270" y="-194" on="0"/>
        <pt x="194" y="-253" on="0"/>
        <pt x="133" y="-253" on="1"/>
        <pt x="102" y="-253" on="0"/>
        <pt x="48" y="-238" on="0"/>
        <pt x="30" y="-225" on="1"/>
        <pt x="61" y="-162" on="1"/>
        <pt x="91" y="-178" on="0"/>
        <pt x="124" y="-178" on="1"/>
        <pt x="173" y="-178" on="0"/>
        <pt x="173" y="-144" on="1"/>
        <pt x="173" y="-124" on="0"/>
        <pt x="130" y="-106" on="0"/>
        <pt x="82" y="-106" on="1"/>
        <pt x="97" y="16" on="1"/>
        <pt x="171" y="16" on="1"/>
        <pt x="171" y="-52" on="1"/>
      </contour>
    </TTGlyph>
    <TTGlyph name="cent" xMin="43" yMin="-158" xMax="462" yMax="688">
      <contour>
        <pt x="406" y="0" on="0"/>
        <pt x="338" y="-11" on="1"/>
        <pt x="338" y="-158" on="1"/>
        <pt x="239" y="-158" on="1"/>
        <pt x="239" y="-10" on="1"/>
        <pt x="147" y="6" on="0"/>
        <pt x="43" y="149" on="0"/>
        <pt x="43" y="260" on="1"/>
        <pt x="43" y="373" on="0"/>
        <pt x="149" y="523" on="0"/>
        <pt x="240" y="540" on="1"/>
        <pt x="240" y="688" on="1"/>
        <pt x="338" y="688" on="1"/>
        <pt x="338" y="540" on="1"/>
        <pt x="407" y="530" on="0"/>
        <pt x="462" y="482" on="1"/>
        <pt x="404" y="404" on="1"/>
        <pt x="378" y="424" on="0"/>
        <pt x="328" y="443" on="0"/>
        <pt x="298" y="443" on="1"/>
        <pt x="179" y="443" on="0"/>
        <pt x="179" y="262" on="1"/>
        <pt x="179" y="170" on="0"/>
        <pt x="241" y="89" on="0"/>
        <pt x="298" y="89" on="1"/>
        <pt x="327" y="89" on="0"/>
        <pt x="374" y="108" on="0"/>
        <pt x="403" y="130" on="1"/>
        <pt x="462" y="46" on="1"/>
      </contour>
    </TTGlyph>
    <TTGlyph name="cent.osf" xMin="43" yMin="-158" xMax="462" yMax="688">
      <component glyphName="cent" x="0" y="0" flags="0x0"/>
    </TTGlyph>
    <TTGlyph name="cent.tf" xMin="71" yMin="-158" xMax="490" yMax="688">
      <contour>
        <pt x="434" y="0" on="0"/>
        <pt x="366" y="-11" on="1"/>
        <pt x="366" y="-158" on="1"/>
        <pt x="267" y="-158" on="1"/>
        <pt x="267" y="-10" on="1"/>
        <pt x="175" y="6" on="0"/>
        <pt x="71" y="149" on="0"/>
        <pt x="71" y="260" on="1"/>
        <pt x="71" y="372" on="0"/>
        <pt x="176" y="523" on="0"/>
        <pt x="268" y="540" on="1"/>
        <pt x="268" y="688" on="1"/>
        <pt x="366" y="688" on="1"/>
        <pt x="366" y="540" on="1"/>
        <pt x="432" y="530" on="0"/>
        <pt x="490" y="483" on="1"/>
        <pt x="432" y="404" on="1"/>
        <pt x="406" y="425" on="0"/>
        <pt x="356" y="444" on="0"/>
        <pt x="326" y="444" on="1"/>
        <pt x="269" y="444" on="0"/>
        <pt x="207" y="355" on="0"/>
        <pt x="207" y="262" on="1"/>
        <pt x="207" y="170" on="0"/>
        <pt x="269" y="89" on="0"/>
        <pt x="326" y="89" on="1"/>
        <pt x="355" y="89" on="0"/>
        <pt x="402" y="108" on="0"/>
        <pt x="431" y="130" on="1"/>
        <pt x="490" y="46" on="1"/>
      </contour>
    </TTGlyph>
    <TTGlyph name="cent.tosf" xMin="71" yMin="-158" xMax="490" yMax="688">
      <component glyphName="cent.tf" x="0" y="0" flags="0x0"/>
    </TTGlyph>
    <TTGlyph name="chi" xMin="-14" yMin="-216" xMax="485" yMax="542">
      <contour>
        <pt x="239" y="83" on="1"/>
        <pt x="120" y="-216" on="1"/>
        <pt x="-9" y="-202" on="1"/>
        <pt x="174" y="185" on="1"/>
        <pt x="114" y="315" on="0"/>
        <pt x="34" y="450" on="0"/>
        <pt x="-14" y="501" on="1"/>
        <pt x="111" y="542" on="1"/>
        <pt x="152" y="489" on="0"/>
        <pt x="206" y="385" on="0"/>
        <pt x="242" y="284" on="1"/>
        <pt x="334" y="541" on="1"/>
        <pt x="466" y="527" on="1"/>
        <pt x="307" y="186" on="1"/>
        <pt x="485" y="-197" on="1"/>
        <pt x="356" y="-216" on="1"/>
      </contour>
    </TTGlyph>
    <TTGlyph name="chi.sc" xMin="0" yMin="0" xMax="497" yMax="566">
      <component glyphName="x.sc" x="0" y="0" flags="0x0"/>
    </TTGlyph>
    <TTGlyph name="circumflex" xMin="30" yMin="627" xMax="388" yMax="808">
      <contour>
        <pt x="168" y="808" on="1"/>
        <pt x="249" y="808" on="1"/>
        <pt x="388" y="682" on="1"/>
        <pt x="339" y="627" on="1"/>
        <pt x="209" y="715" on="1"/>
        <pt x="79" y="627" on="1"/>
        <pt x="30" y="682" on="1"/>
      </contour>
    </TTGlyph>
    <TTGlyph name="circumflex.case" xMin="30" yMin="757" xMax="388" yMax="933">
      <contour>
        <pt x="79" y="757" on="1"/>
        <pt x="30" y="812" on="1"/>
        <pt x="169" y="933" on="1"/>
        <pt x="249" y="933" on="1"/>
        <pt x="388" y="812" on="1"/>
        <pt x="339" y="757" on="1"/>
        <pt x="209" y="839" on="1"/>
      </contour>
    </TTGlyph>
    <TTGlyph name="circumflex.sc" xMin="30" yMin="657" xMax="388" yMax="839">
      <contour>
        <pt x="169" y="839" on="1"/>
        <pt x="249" y="839" on="1"/>
        <pt x="388" y="713" on="1"/>
        <pt x="339" y="657" on="1"/>
        <pt x="209" y="745" on="1"/>
        <pt x="79" y="657" on="1"/>
        <pt x="30" y="713" on="1"/>
      </contour>
    </TTGlyph>
    <TTGlyph name="circumflexcombcomb" xMin="39" yMin="631" xMax="397" yMax="807">
      <component glyphName="uni0302" x="0" y="0" flags="0x0"/>
    </TTGlyph>
    <TTGlyph name="clear" xMin="100" yMin="-12" xMax="1140" yMax="713">
      <contour>
        <pt x="128" y="-12" on="0"/>
        <pt x="100" y="16" on="0"/>
        <pt x="100" y="38" on="1"/>
        <pt x="100" y="663" on="1"/>
        <pt x="100" y="686" on="0"/>
        <pt x="128" y="713" on="0"/>
        <pt x="150" y="713" on="1"/>
        <pt x="1090" y="713" on="1"/>
        <pt x="1113" y="713" on="0"/>
        <pt x="1140" y="686" on="0"/>
        <pt x="1140" y="663" on="1"/>
        <pt x="1140" y="38" on="1"/>
        <pt x="1140" y="16" on="0"/>
        <pt x="1113" y="-12" on="0"/>
        <pt x="1090" y="-12" on="1"/>
        <pt x="150" y="-12" on="1"/>
      </contour>
      <contour>
        <pt x="620" y="288" on="1"/>
        <pt x="774" y="134" on="1"/>
        <pt x="841" y="201" on="1"/>
        <pt x="687" y="355" on="1"/>
        <pt x="841" y="508" on="1"/>
        <pt x="774" y="577" on="1"/>
        <pt x="620" y="422" on="1"/>
        <pt x="466" y="577" on="1"/>
        <pt x="399" y="508" on="1"/>
        <pt x="553" y="355" on="1"/>
        <pt x="399" y="201" on="1"/>
        <pt x="466" y="134" on="1"/>
      </contour>
    </TTGlyph>
    <TTGlyph name="colon" xMin="39" yMin="-15" xMax="201" yMax="503">
      <component glyphName="period" x="0" y="0" flags="0x0"/>
      <component glyphName="period" x="0" y="355" flags="0x0"/>
    </TTGlyph>
    <TTGlyph name="comma" xMin="32" yMin="-172" xMax="201" yMax="147">
      <contour>
        <pt x="154" y="147" on="0"/>
        <pt x="201" y="101" on="0"/>
        <pt x="201" y="66" on="1"/>
        <pt x="201" y="47" on="0"/>
        <pt x="189" y="7" on="0"/>
        <pt x="175" y="-24" on="1"/>
        <pt x="110" y="-172" on="1"/>
        <pt x="32" y="-172" on="1"/>
        <pt x="73" y="0" on="1"/>
        <pt x="39" y="23" on="0"/>
        <pt x="39" y="67" on="1"/>
        <pt x="39" y="101" on="0"/>
        <pt x="85" y="147" on="0"/>
        <pt x="119" y="147" on="1"/>
      </contour>
    </TTGlyph>
    <TTGlyph name="copyright" xMin="78" yMin="109" xMax="732" yMax="758">
      <contour>
        <pt x="495" y="758" on="0"/>
        <pt x="645" y="671" on="0"/>
        <pt x="732" y="522" on="0"/>
        <pt x="732" y="433" on="1"/>
        <pt x="732" y="344" on="0"/>
        <pt x="645" y="196" on="0"/>
        <pt x="495" y="109" on="0"/>
        <pt x="406" y="109" on="1"/>
        <pt x="317" y="109" on="0"/>
        <pt x="166" y="196" on="0"/>
        <pt x="78" y="345" on="0"/>
        <pt x="78" y="433" on="1"/>
        <pt x="78" y="522" on="0"/>
        <pt x="166" y="671" on="0"/>
        <pt x="317" y="758" on="0"/>
        <pt x="406" y="758" on="1"/>
      </contour>
      <contour>
        <pt x="336" y="691" on="0"/>
        <pt x="221" y="622" on="0"/>
        <pt x="156" y="504" on="0"/>
        <pt x="156" y="433" on="1"/>
        <pt x="156" y="362" on="0"/>
        <pt x="221" y="245" on="0"/>
        <pt x="336" y="177" on="0"/>
        <pt x="406" y="177" on="1"/>
        <pt x="476" y="177" on="0"/>
        <pt x="590" y="245" on="0"/>
        <pt x="655" y="362" on="0"/>
        <pt x="655" y="433" on="1"/>
        <pt x="655" y="504" on="0"/>
        <pt x="590" y="622" on="0"/>
        <pt x="476" y="691" on="0"/>
        <pt x="406" y="691" on="1"/>
      </contour>
      <contour>
        <pt x="478" y="628" on="0"/>
        <pt x="532" y="582" on="1"/>
        <pt x="489" y="526" on="1"/>
        <pt x="471" y="541" on="0"/>
        <pt x="437" y="553" on="0"/>
        <pt x="416" y="553" on="1"/>
        <pt x="379" y="553" on="0"/>
        <pt x="334" y="495" on="0"/>
        <pt x="334" y="434" on="1"/>
        <pt x="334" y="374" on="0"/>
        <pt x="377" y="316" on="0"/>
        <pt x="415" y="316" on="1"/>
        <pt x="439" y="316" on="0"/>
        <pt x="477" y="331" on="0"/>
        <pt x="497" y="347" on="1"/>
        <pt x="536" y="290" on="1"/>
        <pt x="481" y="240" on="0"/>
        <pt x="409" y="240" on="1"/>
        <pt x="331" y="240" on="0"/>
        <pt x="238" y="342" on="0"/>
        <pt x="238" y="434" on="1"/>
        <pt x="238" y="494" on="0"/>
        <pt x="283" y="582" on="0"/>
        <pt x="360" y="628" on="0"/>
        <pt x="408" y="628" on="1"/>
      </contour>
    </TTGlyph>
    <TTGlyph name="currency" xMin="23" yMin="83" xMax="538" yMax="601">
      <contour>
        <pt x="497" y="273" on="0"/>
        <pt x="462" y="221" on="1"/>
        <pt x="538" y="146" on="1"/>
        <pt x="475" y="83" on="1"/>
        <pt x="397" y="159" on="1"/>
        <pt x="346" y="128" on="0"/>
        <pt x="279" y="128" on="1"/>
        <pt x="215" y="128" on="0"/>
        <pt x="164" y="160" on="1"/>
        <pt x="86" y="83" on="1"/>
        <pt x="23" y="146" on="1"/>
        <pt x="100" y="223" on="1"/>
        <pt x="66" y="274" on="0"/>
        <pt x="66" y="341" on="1"/>
        <pt x="66" y="406" on="0"/>
        <pt x="99" y="459" on="1"/>
        <pt x="23" y="538" on="1"/>
        <pt x="86" y="601" on="1"/>
        <pt x="164" y="522" on="1"/>
        <pt x="215" y="554" on="0"/>
        <pt x="279" y="554" on="1"/>
        <pt x="346" y="554" on="0"/>
        <pt x="397" y="523" on="1"/>
        <pt x="475" y="601" on="1"/>
        <pt x="538" y="538" on="1"/>
        <pt x="462" y="461" on="1"/>
        <pt x="497" y="409" on="0"/>
        <pt x="497" y="341" on="1"/>
      </contour>
      <contour>
        <pt x="334" y="219" on="0"/>
        <pt x="389" y="284" on="0"/>
        <pt x="389" y="342" on="1"/>
        <pt x="389" y="400" on="0"/>
        <pt x="334" y="464" on="0"/>
        <pt x="281" y="464" on="1"/>
        <pt x="228" y="464" on="0"/>
        <pt x="172" y="400" on="0"/>
        <pt x="172" y="342" on="1"/>
        <pt x="172" y="283" on="0"/>
        <pt x="228" y="219" on="0"/>
        <pt x="281" y="219" on="1"/>
      </contour>
    </TTGlyph>
    <TTGlyph name="currency.osf" xMin="23" yMin="83" xMax="538" yMax="601">
      <component glyphName="currency" x="0" y="0" flags="0x0"/>
    </TTGlyph>
    <TTGlyph name="currency.tf" xMin="23" yMin="83" xMax="538" yMax="601">
      <component glyphName="currency" x="0" y="0" flags="0x0"/>
    </TTGlyph>
    <TTGlyph name="currency.tosf" xMin="23" yMin="83" xMax="538" yMax="601">
      <component glyphName="currency" x="0" y="0" flags="0x0"/>
    </TTGlyph>
    <TTGlyph name="d" xMin="48" yMin="-15" xMax="522" yMax="755">
      <contour>
        <pt x="522" y="0" on="1"/>
        <pt x="409" y="0" on="1"/>
        <pt x="400" y="67" on="1"/>
        <pt x="375" y="29" on="0"/>
        <pt x="299" y="-15" on="0"/>
        <pt x="249" y="-15" on="1"/>
        <pt x="152" y="-15" on="0"/>
        <pt x="48" y="135" on="0"/>
        <pt x="48" y="264" on="1"/>
        <pt x="48" y="346" on="0"/>
        <pt x="100" y="473" on="0"/>
        <pt x="197" y="544" on="0"/>
        <pt x="263" y="544" on="1"/>
        <pt x="339" y="544" on="0"/>
        <pt x="394" y="487" on="1"/>
        <pt x="394" y="755" on="1"/>
        <pt x="522" y="741" on="1"/>
      </contour>
      <contour>
        <pt x="319" y="82" on="0"/>
        <pt x="371" y="115" on="0"/>
        <pt x="394" y="150" on="1"/>
        <pt x="394" y="392" on="1"/>
        <pt x="372" y="420" on="0"/>
        <pt x="324" y="448" on="0"/>
        <pt x="294" y="448" on="1"/>
        <pt x="242" y="448" on="0"/>
        <pt x="183" y="357" on="0"/>
        <pt x="183" y="265" on="1"/>
        <pt x="183" y="167" on="0"/>
        <pt x="235" y="82" on="0"/>
        <pt x="285" y="82" on="1"/>
      </contour>
    </TTGlyph>
    <TTGlyph name="d.sc" xMin="81" yMin="0" xMax="546" yMax="566">
      <contour>
        <pt x="377" y="566" on="0"/>
        <pt x="546" y="446" on="0"/>
        <pt x="546" y="287" on="1"/>
        <pt x="546" y="130" on="0"/>
        <pt x="380" y="0" on="0"/>
        <pt x="252" y="0" on="1"/>
        <pt x="81" y="0" on="1"/>
        <pt x="81" y="566" on="1"/>
        <pt x="238" y="566" on="1"/>
      </contour>
      <contour>
        <pt x="208" y="93" on="1"/>
        <pt x="261" y="93" on="1"/>
        <pt x="334" y="93" on="0"/>
        <pt x="414" y="178" on="0"/>
        <pt x="414" y="287" on="1"/>
        <pt x="414" y="394" on="0"/>
        <pt x="332" y="473" on="0"/>
        <pt x="257" y="473" on="1"/>
        <pt x="208" y="473" on="1"/>
      </contour>
    </TTGlyph>
    <TTGlyph name="dagger" xMin="33" yMin="0" xMax="487" yMax="673">
      <contour>
        <pt x="487" y="529" on="1"/>
        <pt x="487" y="425" on="1"/>
        <pt x="320" y="425" on="1"/>
        <pt x="320" y="0" on="1"/>
        <pt x="200" y="0" on="1"/>
        <pt x="200" y="425" on="1"/>
        <pt x="33" y="425" on="1"/>
        <pt x="33" y="529" on="1"/>
        <pt x="200" y="529" on="1"/>
        <pt x="200" y="673" on="1"/>
        <pt x="320" y="673" on="1"/>
        <pt x="320" y="529" on="1"/>
      </contour>
    </TTGlyph>
    <TTGlyph name="dagger.osf" xMin="33" yMin="0" xMax="487" yMax="673">
      <component glyphName="dagger" x="0" y="0" flags="0x0"/>
    </TTGlyph>
    <TTGlyph name="dagger.tf" xMin="44" yMin="0" xMax="516" yMax="691">
      <contour>
        <pt x="516" y="548" on="1"/>
        <pt x="516" y="443" on="1"/>
        <pt x="340" y="443" on="1"/>
        <pt x="340" y="0" on="1"/>
        <pt x="220" y="0" on="1"/>
        <pt x="220" y="443" on="1"/>
        <pt x="44" y="443" on="1"/>
        <pt x="44" y="548" on="1"/>
        <pt x="220" y="548" on="1"/>
        <pt x="220" y="691" on="1"/>
        <pt x="340" y="691" on="1"/>
        <pt x="340" y="548" on="1"/>
      </contour>
    </TTGlyph>
    <TTGlyph name="dagger.tosf" xMin="53" yMin="0" xMax="507" yMax="673">
      <component glyphName="dagger" x="19" y="0" flags="0x0"/>
    </TTGlyph>
    <TTGlyph name="daggerdbl" xMin="33" yMin="0" xMax="487" yMax="673">
      <contour>
        <pt x="320" y="256" on="1"/>
        <pt x="487" y="256" on="1"/>
        <pt x="487" y="151" on="1"/>
        <pt x="320" y="151" on="1"/>
        <pt x="320" y="0" on="1"/>
        <pt x="200" y="0" on="1"/>
        <pt x="200" y="151" on="1"/>
        <pt x="33" y="151" on="1"/>
        <pt x="33" y="256" on="1"/>
        <pt x="200" y="256" on="1"/>
        <pt x="200" y="425" on="1"/>
        <pt x="33" y="425" on="1"/>
        <pt x="33" y="529" on="1"/>
        <pt x="200" y="529" on="1"/>
        <pt x="200" y="673" on="1"/>
        <pt x="320" y="673" on="1"/>
        <pt x="320" y="529" on="1"/>
        <pt x="487" y="529" on="1"/>
        <pt x="487" y="425" on="1"/>
        <pt x="320" y="425" on="1"/>
      </contour>
    </TTGlyph>
    <TTGlyph name="daggerdbl.osf" xMin="33" yMin="0" xMax="487" yMax="673">
      <component glyphName="daggerdbl" x="0" y="0" flags="0x0"/>
    </TTGlyph>
    <TTGlyph name="daggerdbl.tf" xMin="44" yMin="0" xMax="516" yMax="691">
      <contour>
        <pt x="340" y="278" on="1"/>
        <pt x="514" y="278" on="1"/>
        <pt x="514" y="173" on="1"/>
        <pt x="340" y="173" on="1"/>
        <pt x="340" y="0" on="1"/>
        <pt x="220" y="0" on="1"/>
        <pt x="220" y="173" on="1"/>
        <pt x="46" y="173" on="1"/>
        <pt x="46" y="278" on="1"/>
        <pt x="220" y="278" on="1"/>
        <pt x="220" y="443" on="1"/>
        <pt x="44" y="443" on="1"/>
        <pt x="44" y="548" on="1"/>
        <pt x="220" y="548" on="1"/>
        <pt x="220" y="691" on="1"/>
        <pt x="340" y="691" on="1"/>
        <pt x="340" y="548" on="1"/>
        <pt x="516" y="548" on="1"/>
        <pt x="516" y="443" on="1"/>
        <pt x="340" y="443" on="1"/>
      </contour>
    </TTGlyph>
    <TTGlyph name="daggerdbl.tosf" xMin="53" yMin="0" xMax="507" yMax="673">
      <component glyphName="daggerdbl" x="19" y="0" flags="0x0"/>
    </TTGlyph>
    <TTGlyph name="dcaron" xMin="48" yMin="-15" xMax="695" yMax="755">
      <component glyphName="d" x="0" y="0" flags="0x0"/>
      <component glyphName="caron.alt" x="510" y="49" flags="0x0"/>
    </TTGlyph>
    <TTGlyph name="dcaron.sc" xMin="81" yMin="0" xMax="546" yMax="831">
      <component glyphName="d.sc" x="0" y="0" flags="0x0"/>
      <component glyphName="caron.sc" x="65" y="0" flags="0x0"/>
    </TTGlyph>
    <TTGlyph name="dcroat" xMin="48" yMin="-15" xMax="592" yMax="755">
      <contour>
        <pt x="592" y="601" on="1"/>
        <pt x="522" y="601" on="1"/>
        <pt x="522" y="0" on="1"/>
        <pt x="409" y="0" on="1"/>
        <pt x="400" y="67" on="1"/>
        <pt x="375" y="29" on="0"/>
        <pt x="299" y="-15" on="0"/>
        <pt x="249" y="-15" on="1"/>
        <pt x="152" y="-15" on="0"/>
        <pt x="48" y="135" on="0"/>
        <pt x="48" y="264" on="1"/>
        <pt x="48" y="346" on="0"/>
        <pt x="100" y="473" on="0"/>
        <pt x="197" y="544" on="0"/>
        <pt x="263" y="544" on="1"/>
        <pt x="339" y="544" on="0"/>
        <pt x="394" y="487" on="1"/>
        <pt x="394" y="601" on="1"/>
        <pt x="254" y="601" on="1"/>
        <pt x="242" y="683" on="1"/>
        <pt x="394" y="683" on="1"/>
        <pt x="394" y="755" on="1"/>
        <pt x="522" y="741" on="1"/>
        <pt x="522" y="683" on="1"/>
        <pt x="592" y="683" on="1"/>
      </contour>
      <contour>
        <pt x="319" y="82" on="0"/>
        <pt x="371" y="115" on="0"/>
        <pt x="394" y="150" on="1"/>
        <pt x="394" y="392" on="1"/>
        <pt x="372" y="420" on="0"/>
        <pt x="324" y="448" on="0"/>
        <pt x="294" y="448" on="1"/>
        <pt x="242" y="448" on="0"/>
        <pt x="183" y="357" on="0"/>
        <pt x="183" y="265" on="1"/>
        <pt x="183" y="167" on="0"/>
        <pt x="235" y="82" on="0"/>
        <pt x="285" y="82" on="1"/>
      </contour>
    </TTGlyph>
    <TTGlyph name="dcroat.sc" xMin="10" yMin="0" xMax="532" yMax="567">
      <component glyphName="eth.sc" x="0" y="0" flags="0x0"/>
    </TTGlyph>
    <TTGlyph name="degree" xMin="47" yMin="375" xMax="390" yMax="706">
      <contour>
        <pt x="175" y="375" on="0"/>
        <pt x="96" y="415" on="0"/>
        <pt x="47" y="491" on="0"/>
        <pt x="47" y="541" on="1"/>
        <pt x="47" y="591" on="0"/>
        <pt x="96" y="666" on="0"/>
        <pt x="174" y="706" on="0"/>
        <pt x="218" y="706" on="1"/>
        <pt x="263" y="706" on="0"/>
        <pt x="342" y="666" on="0"/>
        <pt x="390" y="591" on="0"/>
        <pt x="390" y="540" on="1"/>
        <pt x="390" y="490" on="0"/>
        <pt x="341" y="415" on="0"/>
        <pt x="262" y="375" on="0"/>
        <pt x="218" y="375" on="1"/>
      </contour>
      <contour>
        <pt x="252" y="453" on="0"/>
        <pt x="296" y="499" on="0"/>
        <pt x="296" y="540" on="1"/>
        <pt x="296" y="581" on="0"/>
        <pt x="252" y="628" on="0"/>
        <pt x="218" y="628" on="1"/>
        <pt x="184" y="628" on="0"/>
        <pt x="141" y="582" on="0"/>
        <pt x="141" y="541" on="1"/>
        <pt x="141" y="500" on="0"/>
        <pt x="184" y="453" on="0"/>
        <pt x="218" y="453" on="1"/>
      </contour>
    </TTGlyph>
    <TTGlyph name="degree.osf" xMin="47" yMin="375" xMax="390" yMax="706">
      <component glyphName="degree" x="0" y="0" flags="0x0"/>
    </TTGlyph>
    <TTGlyph name="degree.tf" xMin="67" yMin="395" xMax="410" yMax="726">
      <component glyphName="degree" x="20" y="20" flags="0x0"/>
    </TTGlyph>
    <TTGlyph name="degree.tosf" xMin="67" yMin="375" xMax="410" yMax="706">
      <component glyphName="degree" x="20" y="0" flags="0x0"/>
    </TTGlyph>
    <TTGlyph name="deleterightKey" xMin="100" yMin="-12" xMax="1360" yMax="713">
      <contour>
        <pt x="128" y="-12" on="0"/>
        <pt x="100" y="16" on="0"/>
        <pt x="100" y="38" on="1"/>
        <pt x="100" y="663" on="1"/>
        <pt x="100" y="686" on="0"/>
        <pt x="128" y="713" on="0"/>
        <pt x="150" y="713" on="1"/>
        <pt x="980" y="713" on="1"/>
        <pt x="1360" y="352" on="1"/>
        <pt x="980" y="-12" on="1"/>
        <pt x="150" y="-12" on="1"/>
      </contour>
      <contour>
        <pt x="570" y="288" on="1"/>
        <pt x="724" y="134" on="1"/>
        <pt x="791" y="201" on="1"/>
        <pt x="637" y="355" on="1"/>
        <pt x="791" y="508" on="1"/>
        <pt x="724" y="577" on="1"/>
        <pt x="570" y="422" on="1"/>
        <pt x="416" y="577" on="1"/>
        <pt x="349" y="508" on="1"/>
        <pt x="503" y="355" on="1"/>
        <pt x="349" y="201" on="1"/>
        <pt x="416" y="134" on="1"/>
      </contour>
    </TTGlyph>
    <TTGlyph name="delta" xMin="43" yMin="-15" xMax="535" yMax="755">
      <contour>
        <pt x="439" y="467" on="0"/>
        <pt x="535" y="348" on="0"/>
        <pt x="535" y="246" on="1"/>
        <pt x="535" y="171" on="0"/>
        <pt x="475" y="53" on="0"/>
        <pt x="364" y="-15" on="0"/>
        <pt x="289" y="-15" on="1"/>
        <pt x="176" y="-15" on="0"/>
        <pt x="43" y="122" on="0"/>
        <pt x="43" y="241" on="1"/>
        <pt x="43" y="392" on="0"/>
        <pt x="195" y="466" on="1"/>
        <pt x="140" y="496" on="0"/>
        <pt x="98" y="563" on="0"/>
        <pt x="98" y="609" on="1"/>
        <pt x="98" y="648" on="0"/>
        <pt x="142" y="715" on="0"/>
        <pt x="231" y="755" on="0"/>
        <pt x="295" y="755" on="1"/>
        <pt x="402" y="755" on="0"/>
        <pt x="480" y="697" on="1"/>
        <pt x="419" y="625" on="1"/>
        <pt x="391" y="644" on="0"/>
        <pt x="338" y="662" on="0"/>
        <pt x="306" y="662" on="1"/>
        <pt x="264" y="662" on="0"/>
        <pt x="224" y="630" on="0"/>
        <pt x="224" y="604" on="1"/>
        <pt x="224" y="584" on="0"/>
        <pt x="241" y="557" on="0"/>
        <pt x="286" y="530" on="0"/>
        <pt x="333" y="511" on="1"/>
      </contour>
      <contour>
        <pt x="343" y="82" on="0"/>
        <pt x="400" y="164" on="0"/>
        <pt x="400" y="246" on="1"/>
        <pt x="400" y="298" on="0"/>
        <pt x="377" y="363" on="0"/>
        <pt x="321" y="410" on="0"/>
        <pt x="266" y="434" on="1"/>
        <pt x="220" y="401" on="0"/>
        <pt x="177" y="311" on="0"/>
        <pt x="177" y="244" on="1"/>
        <pt x="177" y="82" on="0"/>
        <pt x="288" y="82" on="1"/>
      </contour>
    </TTGlyph>
    <TTGlyph name="delta.sc" xMin="-5" yMin="0" xMax="526" yMax="568">
      <contour>
        <pt x="-5" y="0" on="1"/>
        <pt x="183" y="568" on="1"/>
        <pt x="338" y="568" on="1"/>
        <pt x="526" y="0" on="1"/>
      </contour>
      <contour>
        <pt x="367" y="95" on="1"/>
        <pt x="259" y="473" on="1"/>
        <pt x="150" y="95" on="1"/>
      </contour>
    </TTGlyph>
    <TTGlyph name="dieresis" xMin="31" yMin="647" xMax="393" yMax="785">
      <contour>
        <pt x="131" y="785" on="0"/>
        <pt x="171" y="745" on="0"/>
        <pt x="171" y="716" on="1"/>
        <pt x="171" y="687" on="0"/>
        <pt x="131" y="647" on="0"/>
        <pt x="101" y="647" on="1"/>
        <pt x="72" y="647" on="0"/>
        <pt x="31" y="687" on="0"/>
        <pt x="31" y="716" on="1"/>
        <pt x="31" y="745" on="0"/>
        <pt x="72" y="785" on="0"/>
        <pt x="101" y="785" on="1"/>
      </contour>
      <contour>
        <pt x="353" y="785" on="0"/>
        <pt x="393" y="745" on="0"/>
        <pt x="393" y="716" on="1"/>
        <pt x="393" y="687" on="0"/>
        <pt x="353" y="647" on="0"/>
        <pt x="322" y="647" on="1"/>
        <pt x="293" y="647" on="0"/>
        <pt x="253" y="687" on="0"/>
        <pt x="253" y="716" on="1"/>
        <pt x="253" y="745" on="0"/>
        <pt x="293" y="785" on="0"/>
        <pt x="322" y="785" on="1"/>
      </contour>
    </TTGlyph>
    <TTGlyph name="dieresis.case" xMin="31" yMin="773" xMax="393" yMax="911">
      <contour>
        <pt x="131" y="911" on="0"/>
        <pt x="171" y="871" on="0"/>
        <pt x="171" y="842" on="1"/>
        <pt x="171" y="813" on="0"/>
        <pt x="131" y="773" on="0"/>
        <pt x="101" y="773" on="1"/>
        <pt x="72" y="773" on="0"/>
        <pt x="31" y="813" on="0"/>
        <pt x="31" y="842" on="1"/>
        <pt x="31" y="871" on="0"/>
        <pt x="72" y="911" on="0"/>
        <pt x="101" y="911" on="1"/>
      </contour>
      <contour>
        <pt x="353" y="911" on="0"/>
        <pt x="393" y="871" on="0"/>
        <pt x="393" y="842" on="1"/>
        <pt x="393" y="813" on="0"/>
        <pt x="353" y="773" on="0"/>
        <pt x="323" y="773" on="1"/>
        <pt x="294" y="773" on="0"/>
        <pt x="253" y="813" on="0"/>
        <pt x="253" y="842" on="1"/>
        <pt x="253" y="871" on="0"/>
        <pt x="294" y="911" on="0"/>
        <pt x="323" y="911" on="1"/>
      </contour>
    </TTGlyph>
    <TTGlyph name="dieresis.sc" xMin="31" yMin="677" xMax="393" yMax="815">
      <contour>
        <pt x="131" y="815" on="0"/>
        <pt x="171" y="775" on="0"/>
        <pt x="171" y="746" on="1"/>
        <pt x="171" y="717" on="0"/>
        <pt x="131" y="677" on="0"/>
        <pt x="101" y="677" on="1"/>
        <pt x="72" y="677" on="0"/>
        <pt x="31" y="717" on="0"/>
        <pt x="31" y="746" on="1"/>
        <pt x="31" y="775" on="0"/>
        <pt x="72" y="815" on="0"/>
        <pt x="101" y="815" on="1"/>
      </contour>
      <contour>
        <pt x="353" y="815" on="0"/>
        <pt x="393" y="775" on="0"/>
        <pt x="393" y="746" on="1"/>
        <pt x="393" y="717" on="0"/>
        <pt x="353" y="677" on="0"/>
        <pt x="323" y="677" on="1"/>
        <pt x="294" y="677" on="0"/>
        <pt x="253" y="717" on="0"/>
        <pt x="253" y="746" on="1"/>
        <pt x="253" y="775" on="0"/>
        <pt x="294" y="815" on="0"/>
        <pt x="323" y="815" on="1"/>
      </contour>
    </TTGlyph>
    <TTGlyph name="dieresiscombcomb" xMin="40" yMin="647" xMax="402" yMax="785">
      <component glyphName="uni0308" x="0" y="0" flags="0x0"/>
    </TTGlyph>
    <TTGlyph name="dieresistonos" xMin="30" yMin="616" xMax="419" yMax="936">
      <contour>
        <pt x="263" y="733" on="1"/>
        <pt x="183" y="745" on="1"/>
        <pt x="212" y="936" on="1"/>
        <pt x="331" y="915" on="1"/>
      </contour>
      <contour>
        <pt x="129" y="752" on="0"/>
        <pt x="169" y="713" on="0"/>
        <pt x="169" y="684" on="1"/>
        <pt x="169" y="655" on="0"/>
        <pt x="129" y="616" on="0"/>
        <pt x="100" y="616" on="1"/>
        <pt x="71" y="616" on="0"/>
        <pt x="30" y="656" on="0"/>
        <pt x="30" y="684" on="1"/>
        <pt x="30" y="712" on="0"/>
        <pt x="71" y="752" on="0"/>
        <pt x="100" y="752" on="1"/>
      </contour>
      <contour>
        <pt x="379" y="752" on="0"/>
        <pt x="419" y="713" on="0"/>
        <pt x="419" y="684" on="1"/>
        <pt x="419" y="655" on="0"/>
        <pt x="379" y="616" on="0"/>
        <pt x="349" y="616" on="1"/>
        <pt x="320" y="616" on="0"/>
        <pt x="280" y="656" on="0"/>
        <pt x="280" y="684" on="1"/>
        <pt x="280" y="712" on="0"/>
        <pt x="320" y="752" on="0"/>
        <pt x="349" y="752" on="1"/>
      </contour>
    </TTGlyph>
    <TTGlyph name="divide" xMin="55" yMin="16" xMax="456" yMax="649">
      <component glyphName="period" x="135" y="31" flags="0x0"/>
      <component glyphName="period" x="135" y="501" flags="0x0"/>
      <component glyphName="minus" x="0" y="0" flags="0x0"/>
    </TTGlyph>
    <TTGlyph name="divide.osf" xMin="55" yMin="17" xMax="456" yMax="649">
      <contour>
        <pt x="290" y="649" on="0"/>
        <pt x="337" y="602" on="0"/>
        <pt x="337" y="569" on="1"/>
        <pt x="337" y="535" on="0"/>
        <pt x="290" y="488" on="0"/>
        <pt x="256" y="488" on="1"/>
        <pt x="222" y="488" on="0"/>
        <pt x="175" y="535" on="0"/>
        <pt x="175" y="569" on="1"/>
        <pt x="175" y="602" on="0"/>
        <pt x="222" y="649" on="0"/>
        <pt x="256" y="649" on="1"/>
      </contour>
      <contour>
        <pt x="456" y="383" on="1"/>
        <pt x="456" y="281" on="1"/>
        <pt x="55" y="281" on="1"/>
        <pt x="55" y="383" on="1"/>
      </contour>
      <contour>
        <pt x="290" y="178" on="0"/>
        <pt x="337" y="131" on="0"/>
        <pt x="337" y="98" on="1"/>
        <pt x="337" y="64" on="0"/>
        <pt x="289" y="17" on="0"/>
        <pt x="255" y="17" on="1"/>
        <pt x="221" y="17" on="0"/>
        <pt x="175" y="64" on="0"/>
        <pt x="175" y="98" on="1"/>
        <pt x="175" y="131" on="0"/>
        <pt x="222" y="178" on="0"/>
        <pt x="256" y="178" on="1"/>
      </contour>
    </TTGlyph>
    <TTGlyph name="divide.tf" xMin="80" yMin="17" xMax="481" yMax="649">
      <contour>
        <pt x="314" y="649" on="0"/>
        <pt x="361" y="602" on="0"/>
        <pt x="361" y="569" on="1"/>
        <pt x="361" y="535" on="0"/>
        <pt x="314" y="488" on="0"/>
        <pt x="280" y="488" on="1"/>
        <pt x="246" y="488" on="0"/>
        <pt x="200" y="535" on="0"/>
        <pt x="200" y="569" on="1"/>
        <pt x="200" y="602" on="0"/>
        <pt x="246" y="649" on="0"/>
        <pt x="280" y="649" on="1"/>
      </contour>
      <contour>
        <pt x="481" y="383" on="1"/>
        <pt x="481" y="282" on="1"/>
        <pt x="80" y="282" on="1"/>
        <pt x="80" y="383" on="1"/>
      </contour>
      <contour>
        <pt x="314" y="178" on="0"/>
        <pt x="361" y="131" on="0"/>
        <pt x="361" y="98" on="1"/>
        <pt x="361" y="64" on="0"/>
        <pt x="314" y="17" on="0"/>
        <pt x="280" y="17" on="1"/>
        <pt x="246" y="17" on="0"/>
        <pt x="200" y="64" on="0"/>
        <pt x="200" y="98" on="1"/>
        <pt x="200" y="131" on="0"/>
        <pt x="246" y="178" on="0"/>
        <pt x="280" y="178" on="1"/>
      </contour>
    </TTGlyph>
    <TTGlyph name="divide.tosf" xMin="80" yMin="17" xMax="481" yMax="649">
      <contour>
        <pt x="314" y="649" on="0"/>
        <pt x="361" y="602" on="0"/>
        <pt x="361" y="569" on="1"/>
        <pt x="361" y="535" on="0"/>
        <pt x="314" y="488" on="0"/>
        <pt x="280" y="488" on="1"/>
        <pt x="246" y="488" on="0"/>
        <pt x="200" y="535" on="0"/>
        <pt x="200" y="569" on="1"/>
        <pt x="200" y="602" on="0"/>
        <pt x="246" y="649" on="0"/>
        <pt x="280" y="649" on="1"/>
      </contour>
      <contour>
        <pt x="481" y="383" on="1"/>
        <pt x="481" y="282" on="1"/>
        <pt x="80" y="282" on="1"/>
        <pt x="80" y="383" on="1"/>
      </contour>
      <contour>
        <pt x="314" y="178" on="0"/>
        <pt x="361" y="131" on="0"/>
        <pt x="361" y="98" on="1"/>
        <pt x="361" y="64" on="0"/>
        <pt x="314" y="17" on="0"/>
        <pt x="280" y="17" on="1"/>
        <pt x="246" y="17" on="0"/>
        <pt x="200" y="64" on="0"/>
        <pt x="200" y="98" on="1"/>
        <pt x="200" y="131" on="0"/>
        <pt x="246" y="178" on="0"/>
        <pt x="280" y="178" on="1"/>
      </contour>
    </TTGlyph>
    <TTGlyph name="divisionslash" xMin="-167" yMin="-82" xMax="319" yMax="755">
      <component glyphName="fraction" x="0" y="0" flags="0x0"/>
    </TTGlyph>
    <TTGlyph name="dollar" xMin="17" yMin="-158" xMax="509" yMax="827">
      <contour>
        <pt x="509" y="116" on="0"/>
        <pt x="413" y="11" on="0"/>
        <pt x="326" y="-5" on="1"/>
        <pt x="326" y="-158" on="1"/>
        <pt x="228" y="-158" on="1"/>
        <pt x="228" y="-10" on="1"/>
        <pt x="100" y="-2" on="0"/>
        <pt x="17" y="80" on="1"/>
        <pt x="85" y="155" on="1"/>
        <pt x="158" y="87" on="0"/>
        <pt x="254" y="87" on="1"/>
        <pt x="309" y="87" on="0"/>
        <pt x="377" y="139" on="0"/>
        <pt x="377" y="186" on="1"/>
        <pt x="377" y="215" on="0"/>
        <pt x="354" y="253" on="0"/>
        <pt x="298" y="283" on="0"/>
        <pt x="245" y="299" on="1"/>
        <pt x="138" y="331" on="0"/>
        <pt x="44" y="425" on="0"/>
        <pt x="44" y="499" on="1"/>
        <pt x="44" y="572" on="0"/>
        <pt x="145" y="670" on="0"/>
        <pt x="228" y="681" on="1"/>
        <pt x="228" y="827" on="1"/>
        <pt x="326" y="827" on="1"/>
        <pt x="326" y="680" on="1"/>
        <pt x="376" y="673" on="0"/>
        <pt x="455" y="634" on="0"/>
        <pt x="490" y="601" on="1"/>
        <pt x="425" y="528" on="1"/>
        <pt x="392" y="558" on="0"/>
        <pt x="320" y="586" on="0"/>
        <pt x="278" y="586" on="1"/>
        <pt x="232" y="586" on="0"/>
        <pt x="175" y="545" on="0"/>
        <pt x="175" y="507" on="1"/>
        <pt x="175" y="482" on="0"/>
        <pt x="198" y="449" on="0"/>
        <pt x="256" y="420" on="0"/>
        <pt x="312" y="403" on="1"/>
        <pt x="411" y="372" on="0"/>
        <pt x="509" y="280" on="0"/>
        <pt x="509" y="193" on="1"/>
      </contour>
    </TTGlyph>
    <TTGlyph name="dollar.osf" xMin="17" yMin="-158" xMax="509" yMax="827">
      <component glyphName="dollar" x="0" y="0" flags="0x0"/>
    </TTGlyph>
    <TTGlyph name="dollar.tf" xMin="23" yMin="-158" xMax="516" yMax="849">
      <contour>
        <pt x="516" y="123" on="0"/>
        <pt x="418" y="16" on="0"/>
        <pt x="330" y="0" on="1"/>
        <pt x="330" y="-158" on="1"/>
        <pt x="232" y="-158" on="1"/>
        <pt x="232" y="-5" on="1"/>
        <pt x="106" y="5" on="0"/>
        <pt x="23" y="86" on="1"/>
        <pt x="90" y="162" on="1"/>
        <pt x="163" y="94" on="0"/>
        <pt x="260" y="94" on="1"/>
        <pt x="315" y="94" on="0"/>
        <pt x="384" y="146" on="0"/>
        <pt x="384" y="194" on="1"/>
        <pt x="384" y="223" on="0"/>
        <pt x="361" y="262" on="0"/>
        <pt x="305" y="292" on="0"/>
        <pt x="251" y="309" on="1"/>
        <pt x="144" y="343" on="0"/>
        <pt x="50" y="436" on="0"/>
        <pt x="50" y="512" on="1"/>
        <pt x="50" y="585" on="0"/>
        <pt x="150" y="684" on="0"/>
        <pt x="232" y="695" on="1"/>
        <pt x="232" y="849" on="1"/>
        <pt x="330" y="849" on="1"/>
        <pt x="330" y="695" on="1"/>
        <pt x="381" y="688" on="0"/>
        <pt x="461" y="649" on="0"/>
        <pt x="496" y="615" on="1"/>
        <pt x="432" y="541" on="1"/>
        <pt x="366" y="600" on="0"/>
        <pt x="285" y="600" on="1"/>
        <pt x="238" y="600" on="0"/>
        <pt x="180" y="558" on="0"/>
        <pt x="180" y="520" on="1"/>
        <pt x="180" y="494" on="0"/>
        <pt x="203" y="461" on="0"/>
        <pt x="261" y="432" on="0"/>
        <pt x="318" y="414" on="1"/>
        <pt x="383" y="393" on="0"/>
        <pt x="468" y="342" on="0"/>
        <pt x="516" y="262" on="0"/>
        <pt x="516" y="201" on="1"/>
      </contour>
    </TTGlyph>
    <TTGlyph name="dollar.tosf" xMin="26" yMin="-158" xMax="508" yMax="828">
      <contour>
        <pt x="508" y="118" on="0"/>
        <pt x="413" y="12" on="0"/>
        <pt x="330" y="-4" on="1"/>
        <pt x="330" y="-158" on="1"/>
        <pt x="231" y="-158" on="1"/>
        <pt x="231" y="-9" on="1"/>
        <pt x="168" y="-4" on="0"/>
        <pt x="64" y="44" on="0"/>
        <pt x="26" y="82" on="1"/>
        <pt x="94" y="156" on="1"/>
        <pt x="168" y="88" on="0"/>
        <pt x="259" y="88" on="1"/>
        <pt x="311" y="88" on="0"/>
        <pt x="378" y="140" on="0"/>
        <pt x="378" y="186" on="1"/>
        <pt x="378" y="215" on="0"/>
        <pt x="356" y="253" on="0"/>
        <pt x="302" y="284" on="0"/>
        <pt x="251" y="301" on="1"/>
        <pt x="147" y="336" on="0"/>
        <pt x="57" y="426" on="0"/>
        <pt x="57" y="500" on="1"/>
        <pt x="57" y="571" on="0"/>
        <pt x="154" y="668" on="0"/>
        <pt x="231" y="680" on="1"/>
        <pt x="231" y="828" on="1"/>
        <pt x="330" y="828" on="1"/>
        <pt x="330" y="681" on="1"/>
        <pt x="422" y="668" on="0"/>
        <pt x="491" y="602" on="1"/>
        <pt x="430" y="529" on="1"/>
        <pt x="360" y="587" on="0"/>
        <pt x="288" y="587" on="1"/>
        <pt x="243" y="587" on="0"/>
        <pt x="185" y="546" on="0"/>
        <pt x="185" y="508" on="1"/>
        <pt x="185" y="483" on="0"/>
        <pt x="207" y="449" on="0"/>
        <pt x="262" y="419" on="0"/>
        <pt x="317" y="401" on="1"/>
        <pt x="379" y="380" on="0"/>
        <pt x="461" y="332" on="0"/>
        <pt x="508" y="254" on="0"/>
        <pt x="508" y="194" on="1"/>
      </contour>
    </TTGlyph>
    <TTGlyph name="dotaccent" xMin="30" yMin="642" xMax="191" yMax="797">
      <contour>
        <pt x="146" y="797" on="0"/>
        <pt x="191" y="752" on="0"/>
        <pt x="191" y="719" on="1"/>
        <pt x="191" y="686" on="0"/>
        <pt x="146" y="642" on="0"/>
        <pt x="110" y="642" on="1"/>
        <pt x="75" y="642" on="0"/>
        <pt x="30" y="686" on="0"/>
        <pt x="30" y="719" on="1"/>
        <pt x="30" y="752" on="0"/>
        <pt x="75" y="797" on="0"/>
        <pt x="110" y="797" on="1"/>
      </contour>
    </TTGlyph>
    <TTGlyph name="dotaccent.case" xMin="30" yMin="768" xMax="191" yMax="923">
      <contour>
        <pt x="146" y="923" on="0"/>
        <pt x="191" y="878" on="0"/>
        <pt x="191" y="845" on="1"/>
        <pt x="191" y="812" on="0"/>
        <pt x="146" y="768" on="0"/>
        <pt x="110" y="768" on="1"/>
        <pt x="75" y="768" on="0"/>
        <pt x="30" y="812" on="0"/>
        <pt x="30" y="845" on="1"/>
        <pt x="30" y="878" on="0"/>
        <pt x="75" y="923" on="0"/>
        <pt x="110" y="923" on="1"/>
      </contour>
    </TTGlyph>
    <TTGlyph name="dotaccent.sc" xMin="30" yMin="672" xMax="191" yMax="827">
      <contour>
        <pt x="146" y="827" on="0"/>
        <pt x="191" y="782" on="0"/>
        <pt x="191" y="749" on="1"/>
        <pt x="191" y="716" on="0"/>
        <pt x="146" y="672" on="0"/>
        <pt x="110" y="672" on="1"/>
        <pt x="75" y="672" on="0"/>
        <pt x="30" y="716" on="0"/>
        <pt x="30" y="749" on="1"/>
        <pt x="30" y="782" on="0"/>
        <pt x="75" y="827" on="0"/>
        <pt x="110" y="827" on="1"/>
      </contour>
    </TTGlyph>
    <TTGlyph name="dotaccentcombcomb" xMin="39" yMin="642" xMax="200" yMax="797">
      <component glyphName="uni0307" x="0" y="0" flags="0x0"/>
    </TTGlyph>
    <TTGlyph name="dotlessi" xMin="77" yMin="0" xMax="205" yMax="529">
      <contour>
        <pt x="77" y="0" on="1"/>
        <pt x="77" y="529" on="1"/>
        <pt x="205" y="529" on="1"/>
        <pt x="205" y="0" on="1"/>
      </contour>
    </TTGlyph>
    <TTGlyph name="dotlessi.sc" xMin="81" yMin="0" xMax="209" yMax="566">
      <component glyphName="i.sc" x="0" y="0" flags="0x0"/>
    </TTGlyph>
    <TTGlyph name="dotlessj.sc" xMin="-3" yMin="-136" xMax="214" yMax="566">
      <component glyphName="j.sc" x="0" y="0" flags="0x0"/>
    </TTGlyph>
    <TTGlyph name="dotmath" xMin="39" yMin="228" xMax="201" yMax="390">
      <component glyphName="periodcentered" x="0" y="0" flags="0x0"/>
    </TTGlyph>
    <TTGlyph name="e" xMin="43" yMin="-15" xMax="511" yMax="544">
      <contour>
        <pt x="511" y="267" on="0"/>
        <pt x="508" y="225" on="1"/>
        <pt x="176" y="225" on="1"/>
        <pt x="183" y="148" on="0"/>
        <pt x="250" y="82" on="0"/>
        <pt x="306" y="82" on="1"/>
        <pt x="341" y="82" on="0"/>
        <pt x="403" y="105" on="0"/>
        <pt x="438" y="129" on="1"/>
        <pt x="491" y="56" on="1"/>
        <pt x="403" y="-15" on="0"/>
        <pt x="295" y="-15" on="1"/>
        <pt x="174" y="-15" on="0"/>
        <pt x="43" y="133" on="0"/>
        <pt x="43" y="261" on="1"/>
        <pt x="43" y="342" on="0"/>
        <pt x="99" y="471" on="0"/>
        <pt x="205" y="544" on="0"/>
        <pt x="278" y="544" on="1"/>
        <pt x="389" y="544" on="0"/>
        <pt x="511" y="403" on="0"/>
        <pt x="511" y="277" on="1"/>
      </contour>
      <contour>
        <pt x="384" y="314" on="1"/>
        <pt x="384" y="453" on="0"/>
        <pt x="281" y="453" on="1"/>
        <pt x="234" y="453" on="0"/>
        <pt x="181" y="384" on="0"/>
        <pt x="176" y="308" on="1"/>
        <pt x="384" y="308" on="1"/>
      </contour>
    </TTGlyph>
    <TTGlyph name="e.sc" xMin="81" yMin="0" xMax="439" yMax="566">
      <contour>
        <pt x="208" y="474" on="1"/>
        <pt x="208" y="334" on="1"/>
        <pt x="397" y="334" on="1"/>
        <pt x="397" y="243" on="1"/>
        <pt x="208" y="243" on="1"/>
        <pt x="208" y="93" on="1"/>
        <pt x="439" y="93" on="1"/>
        <pt x="439" y="0" on="1"/>
        <pt x="81" y="0" on="1"/>
        <pt x="81" y="566" on="1"/>
        <pt x="438" y="566" on="1"/>
        <pt x="425" y="474" on="1"/>
      </contour>
    </TTGlyph>
    <TTGlyph name="eacute" xMin="43" yMin="-15" xMax="511" yMax="820">
      <component glyphName="e" x="0" y="0" flags="0x0"/>
      <component glyphName="acute" x="110" y="0" flags="0x0"/>
    </TTGlyph>
    <TTGlyph name="eacute.sc" xMin="81" yMin="0" xMax="439" yMax="850">
      <component glyphName="e.sc" x="0" y="0" flags="0x0"/>
      <component glyphName="acute.sc" x="97" y="0" flags="0x0"/>
    </TTGlyph>
    <TTGlyph name="ebreve" xMin="43" yMin="-15" xMax="511" yMax="806">
      <component glyphName="e" x="0" y="0" flags="0x0"/>
      <component glyphName="breve" x="88" y="0" flags="0x0"/>
    </TTGlyph>
    <TTGlyph name="ebreve.sc" xMin="81" yMin="0" xMax="439" yMax="836">
      <component glyphName="e.sc" x="0" y="0" flags="0x0"/>
      <component glyphName="breve.sc" x="68" y="0" flags="0x0"/>
    </TTGlyph>
    <TTGlyph name="ecaron" xMin="43" yMin="-15" xMax="511" yMax="800">
      <component glyphName="e" x="0" y="0" flags="0x0"/>
      <component glyphName="caron" x="72" y="0" flags="0x0"/>
    </TTGlyph>
    <TTGlyph name="ecaron.sc" xMin="81" yMin="0" xMax="441" yMax="831">
      <component glyphName="e.sc" x="0" y="0" flags="0x0"/>
      <component glyphName="caron.sc" x="52" y="0" flags="0x0"/>
    </TTGlyph>
    <TTGlyph name="ecircumflex" xMin="43" yMin="-15" xMax="511" yMax="808">
      <component glyphName="e" x="0" y="0" flags="0x0"/>
      <component glyphName="circumflex" x="72" y="0" flags="0x0"/>
    </TTGlyph>
    <TTGlyph name="ecircumflex.sc" xMin="81" yMin="0" xMax="441" yMax="839">
      <component glyphName="e.sc" x="0" y="0" flags="0x0"/>
      <component glyphName="circumflex.sc" x="52" y="0" flags="0x0"/>
    </TTGlyph>
    <TTGlyph name="edieresis" xMin="43" yMin="-15" xMax="511" yMax="785">
      <component glyphName="e" x="0" y="0" flags="0x0"/>
      <component glyphName="dieresis" x="68" y="0" flags="0x0"/>
    </TTGlyph>
    <TTGlyph name="edieresis.sc" xMin="80" yMin="0" xMax="442" yMax="815">
      <component glyphName="e.sc" x="0" y="0" flags="0x0"/>
      <component glyphName="dieresis.sc" x="49" y="0" flags="0x0"/>
    </TTGlyph>
    <TTGlyph name="edotaccent" xMin="43" yMin="-15" xMax="511" yMax="797">
      <component glyphName="e" x="0" y="0" flags="0x0"/>
      <component glyphName="dotaccent" x="170" y="0" flags="0x0"/>
    </TTGlyph>
    <TTGlyph name="edotaccent.sc" xMin="81" yMin="0" xMax="439" yMax="827">
      <component glyphName="e.sc" x="0" y="0" flags="0x0"/>
      <component glyphName="dotaccent.sc" x="150" y="0" flags="0x0"/>
    </TTGlyph>
    <TTGlyph name="egrave" xMin="43" yMin="-15" xMax="511" yMax="820">
      <component glyphName="e" x="0" y="0" flags="0x0"/>
      <component glyphName="grave" x="130" y="0" flags="0x0"/>
    </TTGlyph>
    <TTGlyph name="egrave.sc" xMin="81" yMin="0" xMax="439" yMax="850">
      <component glyphName="e.sc" x="0" y="0" flags="0x0"/>
      <component glyphName="grave.sc" x="103" y="0" flags="0x0"/>
    </TTGlyph>
    <TTGlyph name="eight" xMin="37" yMin="-15" xMax="531" yMax="685">
      <contour>
        <pt x="531" y="299" on="0"/>
        <pt x="531" y="181" on="1"/>
        <pt x="531" y="126" on="0"/>
        <pt x="469" y="37" on="0"/>
        <pt x="356" y="-15" on="0"/>
        <pt x="281" y="-15" on="1"/>
        <pt x="207" y="-15" on="0"/>
        <pt x="97" y="36" on="0"/>
        <pt x="37" y="124" on="0"/>
        <pt x="37" y="179" on="1"/>
        <pt x="37" y="295" on="0"/>
        <pt x="165" y="349" on="1"/>
        <pt x="64" y="405" on="0"/>
        <pt x="64" y="508" on="1"/>
        <pt x="64" y="561" on="0"/>
        <pt x="123" y="642" on="0"/>
        <pt x="224" y="685" on="0"/>
        <pt x="284" y="685" on="1"/>
        <pt x="345" y="685" on="0"/>
        <pt x="445" y="645" on="0"/>
        <pt x="504" y="567" on="0"/>
        <pt x="504" y="513" on="1"/>
        <pt x="504" y="418" on="0"/>
        <pt x="393" y="361" on="1"/>
      </contour>
      <contour>
        <pt x="239" y="595" on="0"/>
        <pt x="188" y="549" on="0"/>
        <pt x="188" y="506" on="1"/>
        <pt x="188" y="466" on="0"/>
        <pt x="236" y="419" on="0"/>
        <pt x="289" y="400" on="1"/>
        <pt x="309" y="393" on="1"/>
        <pt x="348" y="417" on="0"/>
        <pt x="380" y="471" on="0"/>
        <pt x="380" y="507" on="1"/>
        <pt x="380" y="548" on="0"/>
        <pt x="330" y="595" on="0"/>
        <pt x="284" y="595" on="1"/>
      </contour>
      <contour>
        <pt x="339" y="80" on="0"/>
        <pt x="401" y="136" on="0"/>
        <pt x="401" y="181" on="1"/>
        <pt x="401" y="227" on="0"/>
        <pt x="347" y="280" on="0"/>
        <pt x="278" y="305" on="1"/>
        <pt x="248" y="315" on="1"/>
        <pt x="166" y="273" on="0"/>
        <pt x="166" y="183" on="1"/>
        <pt x="166" y="135" on="0"/>
        <pt x="230" y="80" on="0"/>
        <pt x="284" y="80" on="1"/>
      </contour>
    </TTGlyph>
    <TTGlyph name="eight.dnom" xMin="31" yMin="-11" xMax="369" yMax="428">
      <contour>
        <pt x="326" y="204" on="0"/>
        <pt x="369" y="149" on="0"/>
        <pt x="369" y="113" on="1"/>
        <pt x="369" y="79" on="0"/>
        <pt x="328" y="22" on="0"/>
        <pt x="250" y="-11" on="0"/>
        <pt x="198" y="-11" on="1"/>
        <pt x="147" y="-11" on="0"/>
        <pt x="71" y="22" on="0"/>
        <pt x="31" y="78" on="0"/>
        <pt x="31" y="112" on="1"/>
        <pt x="31" y="181" on="0"/>
        <pt x="115" y="216" on="1"/>
        <pt x="49" y="252" on="0"/>
        <pt x="49" y="315" on="1"/>
        <pt x="49" y="365" on="0"/>
        <pt x="135" y="428" on="0"/>
        <pt x="201" y="428" on="1"/>
        <pt x="267" y="428" on="0"/>
        <pt x="352" y="370" on="0"/>
        <pt x="352" y="320" on="1"/>
        <pt x="352" y="292" on="0"/>
        <pt x="316" y="243" on="0"/>
        <pt x="280" y="225" on="1"/>
      </contour>
      <contour>
        <pt x="175" y="362" on="0"/>
        <pt x="146" y="338" on="0"/>
        <pt x="146" y="314" on="1"/>
        <pt x="146" y="293" on="0"/>
        <pt x="173" y="266" on="0"/>
        <pt x="201" y="256" on="1"/>
        <pt x="215" y="251" on="1"/>
        <pt x="237" y="265" on="0"/>
        <pt x="255" y="295" on="0"/>
        <pt x="255" y="315" on="1"/>
        <pt x="255" y="336" on="0"/>
        <pt x="227" y="362" on="0"/>
        <pt x="201" y="362" on="1"/>
      </contour>
      <contour>
        <pt x="234" y="61" on="0"/>
        <pt x="269" y="90" on="0"/>
        <pt x="269" y="114" on="1"/>
        <pt x="269" y="139" on="0"/>
        <pt x="238" y="167" on="0"/>
        <pt x="199" y="180" on="1"/>
        <pt x="176" y="188" on="1"/>
        <pt x="132" y="165" on="0"/>
        <pt x="132" y="116" on="1"/>
        <pt x="132" y="90" on="0"/>
        <pt x="169" y="61" on="0"/>
        <pt x="201" y="61" on="1"/>
      </contour>
    </TTGlyph>
    <TTGlyph name="eight.numr" xMin="31" yMin="261" xMax="369" yMax="700">
      <component glyphName="eight.dnom" x="0" y="272" flags="0x0"/>
    </TTGlyph>
    <TTGlyph name="eight.osf" xMin="37" yMin="-15" xMax="531" yMax="685">
      <contour>
        <pt x="531" y="299" on="0"/>
        <pt x="531" y="181" on="1"/>
        <pt x="531" y="126" on="0"/>
        <pt x="469" y="37" on="0"/>
        <pt x="356" y="-15" on="0"/>
        <pt x="281" y="-15" on="1"/>
        <pt x="207" y="-15" on="0"/>
        <pt x="97" y="36" on="0"/>
        <pt x="37" y="124" on="0"/>
        <pt x="37" y="179" on="1"/>
        <pt x="37" y="295" on="0"/>
        <pt x="165" y="349" on="1"/>
        <pt x="64" y="405" on="0"/>
        <pt x="64" y="508" on="1"/>
        <pt x="64" y="561" on="0"/>
        <pt x="123" y="642" on="0"/>
        <pt x="224" y="685" on="0"/>
        <pt x="284" y="685" on="1"/>
        <pt x="345" y="685" on="0"/>
        <pt x="445" y="645" on="0"/>
        <pt x="504" y="567" on="0"/>
        <pt x="504" y="513" on="1"/>
        <pt x="504" y="418" on="0"/>
        <pt x="393" y="361" on="1"/>
      </contour>
      <contour>
        <pt x="239" y="595" on="0"/>
        <pt x="188" y="549" on="0"/>
        <pt x="188" y="506" on="1"/>
        <pt x="188" y="466" on="0"/>
        <pt x="236" y="419" on="0"/>
        <pt x="289" y="400" on="1"/>
        <pt x="309" y="393" on="1"/>
        <pt x="348" y="417" on="0"/>
        <pt x="380" y="471" on="0"/>
        <pt x="380" y="507" on="1"/>
        <pt x="380" y="548" on="0"/>
        <pt x="330" y="595" on="0"/>
        <pt x="284" y="595" on="1"/>
      </contour>
      <contour>
        <pt x="339" y="80" on="0"/>
        <pt x="401" y="136" on="0"/>
        <pt x="401" y="181" on="1"/>
        <pt x="401" y="227" on="0"/>
        <pt x="347" y="280" on="0"/>
        <pt x="278" y="305" on="1"/>
        <pt x="248" y="315" on="1"/>
        <pt x="166" y="273" on="0"/>
        <pt x="166" y="183" on="1"/>
        <pt x="166" y="135" on="0"/>
        <pt x="230" y="80" on="0"/>
        <pt x="284" y="80" on="1"/>
      </contour>
    </TTGlyph>
    <TTGlyph name="eight.tf" xMin="35" yMin="-15" xMax="525" yMax="706">
      <contour>
        <pt x="456" y="341" on="0"/>
        <pt x="525" y="250" on="0"/>
        <pt x="525" y="186" on="1"/>
        <pt x="525" y="129" on="0"/>
        <pt x="464" y="37" on="0"/>
        <pt x="351" y="-15" on="0"/>
        <pt x="277" y="-15" on="1"/>
        <pt x="204" y="-15" on="0"/>
        <pt x="94" y="36" on="0"/>
        <pt x="35" y="126" on="0"/>
        <pt x="35" y="183" on="1"/>
        <pt x="35" y="303" on="0"/>
        <pt x="163" y="360" on="1"/>
        <pt x="111" y="389" on="0"/>
        <pt x="62" y="469" on="0"/>
        <pt x="62" y="522" on="1"/>
        <pt x="62" y="579" on="0"/>
        <pt x="120" y="662" on="0"/>
        <pt x="220" y="706" on="0"/>
        <pt x="280" y="706" on="1"/>
        <pt x="374" y="706" on="0"/>
        <pt x="498" y="612" on="0"/>
        <pt x="498" y="527" on="1"/>
        <pt x="498" y="478" on="0"/>
        <pt x="444" y="401" on="0"/>
        <pt x="388" y="371" on="1"/>
      </contour>
      <contour>
        <pt x="235" y="617" on="0"/>
        <pt x="185" y="568" on="0"/>
        <pt x="185" y="520" on="1"/>
        <pt x="185" y="476" on="0"/>
        <pt x="236" y="427" on="0"/>
        <pt x="294" y="407" on="1"/>
        <pt x="305" y="403" on="1"/>
        <pt x="344" y="428" on="0"/>
        <pt x="376" y="482" on="0"/>
        <pt x="376" y="521" on="1"/>
        <pt x="376" y="565" on="0"/>
        <pt x="325" y="617" on="0"/>
        <pt x="280" y="617" on="1"/>
      </contour>
      <contour>
        <pt x="334" y="80" on="0"/>
        <pt x="396" y="139" on="0"/>
        <pt x="396" y="185" on="1"/>
        <pt x="396" y="237" on="0"/>
        <pt x="342" y="292" on="0"/>
        <pt x="271" y="314" on="1"/>
        <pt x="244" y="325" on="1"/>
        <pt x="203" y="303" on="0"/>
        <pt x="164" y="237" on="0"/>
        <pt x="164" y="188" on="1"/>
        <pt x="164" y="137" on="0"/>
        <pt x="227" y="80" on="0"/>
        <pt x="280" y="80" on="1"/>
      </contour>
    </TTGlyph>
    <TTGlyph name="eight.tosf" xMin="38" yMin="-15" xMax="527" yMax="685">
      <contour>
        <pt x="460" y="329" on="0"/>
        <pt x="527" y="241" on="0"/>
        <pt x="527" y="181" on="1"/>
        <pt x="527" y="126" on="0"/>
        <pt x="466" y="37" on="0"/>
        <pt x="354" y="-15" on="0"/>
        <pt x="280" y="-15" on="1"/>
        <pt x="206" y="-15" on="0"/>
        <pt x="97" y="36" on="0"/>
        <pt x="38" y="124" on="0"/>
        <pt x="38" y="179" on="1"/>
        <pt x="38" y="294" on="0"/>
        <pt x="165" y="350" on="1"/>
        <pt x="65" y="405" on="0"/>
        <pt x="65" y="507" on="1"/>
        <pt x="65" y="561" on="0"/>
        <pt x="123" y="642" on="0"/>
        <pt x="223" y="685" on="0"/>
        <pt x="283" y="685" on="1"/>
        <pt x="343" y="685" on="0"/>
        <pt x="442" y="644" on="0"/>
        <pt x="501" y="566" on="0"/>
        <pt x="501" y="512" on="1"/>
        <pt x="501" y="465" on="0"/>
        <pt x="447" y="390" on="0"/>
        <pt x="392" y="361" on="1"/>
      </contour>
      <contour>
        <pt x="238" y="595" on="0"/>
        <pt x="187" y="549" on="0"/>
        <pt x="187" y="506" on="1"/>
        <pt x="187" y="465" on="0"/>
        <pt x="237" y="417" on="0"/>
        <pt x="291" y="399" on="1"/>
        <pt x="308" y="393" on="1"/>
        <pt x="346" y="416" on="0"/>
        <pt x="378" y="470" on="0"/>
        <pt x="378" y="507" on="1"/>
        <pt x="378" y="547" on="0"/>
        <pt x="328" y="595" on="0"/>
        <pt x="283" y="595" on="1"/>
      </contour>
      <contour>
        <pt x="338" y="80" on="0"/>
        <pt x="399" y="136" on="0"/>
        <pt x="399" y="181" on="1"/>
        <pt x="399" y="227" on="0"/>
        <pt x="344" y="280" on="0"/>
        <pt x="276" y="304" on="1"/>
        <pt x="245" y="315" on="1"/>
        <pt x="166" y="273" on="0"/>
        <pt x="166" y="183" on="1"/>
        <pt x="166" y="135" on="0"/>
        <pt x="229" y="80" on="0"/>
        <pt x="284" y="80" on="1"/>
      </contour>
    </TTGlyph>
    <TTGlyph name="eightinferior" xMin="31" yMin="-215" xMax="369" yMax="225">
      <component glyphName="eight.dnom" x="0" y="-203" flags="0x0"/>
    </TTGlyph>
    <TTGlyph name="eightsuperior" xMin="31" yMin="311" xMax="369" yMax="750">
      <component glyphName="eight.dnom" x="0" y="321" flags="0x0"/>
    </TTGlyph>
    <TTGlyph name="ellipsis" xMin="39" yMin="-15" xMax="692" yMax="147">
      <component glyphName="period" x="245" y="0" flags="0x0"/>
      <component glyphName="period" x="491" y="0" flags="0x0"/>
      <component glyphName="period" x="0" y="0" flags="0x0"/>
    </TTGlyph>
    <TTGlyph name="emacron" xMin="43" yMin="-15" xMax="511" yMax="752">
      <component glyphName="e" x="0" y="0" flags="0x0"/>
      <component glyphName="macron" x="105" y="0" flags="0x0"/>
    </TTGlyph>
    <TTGlyph name="emacron.sc" xMin="81" yMin="0" xMax="439" yMax="782">
      <component glyphName="e.sc" x="0" y="0" flags="0x0"/>
      <component glyphName="macron.sc" x="85" y="0" flags="0x0"/>
    </TTGlyph>
    <TTGlyph name="emdash" xMin="26" yMin="262" xMax="767" yMax="364">
      <contour>
        <pt x="767" y="364" on="1"/>
        <pt x="767" y="262" on="1"/>
        <pt x="26" y="262" on="1"/>
        <pt x="26" y="364" on="1"/>
      </contour>
    </TTGlyph>
    <TTGlyph name="emdash.case" xMin="26" yMin="307" xMax="767" yMax="409">
      <component glyphName="emdash" x="0" y="45" flags="0x0"/>
    </TTGlyph>
</ttFont>
